solid ASCII
  facet normal 0.000000e+00 -1.000000e+00 0.000000e+00
    outer loop
      vertex   -2.200000e+01 -2.200000e+01 -1.590000e+02
      vertex   -2.200000e+01 -2.200000e+01 0.000000e+00
      vertex   -2.300000e+01 -2.200000e+01 -1.590000e+02
    endloop
  endfacet
  facet normal 0.000000e+00 -1.000000e+00 0.000000e+00
    outer loop
      vertex   -2.300000e+01 -2.200000e+01 -1.590000e+02
      vertex   -2.200000e+01 -2.200000e+01 0.000000e+00
      vertex   -2.300000e+01 -2.200000e+01 0.000000e+00
    endloop
  endfacet
  facet normal -1.000000e+00 0.000000e+00 0.000000e+00
    outer loop
      vertex   -2.300000e+01 -2.200000e+01 -1.590000e+02
      vertex   -2.300000e+01 -2.200000e+01 0.000000e+00
      vertex   -2.300000e+01 7.600000e+01 -1.590000e+02
    endloop
  endfacet
  facet normal -1.000000e+00 0.000000e+00 0.000000e+00
    outer loop
      vertex   -2.300000e+01 7.600000e+01 -1.590000e+02
      vertex   -2.300000e+01 -2.200000e+01 0.000000e+00
      vertex   -2.300000e+01 7.600000e+01 0.000000e+00
    endloop
  endfacet
  facet normal 0.000000e+00 1.000000e+00 0.000000e+00
    outer loop
      vertex   -2.200000e+01 7.600000e+01 -1.590000e+02
      vertex   2.500000e+01 7.600000e+01 0.000000e+00
      vertex   2.500000e+01 7.600000e+01 -1.590000e+02
    endloop
  endfacet
  facet normal 0.000000e+00 1.000000e+00 0.000000e+00
    outer loop
      vertex   2.500000e+01 7.600000e+01 0.000000e+00
      vertex   -2.200000e+01 7.600000e+01 -1.590000e+02
      vertex   -2.300000e+01 7.600000e+01 0.000000e+00
    endloop
  endfacet
  facet normal 0.000000e+00 1.000000e+00 0.000000e+00
    outer loop
      vertex   -2.300000e+01 7.600000e+01 0.000000e+00
      vertex   -2.200000e+01 7.600000e+01 -1.590000e+02
      vertex   -2.300000e+01 7.600000e+01 -1.590000e+02
    endloop
  endfacet
  facet normal 0.000000e+00 -1.000000e+00 -4.723387e-06
    outer loop
      vertex   2.500000e+01 -2.200075e+01 0.000000e+00
      vertex   -2.200000e+01 -2.200000e+01 -1.590000e+02
      vertex   2.500000e+01 -2.200000e+01 -1.590000e+02
    endloop
  endfacet
  facet normal -1.597912e-05 -1.000000e+00 0.000000e+00
    outer loop
      vertex   -2.200000e+01 -2.200000e+01 -1.590000e+02
      vertex   2.500000e+01 -2.200075e+01 0.000000e+00
      vertex   -2.200000e+01 -2.200000e+01 0.000000e+00
    endloop
  endfacet
  facet normal 1.000000e+00 0.000000e+00 -0.000000e+00
    outer loop
      vertex   2.500000e+01 7.600000e+01 -1.590000e+02
      vertex   2.500000e+01 7.600000e+01 0.000000e+00
      vertex   2.500000e+01 -2.200000e+01 -1.590000e+02
    endloop
  endfacet
  facet normal 1.000000e+00 -0.000000e+00 0.000000e+00
    outer loop
      vertex   2.500000e+01 -2.200075e+01 0.000000e+00
      vertex   2.500000e+01 -2.200000e+01 -1.590000e+02
      vertex   2.500000e+01 7.600000e+01 0.000000e+00
    endloop
  endfacet
  facet normal 0.000000e+00 0.000000e+00 -1.000000e+00
    outer loop
      vertex   2.500000e+01 -2.200000e+01 -1.590000e+02
      vertex   -2.200000e+01 7.600000e+01 -1.590000e+02
      vertex   2.500000e+01 7.600000e+01 -1.590000e+02
    endloop
  endfacet
  facet normal 0.000000e+00 0.000000e+00 -1.000000e+00
    outer loop
      vertex   2.500000e+01 -2.200000e+01 -1.590000e+02
      vertex   -2.200000e+01 -2.200000e+01 -1.590000e+02
      vertex   -2.200000e+01 7.600000e+01 -1.590000e+02
    endloop
  endfacet
  facet normal 0.000000e+00 -0.000000e+00 -1.000000e+00
    outer loop
      vertex   -2.200000e+01 7.600000e+01 -1.590000e+02
      vertex   -2.200000e+01 -2.200000e+01 -1.590000e+02
      vertex   -2.300000e+01 -2.200000e+01 -1.590000e+02
    endloop
  endfacet
  facet normal -0.000000e+00 0.000000e+00 -1.000000e+00
    outer loop
      vertex   -2.200000e+01 7.600000e+01 -1.590000e+02
      vertex   -2.300000e+01 -2.200000e+01 -1.590000e+02
      vertex   -2.300000e+01 7.600000e+01 -1.590000e+02
    endloop
  endfacet
  facet normal 0.000000e+00 0.000000e+00 1.000000e+00
    outer loop
      vertex   2.500000e+01 7.600000e+01 0.000000e+00
      vertex   -2.300000e+01 7.600000e+01 0.000000e+00
      vertex   -2.200000e+01 -2.200000e+01 0.000000e+00
    endloop
  endfacet
  facet normal 0.000000e+00 0.000000e+00 1.000000e+00
    outer loop
      vertex   -2.200000e+01 -2.200000e+01 0.000000e+00
      vertex   -2.300000e+01 7.600000e+01 0.000000e+00
      vertex   -2.300000e+01 -2.200000e+01 0.000000e+00
    endloop
  endfacet
  facet normal 0.000000e+00 0.000000e+00 1.000000e+00
    outer loop
      vertex   2.500000e+01 7.600000e+01 0.000000e+00
      vertex   -2.200000e+01 -2.200000e+01 0.000000e+00
      vertex   2.500000e+01 -2.200075e+01 0.000000e+00
    endloop
  endfacet
endsolid
