solid ASCII
  facet normal 0.000000e+00 -1.000000e+00 0.000000e+00
    outer loop
      vertex   -2.200000e-02 -2.200000e-02 -1.590000e-01
      vertex   -2.200000e-02 -2.200000e-02 0.000000e+00
      vertex   -2.300000e-02 -2.200000e-02 -1.590000e-01
    endloop
  endfacet
  facet normal 0.000000e+00 -1.000000e+00 0.000000e+00
    outer loop
      vertex   -2.300000e-02 -2.200000e-02 -1.590000e-01
      vertex   -2.200000e-02 -2.200000e-02 0.000000e+00
      vertex   -2.300000e-02 -2.200000e-02 0.000000e+00
    endloop
  endfacet
  facet normal -1.000000e+00 0.000000e+00 0.000000e+00
    outer loop
      vertex   -2.300000e-02 -2.200000e-02 -1.590000e-01
      vertex   -2.300000e-02 -2.200000e-02 0.000000e+00
      vertex   -2.300000e-02 7.600001e-02 -1.590000e-01
    endloop
  endfacet
  facet normal -1.000000e+00 0.000000e+00 0.000000e+00
    outer loop
      vertex   -2.300000e-02 7.600001e-02 -1.590000e-01
      vertex   -2.300000e-02 -2.200000e-02 0.000000e+00
      vertex   -2.300000e-02 7.600001e-02 0.000000e+00
    endloop
  endfacet
  facet normal 0.000000e+00 1.000000e+00 0.000000e+00
    outer loop
      vertex   -2.200000e-02 7.600001e-02 -1.590000e-01
      vertex   2.500000e-02 7.600001e-02 0.000000e+00
      vertex   2.500000e-02 7.600001e-02 -1.590000e-01
    endloop
  endfacet
  facet normal 0.000000e+00 1.000000e+00 0.000000e+00
    outer loop
      vertex   2.500000e-02 7.600001e-02 0.000000e+00
      vertex   -2.200000e-02 7.600001e-02 -1.590000e-01
      vertex   -2.300000e-02 7.600001e-02 0.000000e+00
    endloop
  endfacet
  facet normal 0.000000e+00 1.000000e+00 0.000000e+00
    outer loop
      vertex   -2.300000e-02 7.600001e-02 0.000000e+00
      vertex   -2.200000e-02 7.600001e-02 -1.590000e-01
      vertex   -2.300000e-02 7.600001e-02 -1.590000e-01
    endloop
  endfacet
  facet normal 0.000000e+00 -1.000000e+00 -4.729830e-06
    outer loop
      vertex   2.500000e-02 -2.200075e-02 0.000000e+00
      vertex   -2.200000e-02 -2.200000e-02 -1.590000e-01
      vertex   2.500000e-02 -2.200000e-02 -1.590000e-01
    endloop
  endfacet
  facet normal -1.600091e-05 -1.000000e+00 0.000000e+00
    outer loop
      vertex   -2.200000e-02 -2.200000e-02 -1.590000e-01
      vertex   2.500000e-02 -2.200075e-02 0.000000e+00
      vertex   -2.200000e-02 -2.200000e-02 0.000000e+00
    endloop
  endfacet
  facet normal 1.000000e+00 0.000000e+00 -0.000000e+00
    outer loop
      vertex   2.500000e-02 7.600001e-02 -1.590000e-01
      vertex   2.500000e-02 7.600001e-02 0.000000e+00
      vertex   2.500000e-02 -2.200000e-02 -1.590000e-01
    endloop
  endfacet
  facet normal 1.000000e+00 -0.000000e+00 0.000000e+00
    outer loop
      vertex   2.500000e-02 -2.200075e-02 0.000000e+00
      vertex   2.500000e-02 -2.200000e-02 -1.590000e-01
      vertex   2.500000e-02 7.600001e-02 0.000000e+00
    endloop
  endfacet
  facet normal 0.000000e+00 0.000000e+00 -1.000000e+00
    outer loop
      vertex   2.500000e-02 -2.200000e-02 -1.590000e-01
      vertex   -2.200000e-02 7.600001e-02 -1.590000e-01
      vertex   2.500000e-02 7.600001e-02 -1.590000e-01
    endloop
  endfacet
  facet normal 0.000000e+00 0.000000e+00 -1.000000e+00
    outer loop
      vertex   2.500000e-02 -2.200000e-02 -1.590000e-01
      vertex   -2.200000e-02 -2.200000e-02 -1.590000e-01
      vertex   -2.200000e-02 7.600001e-02 -1.590000e-01
    endloop
  endfacet
  facet normal 0.000000e+00 -0.000000e+00 -1.000000e+00
    outer loop
      vertex   -2.200000e-02 7.600001e-02 -1.590000e-01
      vertex   -2.200000e-02 -2.200000e-02 -1.590000e-01
      vertex   -2.300000e-02 -2.200000e-02 -1.590000e-01
    endloop
  endfacet
  facet normal -0.000000e+00 0.000000e+00 -1.000000e+00
    outer loop
      vertex   -2.200000e-02 7.600001e-02 -1.590000e-01
      vertex   -2.300000e-02 -2.200000e-02 -1.590000e-01
      vertex   -2.300000e-02 7.600001e-02 -1.590000e-01
    endloop
  endfacet
  facet normal 0.000000e+00 0.000000e+00 1.000000e+00
    outer loop
      vertex   2.500000e-02 7.600001e-02 0.000000e+00
      vertex   -2.300000e-02 7.600001e-02 0.000000e+00
      vertex   -2.200000e-02 -2.200000e-02 0.000000e+00
    endloop
  endfacet
  facet normal 0.000000e+00 0.000000e+00 1.000000e+00
    outer loop
      vertex   -2.200000e-02 -2.200000e-02 0.000000e+00
      vertex   -2.300000e-02 7.600001e-02 0.000000e+00
      vertex   -2.300000e-02 -2.200000e-02 0.000000e+00
    endloop
  endfacet
  facet normal 0.000000e+00 0.000000e+00 1.000000e+00
    outer loop
      vertex   2.500000e-02 7.600001e-02 0.000000e+00
      vertex   -2.200000e-02 -2.200000e-02 0.000000e+00
      vertex   2.500000e-02 -2.200075e-02 0.000000e+00
    endloop
  endfacet
endsolid
