solid ASCII
  facet normal -1.000000e+00 -0.000000e+00 -0.000000e+00
    outer loop
      vertex   -2.500000e+01 8.300000e+01 0.000000e+00
      vertex   -2.500000e+01 8.300000e+01 -1.600000e+02
      vertex   -2.500000e+01 -2.500000e+01 0.000000e+00
    endloop
  endfacet
  facet normal -1.000000e+00 0.000000e+00 0.000000e+00
    outer loop
      vertex   -2.500000e+01 -2.500000e+01 0.000000e+00
      vertex   -2.500000e+01 8.300000e+01 -1.600000e+02
      vertex   -2.500000e+01 -2.500000e+01 -1.600000e+02
    endloop
  endfacet
  facet normal 0.000000e+00 1.000000e+00 -0.000000e+00
    outer loop
      vertex   2.600000e+01 8.300000e+01 -1.600000e+02
      vertex   -2.400000e+01 8.300000e+01 -1.600000e+02
      vertex   2.600000e+01 8.300000e+01 0.000000e+00
    endloop
  endfacet
  facet normal 0.000000e+00 1.000000e+00 0.000000e+00
    outer loop
      vertex   2.600000e+01 8.300000e+01 0.000000e+00
      vertex   -2.400000e+01 8.300000e+01 -1.600000e+02
      vertex   -2.400000e+01 8.300000e+01 0.000000e+00
    endloop
  endfacet
  facet normal 0.000000e+00 1.000000e+00 0.000000e+00
    outer loop
      vertex   -2.400000e+01 8.300000e+01 0.000000e+00
      vertex   -2.400000e+01 8.300000e+01 -1.600000e+02
      vertex   -2.500000e+01 8.300000e+01 0.000000e+00
    endloop
  endfacet
  facet normal 0.000000e+00 1.000000e+00 0.000000e+00
    outer loop
      vertex   -2.500000e+01 8.300000e+01 0.000000e+00
      vertex   -2.400000e+01 8.300000e+01 -1.600000e+02
      vertex   -2.500000e+01 8.300000e+01 -1.600000e+02
    endloop
  endfacet
  facet normal 0.000000e+00 -1.000000e+00 0.000000e+00
    outer loop
      vertex   2.600000e+01 -2.500000e+01 -1.600000e+02
      vertex   -2.400000e+01 -2.500000e+01 0.000000e+00
      vertex   -2.500000e+01 -2.500000e+01 -1.600000e+02
    endloop
  endfacet
  facet normal 0.000000e+00 -1.000000e+00 0.000000e+00
    outer loop
      vertex   -2.500000e+01 -2.500000e+01 -1.600000e+02
      vertex   -2.400000e+01 -2.500000e+01 0.000000e+00
      vertex   -2.500000e+01 -2.500000e+01 0.000000e+00
    endloop
  endfacet
  facet normal -1.502037e-05 -1.000000e+00 -4.693866e-06
    outer loop
      vertex   2.600000e+01 -2.500075e+01 0.000000e+00
      vertex   -2.400000e+01 -2.500000e+01 0.000000e+00
      vertex   2.600000e+01 -2.500000e+01 -1.600000e+02
    endloop
  endfacet
  facet normal 1.000000e+00 0.000000e+00 -0.000000e+00
    outer loop
      vertex   2.600000e+01 8.300000e+01 -1.600000e+02
      vertex   2.600000e+01 8.300000e+01 0.000000e+00
      vertex   2.600000e+01 -2.500000e+01 -1.600000e+02
    endloop
  endfacet
  facet normal 1.000000e+00 -0.000000e+00 0.000000e+00
    outer loop
      vertex   2.600000e+01 -2.500075e+01 0.000000e+00
      vertex   2.600000e+01 -2.500000e+01 -1.600000e+02
      vertex   2.600000e+01 8.300000e+01 0.000000e+00
    endloop
  endfacet
  facet normal 0.000000e+00 0.000000e+00 -1.000000e+00
    outer loop
      vertex   2.600000e+01 -2.500000e+01 -1.600000e+02
      vertex   -2.400000e+01 8.300000e+01 -1.600000e+02
      vertex   2.600000e+01 8.300000e+01 -1.600000e+02
    endloop
  endfacet
  facet normal 0.000000e+00 0.000000e+00 -1.000000e+00
    outer loop
      vertex   2.600000e+01 -2.500000e+01 -1.600000e+02
      vertex   -2.500000e+01 -2.500000e+01 -1.600000e+02
      vertex   -2.400000e+01 8.300000e+01 -1.600000e+02
    endloop
  endfacet
  facet normal -0.000000e+00 0.000000e+00 -1.000000e+00
    outer loop
      vertex   -2.400000e+01 8.300000e+01 -1.600000e+02
      vertex   -2.500000e+01 -2.500000e+01 -1.600000e+02
      vertex   -2.500000e+01 8.300000e+01 -1.600000e+02
    endloop
  endfacet
  facet normal 0.000000e+00 0.000000e+00 1.000000e+00
    outer loop
      vertex   2.600000e+01 8.300000e+01 0.000000e+00
      vertex   -2.400000e+01 8.300000e+01 0.000000e+00
      vertex   2.600000e+01 -2.500075e+01 0.000000e+00
    endloop
  endfacet
  facet normal 0.000000e+00 0.000000e+00 1.000000e+00
    outer loop
      vertex   2.600000e+01 -2.500075e+01 0.000000e+00
      vertex   -2.400000e+01 8.300000e+01 0.000000e+00
      vertex   -2.400000e+01 -2.500000e+01 0.000000e+00
    endloop
  endfacet
  facet normal 0.000000e+00 -0.000000e+00 1.000000e+00
    outer loop
      vertex   -2.400000e+01 -2.500000e+01 0.000000e+00
      vertex   -2.400000e+01 8.300000e+01 0.000000e+00
      vertex   -2.500000e+01 8.300000e+01 0.000000e+00
    endloop
  endfacet
  facet normal 0.000000e+00 0.000000e+00 1.000000e+00
    outer loop
      vertex   -2.400000e+01 -2.500000e+01 0.000000e+00
      vertex   -2.500000e+01 8.300000e+01 0.000000e+00
      vertex   -2.500000e+01 -2.500000e+01 0.000000e+00
    endloop
  endfacet
endsolid
