solid ASCII
  facet normal -1.000000e+00 -0.000000e+00 -0.000000e+00
    outer loop
      vertex   -2.500000e-02 8.300000e-02 0.000000e+00
      vertex   -2.500000e-02 8.300000e-02 -1.600000e-01
      vertex   -2.500000e-02 -2.500000e-02 0.000000e+00
    endloop
  endfacet
  facet normal -1.000000e+00 0.000000e+00 0.000000e+00
    outer loop
      vertex   -2.500000e-02 -2.500000e-02 0.000000e+00
      vertex   -2.500000e-02 8.300000e-02 -1.600000e-01
      vertex   -2.500000e-02 -2.500000e-02 -1.600000e-01
    endloop
  endfacet
  facet normal 0.000000e+00 1.000000e+00 -0.000000e+00
    outer loop
      vertex   2.600000e-02 8.300000e-02 -1.600000e-01
      vertex   -2.400000e-02 8.300000e-02 -1.600000e-01
      vertex   2.600000e-02 8.300000e-02 0.000000e+00
    endloop
  endfacet
  facet normal 0.000000e+00 1.000000e+00 0.000000e+00
    outer loop
      vertex   2.600000e-02 8.300000e-02 0.000000e+00
      vertex   -2.400000e-02 8.300000e-02 -1.600000e-01
      vertex   -2.400000e-02 8.300000e-02 0.000000e+00
    endloop
  endfacet
  facet normal 0.000000e+00 1.000000e+00 0.000000e+00
    outer loop
      vertex   -2.400000e-02 8.300000e-02 0.000000e+00
      vertex   -2.400000e-02 8.300000e-02 -1.600000e-01
      vertex   -2.500000e-02 8.300000e-02 0.000000e+00
    endloop
  endfacet
  facet normal 0.000000e+00 1.000000e+00 0.000000e+00
    outer loop
      vertex   -2.500000e-02 8.300000e-02 0.000000e+00
      vertex   -2.400000e-02 8.300000e-02 -1.600000e-01
      vertex   -2.500000e-02 8.300000e-02 -1.600000e-01
    endloop
  endfacet
  facet normal 0.000000e+00 -1.000000e+00 0.000000e+00
    outer loop
      vertex   2.600000e-02 -2.500000e-02 -1.600000e-01
      vertex   -2.400000e-02 -2.500000e-02 0.000000e+00
      vertex   -2.500000e-02 -2.500000e-02 -1.600000e-01
    endloop
  endfacet
  facet normal 0.000000e+00 -1.000000e+00 0.000000e+00
    outer loop
      vertex   -2.500000e-02 -2.500000e-02 -1.600000e-01
      vertex   -2.400000e-02 -2.500000e-02 0.000000e+00
      vertex   -2.500000e-02 -2.500000e-02 0.000000e+00
    endloop
  endfacet
  facet normal -1.504086e-05 -1.000000e+00 -4.700268e-06
    outer loop
      vertex   2.600000e-02 -2.500075e-02 0.000000e+00
      vertex   -2.400000e-02 -2.500000e-02 0.000000e+00
      vertex   2.600000e-02 -2.500000e-02 -1.600000e-01
    endloop
  endfacet
  facet normal 1.000000e+00 0.000000e+00 -0.000000e+00
    outer loop
      vertex   2.600000e-02 8.300000e-02 -1.600000e-01
      vertex   2.600000e-02 8.300000e-02 0.000000e+00
      vertex   2.600000e-02 -2.500000e-02 -1.600000e-01
    endloop
  endfacet
  facet normal 1.000000e+00 -0.000000e+00 0.000000e+00
    outer loop
      vertex   2.600000e-02 -2.500075e-02 0.000000e+00
      vertex   2.600000e-02 -2.500000e-02 -1.600000e-01
      vertex   2.600000e-02 8.300000e-02 0.000000e+00
    endloop
  endfacet
  facet normal 0.000000e+00 0.000000e+00 -1.000000e+00
    outer loop
      vertex   2.600000e-02 -2.500000e-02 -1.600000e-01
      vertex   -2.400000e-02 8.300000e-02 -1.600000e-01
      vertex   2.600000e-02 8.300000e-02 -1.600000e-01
    endloop
  endfacet
  facet normal 0.000000e+00 0.000000e+00 -1.000000e+00
    outer loop
      vertex   2.600000e-02 -2.500000e-02 -1.600000e-01
      vertex   -2.500000e-02 -2.500000e-02 -1.600000e-01
      vertex   -2.400000e-02 8.300000e-02 -1.600000e-01
    endloop
  endfacet
  facet normal -0.000000e+00 0.000000e+00 -1.000000e+00
    outer loop
      vertex   -2.400000e-02 8.300000e-02 -1.600000e-01
      vertex   -2.500000e-02 -2.500000e-02 -1.600000e-01
      vertex   -2.500000e-02 8.300000e-02 -1.600000e-01
    endloop
  endfacet
  facet normal 0.000000e+00 0.000000e+00 1.000000e+00
    outer loop
      vertex   2.600000e-02 8.300000e-02 0.000000e+00
      vertex   -2.400000e-02 8.300000e-02 0.000000e+00
      vertex   2.600000e-02 -2.500075e-02 0.000000e+00
    endloop
  endfacet
  facet normal 0.000000e+00 0.000000e+00 1.000000e+00
    outer loop
      vertex   2.600000e-02 -2.500075e-02 0.000000e+00
      vertex   -2.400000e-02 8.300000e-02 0.000000e+00
      vertex   -2.400000e-02 -2.500000e-02 0.000000e+00
    endloop
  endfacet
  facet normal 0.000000e+00 -0.000000e+00 1.000000e+00
    outer loop
      vertex   -2.400000e-02 -2.500000e-02 0.000000e+00
      vertex   -2.400000e-02 8.300000e-02 0.000000e+00
      vertex   -2.500000e-02 8.300000e-02 0.000000e+00
    endloop
  endfacet
  facet normal 0.000000e+00 0.000000e+00 1.000000e+00
    outer loop
      vertex   -2.400000e-02 -2.500000e-02 0.000000e+00
      vertex   -2.500000e-02 8.300000e-02 0.000000e+00
      vertex   -2.500000e-02 -2.500000e-02 0.000000e+00
    endloop
  endfacet
endsolid
