solid ASCII
  facet normal 0.000000e+00 1.000000e+00 0.000000e+00
    outer loop
      vertex   -2.200000e-02 8.200001e-02 0.000000e+00
      vertex   2.300001e-02 8.200001e-02 -1.520000e-01
      vertex   -2.200000e-02 8.200001e-02 -1.520000e-01
    endloop
  endfacet
  facet normal 0.000000e+00 1.000000e+00 -0.000000e+00
    outer loop
      vertex   2.300001e-02 8.200001e-02 -1.520000e-01
      vertex   -2.200000e-02 8.200001e-02 0.000000e+00
      vertex   2.300001e-02 8.200001e-02 0.000000e+00
    endloop
  endfacet
  facet normal 0.000000e+00 -1.000000e+00 0.000000e+00
    outer loop
      vertex   -2.200000e-02 -2.200000e-02 -1.520000e-01
      vertex   2.300000e-02 -2.200000e-02 -1.520000e-01
      vertex   -2.200000e-02 -2.200000e-02 0.000000e+00
    endloop
  endfacet
  facet normal -1.671207e-05 -1.000000e+00 -4.947651e-06
    outer loop
      vertex   2.300000e-02 -2.200075e-02 0.000000e+00
      vertex   -2.200000e-02 -2.200000e-02 0.000000e+00
      vertex   2.300000e-02 -2.200000e-02 -1.520000e-01
    endloop
  endfacet
  facet normal 1.000000e+00 -4.477512e-08 0.000000e+00
    outer loop
      vertex   2.300001e-02 8.200001e-02 -1.520000e-01
      vertex   2.300001e-02 8.200001e-02 0.000000e+00
      vertex   2.300000e-02 -2.200000e-02 -1.520000e-01
    endloop
  endfacet
  facet normal 1.000000e+00 -4.477480e-08 -2.215301e-13
    outer loop
      vertex   2.300000e-02 -2.200075e-02 0.000000e+00
      vertex   2.300000e-02 -2.200000e-02 -1.520000e-01
      vertex   2.300001e-02 8.200001e-02 0.000000e+00
    endloop
  endfacet
  facet normal -1.000000e+00 0.000000e+00 0.000000e+00
    outer loop
      vertex   -2.200000e-02 -2.200000e-02 -1.520000e-01
      vertex   -2.200000e-02 8.200001e-02 0.000000e+00
      vertex   -2.200000e-02 8.200001e-02 -1.520000e-01
    endloop
  endfacet
  facet normal -1.000000e+00 -0.000000e+00 0.000000e+00
    outer loop
      vertex   -2.200000e-02 8.200001e-02 0.000000e+00
      vertex   -2.200000e-02 -2.200000e-02 -1.520000e-01
      vertex   -2.200000e-02 -2.200000e-02 0.000000e+00
    endloop
  endfacet
  facet normal 0.000000e+00 0.000000e+00 -1.000000e+00
    outer loop
      vertex   2.300000e-02 -2.200000e-02 -1.520000e-01
      vertex   -2.200000e-02 8.200001e-02 -1.520000e-01
      vertex   2.300001e-02 8.200001e-02 -1.520000e-01
    endloop
  endfacet
  facet normal 0.000000e+00 0.000000e+00 -1.000000e+00
    outer loop
      vertex   -2.200000e-02 8.200001e-02 -1.520000e-01
      vertex   2.300000e-02 -2.200000e-02 -1.520000e-01
      vertex   -2.200000e-02 -2.200000e-02 -1.520000e-01
    endloop
  endfacet
  facet normal 0.000000e+00 0.000000e+00 1.000000e+00
    outer loop
      vertex   2.300001e-02 8.200001e-02 0.000000e+00
      vertex   -2.200000e-02 8.200001e-02 0.000000e+00
      vertex   2.300000e-02 -2.200075e-02 0.000000e+00
    endloop
  endfacet
  facet normal -0.000000e+00 0.000000e+00 1.000000e+00
    outer loop
      vertex   -2.200000e-02 -2.200000e-02 0.000000e+00
      vertex   2.300000e-02 -2.200075e-02 0.000000e+00
      vertex   -2.200000e-02 8.200001e-02 0.000000e+00
    endloop
  endfacet
endsolid
