solid ASCII
  facet normal -1.809416e-33 -1.224647e-16 1.000000e+00
    outer loop
      vertex   -2.800000e+01 -2.700000e+01 0.000000e+00
      vertex   -1.300000e+01 -2.700000e+01 4.622232e-31
      vertex   -2.800075e+01 1.075000e+01 4.623042e-15
    endloop
  endfacet
  facet normal -1.112159e-32 -1.224647e-16 1.000000e+00
    outer loop
      vertex   -1.300000e+01 1.074925e+01 4.622950e-15
      vertex   -2.800075e+01 1.075000e+01 4.623042e-15
      vertex   -1.300000e+01 -2.700000e+01 4.622232e-31
    endloop
  endfacet
  facet normal -1.112137e-32 -1.224647e-16 1.000000e+00
    outer loop
      vertex   -2.800075e+01 1.075000e+01 4.623042e-15
      vertex   -1.300000e+01 1.074925e+01 4.622950e-15
      vertex   -2.800000e+01 4.850000e+01 9.246083e-15
    endloop
  endfacet
  facet normal 6.419085e-32 -1.224647e-16 1.000000e+00
    outer loop
      vertex   -1.300000e+01 4.849925e+01 9.245992e-15
      vertex   -2.800000e+01 4.850000e+01 9.246083e-15
      vertex   -1.300000e+01 1.074925e+01 4.622950e-15
    endloop
  endfacet
  facet normal 6.419018e-32 -1.224647e-16 1.000000e+00
    outer loop
      vertex   -2.800000e+01 4.850000e+01 9.246083e-15
      vertex   -1.300000e+01 4.849925e+01 9.245992e-15
      vertex   -2.800000e+01 8.625000e+01 1.386913e-14
    endloop
  endfacet
  facet normal 6.419018e-32 -1.224647e-16 1.000000e+00
    outer loop
      vertex   -1.300000e+01 8.624925e+01 1.386903e-14
      vertex   -2.800000e+01 8.625000e+01 1.386913e-14
      vertex   -1.300000e+01 4.849925e+01 9.245992e-15
    endloop
  endfacet
  facet normal 6.419154e-32 -1.224647e-16 1.000000e+00
    outer loop
      vertex   -2.800000e+01 8.625000e+01 1.386913e-14
      vertex   -1.300000e+01 8.624925e+01 1.386903e-14
      vertex   -2.800000e+01 1.240000e+02 1.849217e-14
    endloop
  endfacet
  facet normal -4.099195e-32 -1.224647e-16 1.000000e+00
    outer loop
      vertex   -1.300000e+01 1.239993e+02 1.849208e-14
      vertex   -2.800000e+01 1.240000e+02 1.849217e-14
      vertex   -1.300000e+01 8.624925e+01 1.386903e-14
    endloop
  endfacet
  facet normal -9.696336e-33 -1.224647e-16 1.000000e+00
    outer loop
      vertex   -1.300000e+01 -2.700000e+01 4.622232e-31
      vertex   2.000000e+00 -2.700075e+01 -9.184851e-20
      vertex   -1.300000e+01 1.074925e+01 4.622950e-15
    endloop
  endfacet
  facet normal 3.104418e-32 -1.224647e-16 1.000000e+00
    outer loop
      vertex   2.000000e+00 1.075000e+01 4.623042e-15
      vertex   -1.300000e+01 1.074925e+01 4.622950e-15
      vertex   2.000000e+00 -2.700075e+01 -9.184851e-20
    endloop
  endfacet
  facet normal 3.104344e-32 -1.224647e-16 1.000000e+00
    outer loop
      vertex   -1.300000e+01 1.074925e+01 4.622950e-15
      vertex   2.000000e+00 1.075000e+01 4.623042e-15
      vertex   -1.300000e+01 4.849925e+01 9.245992e-15
    endloop
  endfacet
  facet normal 5.182954e-32 -1.224647e-16 1.000000e+00
    outer loop
      vertex   2.000000e+00 4.850000e+01 9.246083e-15
      vertex   -1.300000e+01 4.849925e+01 9.245992e-15
      vertex   2.000000e+00 1.075000e+01 4.623042e-15
    endloop
  endfacet
  facet normal 5.183158e-32 -1.224647e-16 1.000000e+00
    outer loop
      vertex   -1.300000e+01 4.849925e+01 9.245992e-15
      vertex   2.000000e+00 4.850000e+01 9.246083e-15
      vertex   -1.300000e+01 8.624925e+01 1.386903e-14
    endloop
  endfacet
  facet normal -6.418814e-32 -1.224647e-16 1.000000e+00
    outer loop
      vertex   2.000000e+00 8.625000e+01 1.386913e-14
      vertex   -1.300000e+01 8.624925e+01 1.386903e-14
      vertex   2.000000e+00 4.850000e+01 9.246083e-15
    endloop
  endfacet
  facet normal -6.418950e-32 -1.224647e-16 1.000000e+00
    outer loop
      vertex   -1.300000e+01 8.624925e+01 1.386903e-14
      vertex   2.000000e+00 8.625000e+01 1.386913e-14
      vertex   -1.300000e+01 1.239993e+02 1.849208e-14
    endloop
  endfacet
  facet normal 4.098991e-32 -1.224647e-16 1.000000e+00
    outer loop
      vertex   2.000000e+00 1.240000e+02 1.849217e-14
      vertex   -1.300000e+01 1.239993e+02 1.849208e-14
      vertex   2.000000e+00 8.625000e+01 1.386913e-14
    endloop
  endfacet
  facet normal -2.292908e-32 -1.224647e-16 1.000000e+00
    outer loop
      vertex   2.000000e+00 -2.700075e+01 -9.184851e-20
      vertex   1.700000e+01 -2.700000e+01 1.386670e-30
      vertex   2.000000e+00 1.075000e+01 4.623042e-15
    endloop
  endfacet
  facet normal -4.012680e-32 -1.224647e-16 1.000000e+00
    outer loop
      vertex   1.700000e+01 1.074925e+01 4.622950e-15
      vertex   2.000000e+00 1.075000e+01 4.623042e-15
      vertex   1.700000e+01 -2.700000e+01 1.386670e-30
    endloop
  endfacet
  facet normal -4.012601e-32 -1.224647e-16 1.000000e+00
    outer loop
      vertex   2.000000e+00 1.075000e+01 4.623042e-15
      vertex   1.700000e+01 1.074925e+01 4.622950e-15
      vertex   2.000000e+00 4.850000e+01 9.246083e-15
    endloop
  endfacet
  facet normal -1.461727e-31 -1.224647e-16 1.000000e+00
    outer loop
      vertex   1.700000e+01 4.849925e+01 9.245992e-15
      vertex   2.000000e+00 4.850000e+01 9.246083e-15
      vertex   1.700000e+01 1.074925e+01 4.622950e-15
    endloop
  endfacet
  facet normal -1.461748e-31 -1.224647e-16 1.000000e+00
    outer loop
      vertex   2.000000e+00 4.850000e+01 9.246083e-15
      vertex   1.700000e+01 4.849925e+01 9.245992e-15
      vertex   2.000000e+00 8.625000e+01 1.386913e-14
    endloop
  endfacet
  facet normal -1.461748e-31 -1.224647e-16 1.000000e+00
    outer loop
      vertex   1.700000e+01 8.624925e+01 1.386903e-14
      vertex   2.000000e+00 8.625000e+01 1.386913e-14
      vertex   1.700000e+01 4.849925e+01 9.245992e-15
    endloop
  endfacet
  facet normal -1.461714e-31 -1.224647e-16 1.000000e+00
    outer loop
      vertex   2.000000e+00 8.625000e+01 1.386913e-14
      vertex   1.700000e+01 8.624925e+01 1.386903e-14
      vertex   2.000000e+00 1.240000e+02 1.849217e-14
    endloop
  endfacet
  facet normal -4.098787e-32 -1.224647e-16 1.000000e+00
    outer loop
      vertex   1.700000e+01 1.239993e+02 1.849208e-14
      vertex   2.000000e+00 1.240000e+02 1.849217e-14
      vertex   1.700000e+01 8.624925e+01 1.386903e-14
    endloop
  endfacet
  facet normal 1.930900e-32 -1.224647e-16 1.000000e+00
    outer loop
      vertex   1.700000e+01 -2.700000e+01 1.386670e-30
      vertex   3.200000e+01 -2.700075e+01 -9.184851e-20
      vertex   1.700000e+01 1.074925e+01 4.622950e-15
    endloop
  endfacet
  facet normal -2.154550e-32 -1.224647e-16 1.000000e+00
    outer loop
      vertex   3.200000e+01 1.075000e+01 4.623042e-15
      vertex   1.700000e+01 1.074925e+01 4.622950e-15
      vertex   3.200000e+01 -2.700075e+01 -9.184851e-20
    endloop
  endfacet
  facet normal -2.154592e-32 -1.224647e-16 1.000000e+00
    outer loop
      vertex   1.700000e+01 1.074925e+01 4.622950e-15
      vertex   3.200000e+01 1.075000e+01 4.623042e-15
      vertex   1.700000e+01 4.849925e+01 9.245992e-15
    endloop
  endfacet
  facet normal 9.900011e-32 -1.224647e-16 1.000000e+00
    outer loop
      vertex   3.200000e+01 4.850000e+01 9.246083e-15
      vertex   1.700000e+01 4.849925e+01 9.245992e-15
      vertex   3.200000e+01 1.075000e+01 4.623042e-15
    endloop
  endfacet
  facet normal 9.900419e-32 -1.224647e-16 1.000000e+00
    outer loop
      vertex   1.700000e+01 4.849925e+01 9.245992e-15
      vertex   3.200000e+01 4.850000e+01 9.246083e-15
      vertex   1.700000e+01 8.624925e+01 1.386903e-14
    endloop
  endfacet
  facet normal 4.099467e-32 -1.224647e-16 1.000000e+00
    outer loop
      vertex   3.200000e+01 8.625000e+01 1.386913e-14
      vertex   1.700000e+01 8.624925e+01 1.386903e-14
      vertex   3.200000e+01 4.850000e+01 9.246083e-15
    endloop
  endfacet
  facet normal 4.098787e-32 -1.224647e-16 1.000000e+00
    outer loop
      vertex   1.700000e+01 8.624925e+01 1.386903e-14
      vertex   3.200000e+01 8.625000e+01 1.386913e-14
      vertex   1.700000e+01 1.239993e+02 1.849208e-14
    endloop
  endfacet
  facet normal 4.098787e-32 -1.224647e-16 1.000000e+00
    outer loop
      vertex   3.200000e+01 1.240000e+02 1.849217e-14
      vertex   1.700000e+01 1.239993e+02 1.849208e-14
      vertex   3.200000e+01 8.625000e+01 1.386913e-14
    endloop
  endfacet
  facet normal 0.000000e+00 0.000000e+00 -1.000000e+00
    outer loop
      vertex   -2.800000e+01 1.075000e+01 -1.890000e+02
      vertex   -1.300000e+01 -2.700000e+01 -1.890000e+02
      vertex   -2.800000e+01 -2.700000e+01 -1.890000e+02
    endloop
  endfacet
  facet normal 0.000000e+00 0.000000e+00 -1.000000e+00
    outer loop
      vertex   -1.300000e+01 -2.700000e+01 -1.890000e+02
      vertex   -2.800000e+01 1.075000e+01 -1.890000e+02
      vertex   -1.300000e+01 1.075000e+01 -1.890000e+02
    endloop
  endfacet
  facet normal 0.000000e+00 0.000000e+00 -1.000000e+00
    outer loop
      vertex   -2.800000e+01 4.850000e+01 -1.890000e+02
      vertex   -1.300000e+01 1.075000e+01 -1.890000e+02
      vertex   -2.800000e+01 1.075000e+01 -1.890000e+02
    endloop
  endfacet
  facet normal 0.000000e+00 0.000000e+00 -1.000000e+00
    outer loop
      vertex   -1.300000e+01 1.075000e+01 -1.890000e+02
      vertex   -2.800000e+01 4.850000e+01 -1.890000e+02
      vertex   -1.300000e+01 4.850000e+01 -1.890000e+02
    endloop
  endfacet
  facet normal 0.000000e+00 0.000000e+00 -1.000000e+00
    outer loop
      vertex   -2.800000e+01 8.625000e+01 -1.890000e+02
      vertex   -1.300000e+01 4.850000e+01 -1.890000e+02
      vertex   -2.800000e+01 4.850000e+01 -1.890000e+02
    endloop
  endfacet
  facet normal 0.000000e+00 0.000000e+00 -1.000000e+00
    outer loop
      vertex   -1.300000e+01 4.850000e+01 -1.890000e+02
      vertex   -2.800000e+01 8.625000e+01 -1.890000e+02
      vertex   -1.300000e+01 8.625000e+01 -1.890000e+02
    endloop
  endfacet
  facet normal 0.000000e+00 7.528930e-16 -1.000000e+00
    outer loop
      vertex   -2.800000e+01 1.240000e+02 -1.890000e+02
      vertex   -1.300000e+01 8.625000e+01 -1.890000e+02
      vertex   -2.800000e+01 8.625000e+01 -1.890000e+02
    endloop
  endfacet
  facet normal 0.000000e+00 7.528930e-16 -1.000000e+00
    outer loop
      vertex   -1.300000e+01 8.625000e+01 -1.890000e+02
      vertex   -2.800000e+01 1.240000e+02 -1.890000e+02
      vertex   -1.300000e+01 1.240000e+02 -1.890000e+02
    endloop
  endfacet
  facet normal 0.000000e+00 0.000000e+00 -1.000000e+00
    outer loop
      vertex   -1.300000e+01 1.075000e+01 -1.890000e+02
      vertex   2.000000e+00 -2.700000e+01 -1.890000e+02
      vertex   -1.300000e+01 -2.700000e+01 -1.890000e+02
    endloop
  endfacet
  facet normal 0.000000e+00 0.000000e+00 -1.000000e+00
    outer loop
      vertex   2.000000e+00 -2.700000e+01 -1.890000e+02
      vertex   -1.300000e+01 1.075000e+01 -1.890000e+02
      vertex   2.000000e+00 1.075000e+01 -1.890000e+02
    endloop
  endfacet
  facet normal 0.000000e+00 0.000000e+00 -1.000000e+00
    outer loop
      vertex   -1.300000e+01 4.850000e+01 -1.890000e+02
      vertex   2.000000e+00 1.075000e+01 -1.890000e+02
      vertex   -1.300000e+01 1.075000e+01 -1.890000e+02
    endloop
  endfacet
  facet normal 0.000000e+00 0.000000e+00 -1.000000e+00
    outer loop
      vertex   2.000000e+00 1.075000e+01 -1.890000e+02
      vertex   -1.300000e+01 4.850000e+01 -1.890000e+02
      vertex   2.000000e+00 4.850000e+01 -1.890000e+02
    endloop
  endfacet
  facet normal 0.000000e+00 0.000000e+00 -1.000000e+00
    outer loop
      vertex   -1.300000e+01 8.625000e+01 -1.890000e+02
      vertex   2.000000e+00 4.850000e+01 -1.890000e+02
      vertex   -1.300000e+01 4.850000e+01 -1.890000e+02
    endloop
  endfacet
  facet normal 0.000000e+00 0.000000e+00 -1.000000e+00
    outer loop
      vertex   2.000000e+00 4.850000e+01 -1.890000e+02
      vertex   -1.300000e+01 8.625000e+01 -1.890000e+02
      vertex   2.000000e+00 8.625000e+01 -1.890000e+02
    endloop
  endfacet
  facet normal 0.000000e+00 7.528930e-16 -1.000000e+00
    outer loop
      vertex   -1.300000e+01 1.240000e+02 -1.890000e+02
      vertex   2.000000e+00 8.625000e+01 -1.890000e+02
      vertex   -1.300000e+01 8.625000e+01 -1.890000e+02
    endloop
  endfacet
  facet normal 0.000000e+00 7.528930e-16 -1.000000e+00
    outer loop
      vertex   2.000000e+00 8.625000e+01 -1.890000e+02
      vertex   -1.300000e+01 1.240000e+02 -1.890000e+02
      vertex   2.000000e+00 1.240000e+02 -1.890000e+02
    endloop
  endfacet
  facet normal 0.000000e+00 0.000000e+00 -1.000000e+00
    outer loop
      vertex   2.000000e+00 1.075000e+01 -1.890000e+02
      vertex   1.700000e+01 -2.700000e+01 -1.890000e+02
      vertex   2.000000e+00 -2.700000e+01 -1.890000e+02
    endloop
  endfacet
  facet normal 0.000000e+00 0.000000e+00 -1.000000e+00
    outer loop
      vertex   1.700000e+01 -2.700000e+01 -1.890000e+02
      vertex   2.000000e+00 1.075000e+01 -1.890000e+02
      vertex   1.700000e+01 1.075000e+01 -1.890000e+02
    endloop
  endfacet
  facet normal 0.000000e+00 0.000000e+00 -1.000000e+00
    outer loop
      vertex   2.000000e+00 4.850000e+01 -1.890000e+02
      vertex   1.700000e+01 1.075000e+01 -1.890000e+02
      vertex   2.000000e+00 1.075000e+01 -1.890000e+02
    endloop
  endfacet
  facet normal 0.000000e+00 0.000000e+00 -1.000000e+00
    outer loop
      vertex   1.700000e+01 1.075000e+01 -1.890000e+02
      vertex   2.000000e+00 4.850000e+01 -1.890000e+02
      vertex   1.700000e+01 4.850000e+01 -1.890000e+02
    endloop
  endfacet
  facet normal 0.000000e+00 0.000000e+00 -1.000000e+00
    outer loop
      vertex   2.000000e+00 8.625000e+01 -1.890000e+02
      vertex   1.700000e+01 4.850000e+01 -1.890000e+02
      vertex   2.000000e+00 4.850000e+01 -1.890000e+02
    endloop
  endfacet
  facet normal 0.000000e+00 0.000000e+00 -1.000000e+00
    outer loop
      vertex   1.700000e+01 4.850000e+01 -1.890000e+02
      vertex   2.000000e+00 8.625000e+01 -1.890000e+02
      vertex   1.700000e+01 8.625000e+01 -1.890000e+02
    endloop
  endfacet
  facet normal -2.139850e-30 7.528930e-16 -1.000000e+00
    outer loop
      vertex   2.000000e+00 1.240000e+02 -1.890000e+02
      vertex   1.700000e+01 8.625000e+01 -1.890000e+02
      vertex   2.000000e+00 8.625000e+01 -1.890000e+02
    endloop
  endfacet
  facet normal -2.139850e-30 7.528930e-16 -1.000000e+00
    outer loop
      vertex   1.700000e+01 8.625000e+01 -1.890000e+02
      vertex   2.000000e+00 1.240000e+02 -1.890000e+02
      vertex   1.700000e+01 1.240000e+02 -1.890000e+02
    endloop
  endfacet
  facet normal 0.000000e+00 0.000000e+00 -1.000000e+00
    outer loop
      vertex   1.700000e+01 1.075000e+01 -1.890000e+02
      vertex   3.200000e+01 -2.700000e+01 -1.890000e+02
      vertex   1.700000e+01 -2.700000e+01 -1.890000e+02
    endloop
  endfacet
  facet normal 0.000000e+00 0.000000e+00 -1.000000e+00
    outer loop
      vertex   3.200000e+01 -2.700000e+01 -1.890000e+02
      vertex   1.700000e+01 1.075000e+01 -1.890000e+02
      vertex   3.200000e+01 1.075000e+01 -1.890000e+02
    endloop
  endfacet
  facet normal 0.000000e+00 0.000000e+00 -1.000000e+00
    outer loop
      vertex   1.700000e+01 4.850000e+01 -1.890000e+02
      vertex   3.200000e+01 1.075000e+01 -1.890000e+02
      vertex   1.700000e+01 1.075000e+01 -1.890000e+02
    endloop
  endfacet
  facet normal 0.000000e+00 0.000000e+00 -1.000000e+00
    outer loop
      vertex   3.200000e+01 1.075000e+01 -1.890000e+02
      vertex   1.700000e+01 4.850000e+01 -1.890000e+02
      vertex   3.200000e+01 4.850000e+01 -1.890000e+02
    endloop
  endfacet
  facet normal 0.000000e+00 0.000000e+00 -1.000000e+00
    outer loop
      vertex   1.700000e+01 8.625000e+01 -1.890000e+02
      vertex   3.200000e+01 4.850000e+01 -1.890000e+02
      vertex   1.700000e+01 4.850000e+01 -1.890000e+02
    endloop
  endfacet
  facet normal 0.000000e+00 0.000000e+00 -1.000000e+00
    outer loop
      vertex   3.200000e+01 4.850000e+01 -1.890000e+02
      vertex   1.700000e+01 8.625000e+01 -1.890000e+02
      vertex   3.200000e+01 8.625000e+01 -1.890000e+02
    endloop
  endfacet
  facet normal 0.000000e+00 7.528930e-16 -1.000000e+00
    outer loop
      vertex   1.700000e+01 1.240000e+02 -1.890000e+02
      vertex   3.200000e+01 8.625000e+01 -1.890000e+02
      vertex   1.700000e+01 8.625000e+01 -1.890000e+02
    endloop
  endfacet
  facet normal 0.000000e+00 7.528930e-16 -1.000000e+00
    outer loop
      vertex   3.200000e+01 8.625000e+01 -1.890000e+02
      vertex   1.700000e+01 1.240000e+02 -1.890000e+02
      vertex   3.200000e+01 1.240000e+02 -1.890000e+02
    endloop
  endfacet
  facet normal -1.000000e+00 -1.986755e-05 -3.890196e-21
    outer loop
      vertex   -2.800075e+01 1.075000e+01 4.623042e-15
      vertex   -2.800000e+01 -2.700000e+01 -4.725000e+01
      vertex   -2.800000e+01 -2.700000e+01 0.000000e+00
    endloop
  endfacet
  facet normal -1.000000e+00 -1.882203e-16 -1.587302e-05
    outer loop
      vertex   -2.800000e+01 -2.700000e+01 -4.725000e+01
      vertex   -2.800075e+01 1.075000e+01 4.623042e-15
      vertex   -2.800000e+01 1.075000e+01 -4.725000e+01
    endloop
  endfacet
  facet normal -1.000000e+00 -1.882232e-16 -2.830490e-32
    outer loop
      vertex   -2.800000e+01 1.075000e+01 -4.725000e+01
      vertex   -2.800000e+01 -2.700000e+01 -9.450000e+01
      vertex   -2.800000e+01 -2.700000e+01 -4.725000e+01
    endloop
  endfacet
  facet normal -1.000000e+00 -1.882232e-16 -5.660980e-32
    outer loop
      vertex   -2.800000e+01 -2.700000e+01 -9.450000e+01
      vertex   -2.800000e+01 1.075000e+01 -4.725000e+01
      vertex   -2.800000e+01 1.075000e+01 -9.450000e+01
    endloop
  endfacet
  facet normal -1.000000e+00 -1.882232e-16 -2.830490e-32
    outer loop
      vertex   -2.800000e+01 1.075000e+01 -9.450000e+01
      vertex   -2.800000e+01 -2.700000e+01 -1.417500e+02
      vertex   -2.800000e+01 -2.700000e+01 -9.450000e+01
    endloop
  endfacet
  facet normal -1.000000e+00 -1.882232e-16 -2.830490e-32
    outer loop
      vertex   -2.800000e+01 -2.700000e+01 -1.417500e+02
      vertex   -2.800000e+01 1.075000e+01 -9.450000e+01
      vertex   -2.800000e+01 1.075000e+01 -1.417500e+02
    endloop
  endfacet
  facet normal -1.000000e+00 -1.882232e-16 -5.660980e-32
    outer loop
      vertex   -2.800000e+01 1.075000e+01 -1.417500e+02
      vertex   -2.800000e+01 -2.700000e+01 -1.890000e+02
      vertex   -2.800000e+01 -2.700000e+01 -1.417500e+02
    endloop
  endfacet
  facet normal -1.000000e+00 -1.882232e-16 -2.830490e-32
    outer loop
      vertex   -2.800000e+01 -2.700000e+01 -1.890000e+02
      vertex   -2.800000e+01 1.075000e+01 -1.417500e+02
      vertex   -2.800000e+01 1.075000e+01 -1.890000e+02
    endloop
  endfacet
  facet normal -1.000000e+00 1.986755e-05 -1.587302e-05
    outer loop
      vertex   -2.800000e+01 4.850000e+01 9.246083e-15
      vertex   -2.800000e+01 1.075000e+01 -4.725000e+01
      vertex   -2.800075e+01 1.075000e+01 4.623042e-15
    endloop
  endfacet
  facet normal -1.000000e+00 -2.823349e-16 -8.491470e-32
    outer loop
      vertex   -2.800000e+01 1.075000e+01 -4.725000e+01
      vertex   -2.800000e+01 4.850000e+01 9.246083e-15
      vertex   -2.800000e+01 4.850000e+01 -4.725000e+01
    endloop
  endfacet
  facet normal -1.000000e+00 -2.823349e-16 -2.830490e-32
    outer loop
      vertex   -2.800000e+01 4.850000e+01 -4.725000e+01
      vertex   -2.800000e+01 1.075000e+01 -9.450000e+01
      vertex   -2.800000e+01 1.075000e+01 -4.725000e+01
    endloop
  endfacet
  facet normal -1.000000e+00 -2.823349e-16 0.000000e+00
    outer loop
      vertex   -2.800000e+01 1.075000e+01 -9.450000e+01
      vertex   -2.800000e+01 4.850000e+01 -4.725000e+01
      vertex   -2.800000e+01 4.850000e+01 -9.450000e+01
    endloop
  endfacet
  facet normal -1.000000e+00 -2.823349e-16 -5.660980e-32
    outer loop
      vertex   -2.800000e+01 4.850000e+01 -9.450000e+01
      vertex   -2.800000e+01 1.075000e+01 -1.417500e+02
      vertex   -2.800000e+01 1.075000e+01 -9.450000e+01
    endloop
  endfacet
  facet normal -1.000000e+00 -2.823349e-16 -8.491470e-32
    outer loop
      vertex   -2.800000e+01 1.075000e+01 -1.417500e+02
      vertex   -2.800000e+01 4.850000e+01 -9.450000e+01
      vertex   -2.800000e+01 4.850000e+01 -1.417500e+02
    endloop
  endfacet
  facet normal -1.000000e+00 -2.823349e-16 -2.830490e-32
    outer loop
      vertex   -2.800000e+01 4.850000e+01 -1.417500e+02
      vertex   -2.800000e+01 1.075000e+01 -1.890000e+02
      vertex   -2.800000e+01 1.075000e+01 -1.417500e+02
    endloop
  endfacet
  facet normal -1.000000e+00 -2.823349e-16 -2.830490e-32
    outer loop
      vertex   -2.800000e+01 1.075000e+01 -1.890000e+02
      vertex   -2.800000e+01 4.850000e+01 -1.417500e+02
      vertex   -2.800000e+01 4.850000e+01 -1.890000e+02
    endloop
  endfacet
  facet normal -1.000000e+00 -1.882232e-16 -5.660980e-32
    outer loop
      vertex   -2.800000e+01 8.625000e+01 1.386913e-14
      vertex   -2.800000e+01 4.850000e+01 -4.725000e+01
      vertex   -2.800000e+01 4.850000e+01 9.246083e-15
    endloop
  endfacet
  facet normal -1.000000e+00 -1.882232e-16 0.000000e+00
    outer loop
      vertex   -2.800000e+01 4.850000e+01 -4.725000e+01
      vertex   -2.800000e+01 8.625000e+01 1.386913e-14
      vertex   -2.800000e+01 8.625000e+01 -4.725000e+01
    endloop
  endfacet
  facet normal -1.000000e+00 -1.882232e-16 0.000000e+00
    outer loop
      vertex   -2.800000e+01 8.625000e+01 -4.725000e+01
      vertex   -2.800000e+01 4.850000e+01 -9.450000e+01
      vertex   -2.800000e+01 4.850000e+01 -4.725000e+01
    endloop
  endfacet
  facet normal -1.000000e+00 -1.882232e-16 0.000000e+00
    outer loop
      vertex   -2.800000e+01 4.850000e+01 -9.450000e+01
      vertex   -2.800000e+01 8.625000e+01 -4.725000e+01
      vertex   -2.800000e+01 8.625000e+01 -9.450000e+01
    endloop
  endfacet
  facet normal -1.000000e+00 -1.882232e-16 -2.830490e-32
    outer loop
      vertex   -2.800000e+01 8.625000e+01 -9.450000e+01
      vertex   -2.800000e+01 4.850000e+01 -1.417500e+02
      vertex   -2.800000e+01 4.850000e+01 -9.450000e+01
    endloop
  endfacet
  facet normal -1.000000e+00 -1.882232e-16 0.000000e+00
    outer loop
      vertex   -2.800000e+01 4.850000e+01 -1.417500e+02
      vertex   -2.800000e+01 8.625000e+01 -9.450000e+01
      vertex   -2.800000e+01 8.625000e+01 -1.417500e+02
    endloop
  endfacet
  facet normal -1.000000e+00 -1.882232e-16 -2.830490e-32
    outer loop
      vertex   -2.800000e+01 8.625000e+01 -1.417500e+02
      vertex   -2.800000e+01 4.850000e+01 -1.890000e+02
      vertex   -2.800000e+01 4.850000e+01 -1.417500e+02
    endloop
  endfacet
  facet normal -1.000000e+00 -1.882232e-16 0.000000e+00
    outer loop
      vertex   -2.800000e+01 4.850000e+01 -1.890000e+02
      vertex   -2.800000e+01 8.625000e+01 -1.417500e+02
      vertex   -2.800000e+01 8.625000e+01 -1.890000e+02
    endloop
  endfacet
  facet normal -1.000000e+00 -2.823349e-16 0.000000e+00
    outer loop
      vertex   -2.800000e+01 1.240000e+02 1.849217e-14
      vertex   -2.800000e+01 8.625000e+01 -4.725000e+01
      vertex   -2.800000e+01 8.625000e+01 1.386913e-14
    endloop
  endfacet
  facet normal -1.000000e+00 -2.823404e-16 4.467735e-21
    outer loop
      vertex   -2.800000e+01 8.625000e+01 -4.725000e+01
      vertex   -2.800000e+01 1.240000e+02 1.849217e-14
      vertex   -2.800000e+01 1.239993e+02 -4.725000e+01
    endloop
  endfacet
  facet normal -1.000000e+00 -2.823404e-16 0.000000e+00
    outer loop
      vertex   -2.800000e+01 1.239993e+02 -4.725000e+01
      vertex   -2.800000e+01 8.625000e+01 -9.450000e+01
      vertex   -2.800000e+01 8.625000e+01 -4.725000e+01
    endloop
  endfacet
  facet normal -1.000000e+00 -2.823349e-16 -4.467647e-21
    outer loop
      vertex   -2.800000e+01 8.625000e+01 -9.450000e+01
      vertex   -2.800000e+01 1.239993e+02 -4.725000e+01
      vertex   -2.800000e+01 1.240000e+02 -9.450000e+01
    endloop
  endfacet
  facet normal -1.000000e+00 -2.823349e-16 0.000000e+00
    outer loop
      vertex   -2.800000e+01 1.240000e+02 -9.450000e+01
      vertex   -2.800000e+01 8.625000e+01 -1.417500e+02
      vertex   -2.800000e+01 8.625000e+01 -9.450000e+01
    endloop
  endfacet
  facet normal -1.000000e+00 -2.823349e-16 0.000000e+00
    outer loop
      vertex   -2.800000e+01 8.625000e+01 -1.417500e+02
      vertex   -2.800000e+01 1.240000e+02 -9.450000e+01
      vertex   -2.800000e+01 1.240000e+02 -1.417500e+02
    endloop
  endfacet
  facet normal -1.000000e+00 -2.823349e-16 0.000000e+00
    outer loop
      vertex   -2.800000e+01 1.240000e+02 -1.417500e+02
      vertex   -2.800000e+01 8.625000e+01 -1.890000e+02
      vertex   -2.800000e+01 8.625000e+01 -1.417500e+02
    endloop
  endfacet
  facet normal -1.000000e+00 -2.823349e-16 0.000000e+00
    outer loop
      vertex   -2.800000e+01 8.625000e+01 -1.890000e+02
      vertex   -2.800000e+01 1.240000e+02 -1.417500e+02
      vertex   -2.800000e+01 1.240000e+02 -1.890000e+02
    endloop
  endfacet
  facet normal 1.000000e+00 1.882195e-16 2.987611e-21
    outer loop
      vertex   3.200000e+01 -2.700075e+01 -9.184851e-20
      vertex   3.200000e+01 -2.700000e+01 -4.725000e+01
      vertex   3.200000e+01 1.075000e+01 4.623042e-15
    endloop
  endfacet
  facet normal 1.000000e+00 1.882270e-16 -2.993687e-21
    outer loop
      vertex   3.200000e+01 1.074925e+01 -4.725000e+01
      vertex   3.200000e+01 1.075000e+01 4.623042e-15
      vertex   3.200000e+01 -2.700000e+01 -4.725000e+01
    endloop
  endfacet
  facet normal 1.000000e+00 1.882270e-16 -2.987730e-21
    outer loop
      vertex   3.200000e+01 -2.700000e+01 -4.725000e+01
      vertex   3.200000e+01 -2.700075e+01 -9.450000e+01
      vertex   3.200000e+01 1.074925e+01 -4.725000e+01
    endloop
  endfacet
  facet normal 1.000000e+00 1.882195e-16 2.993568e-21
    outer loop
      vertex   3.200000e+01 1.075000e+01 -9.450000e+01
      vertex   3.200000e+01 1.074925e+01 -4.725000e+01
      vertex   3.200000e+01 -2.700075e+01 -9.450000e+01
    endloop
  endfacet
  facet normal 1.000000e+00 1.882195e-16 2.987611e-21
    outer loop
      vertex   3.200000e+01 -2.700075e+01 -9.450000e+01
      vertex   3.200000e+01 -2.700000e+01 -1.417500e+02
      vertex   3.200000e+01 1.075000e+01 -9.450000e+01
    endloop
  endfacet
  facet normal 1.000000e+00 1.882270e-16 -2.993734e-21
    outer loop
      vertex   3.200000e+01 1.074925e+01 -1.417493e+02
      vertex   3.200000e+01 1.075000e+01 -9.450000e+01
      vertex   3.200000e+01 -2.700000e+01 -1.417500e+02
    endloop
  endfacet
  facet normal 1.000000e+00 1.882270e-16 2.830546e-32
    outer loop
      vertex   3.200000e+01 -2.700000e+01 -1.417500e+02
      vertex   3.200000e+01 -2.700000e+01 -1.890000e+02
      vertex   3.200000e+01 1.074925e+01 -1.417493e+02
    endloop
  endfacet
  facet normal 1.000000e+00 1.882232e-16 2.993580e-21
    outer loop
      vertex   3.200000e+01 1.075000e+01 -1.890000e+02
      vertex   3.200000e+01 1.074925e+01 -1.417493e+02
      vertex   3.200000e+01 -2.700000e+01 -1.890000e+02
    endloop
  endfacet
  facet normal 1.000000e+00 1.882232e-16 -2.993627e-21
    outer loop
      vertex   3.200000e+01 1.075000e+01 4.623042e-15
      vertex   3.200000e+01 1.074925e+01 -4.725000e+01
      vertex   3.200000e+01 4.850000e+01 9.246083e-15
    endloop
  endfacet
  facet normal 1.000000e+00 1.882232e-16 -2.978431e-21
    outer loop
      vertex   3.200000e+01 4.849925e+01 -4.725000e+01
      vertex   3.200000e+01 4.850000e+01 9.246083e-15
      vertex   3.200000e+01 1.074925e+01 -4.725000e+01
    endloop
  endfacet
  facet normal 1.000000e+00 1.882232e-16 2.993627e-21
    outer loop
      vertex   3.200000e+01 1.074925e+01 -4.725000e+01
      vertex   3.200000e+01 1.075000e+01 -9.450000e+01
      vertex   3.200000e+01 4.849925e+01 -4.725000e+01
    endloop
  endfacet
  facet normal 1.000000e+00 1.882232e-16 2.978431e-21
    outer loop
      vertex   3.200000e+01 4.850000e+01 -9.450000e+01
      vertex   3.200000e+01 4.849925e+01 -4.725000e+01
      vertex   3.200000e+01 1.075000e+01 -9.450000e+01
    endloop
  endfacet
  facet normal 1.000000e+00 1.882232e-16 -2.993675e-21
    outer loop
      vertex   3.200000e+01 1.075000e+01 -9.450000e+01
      vertex   3.200000e+01 1.074925e+01 -1.417493e+02
      vertex   3.200000e+01 4.850000e+01 -9.450000e+01
    endloop
  endfacet
  facet normal 1.000000e+00 1.882232e-16 -2.978431e-21
    outer loop
      vertex   3.200000e+01 4.849925e+01 -1.417500e+02
      vertex   3.200000e+01 4.850000e+01 -9.450000e+01
      vertex   3.200000e+01 1.074925e+01 -1.417493e+02
    endloop
  endfacet
  facet normal 1.000000e+00 1.882232e-16 2.993580e-21
    outer loop
      vertex   3.200000e+01 1.074925e+01 -1.417493e+02
      vertex   3.200000e+01 1.075000e+01 -1.890000e+02
      vertex   3.200000e+01 4.849925e+01 -1.417500e+02
    endloop
  endfacet
  facet normal 1.000000e+00 1.882232e-16 2.978431e-21
    outer loop
      vertex   3.200000e+01 4.850000e+01 -1.890000e+02
      vertex   3.200000e+01 4.849925e+01 -1.417500e+02
      vertex   3.200000e+01 1.075000e+01 -1.890000e+02
    endloop
  endfacet
  facet normal 1.000000e+00 3.764465e-16 -5.956862e-21
    outer loop
      vertex   3.200000e+01 4.850000e+01 9.246083e-15
      vertex   3.200000e+01 4.849925e+01 -4.725000e+01
      vertex   3.200000e+01 8.625000e+01 1.386913e-14
    endloop
  endfacet
  facet normal 1.000000e+00 3.764465e-16 -5.956862e-21
    outer loop
      vertex   3.200000e+01 8.624925e+01 -4.725000e+01
      vertex   3.200000e+01 8.625000e+01 1.386913e-14
      vertex   3.200000e+01 4.849925e+01 -4.725000e+01
    endloop
  endfacet
  facet normal 1.000000e+00 3.764465e-16 5.956862e-21
    outer loop
      vertex   3.200000e+01 4.849925e+01 -4.725000e+01
      vertex   3.200000e+01 4.850000e+01 -9.450000e+01
      vertex   3.200000e+01 8.624925e+01 -4.725000e+01
    endloop
  endfacet
  facet normal 1.000000e+00 3.764465e-16 5.956862e-21
    outer loop
      vertex   3.200000e+01 8.625000e+01 -9.450000e+01
      vertex   3.200000e+01 8.624925e+01 -4.725000e+01
      vertex   3.200000e+01 4.850000e+01 -9.450000e+01
    endloop
  endfacet
  facet normal 1.000000e+00 3.764465e-16 -5.956862e-21
    outer loop
      vertex   3.200000e+01 4.850000e+01 -9.450000e+01
      vertex   3.200000e+01 4.849925e+01 -1.417500e+02
      vertex   3.200000e+01 8.625000e+01 -9.450000e+01
    endloop
  endfacet
  facet normal 1.000000e+00 3.764465e-16 -5.956862e-21
    outer loop
      vertex   3.200000e+01 8.624925e+01 -1.417500e+02
      vertex   3.200000e+01 8.625000e+01 -9.450000e+01
      vertex   3.200000e+01 4.849925e+01 -1.417500e+02
    endloop
  endfacet
  facet normal 1.000000e+00 3.764465e-16 5.956862e-21
    outer loop
      vertex   3.200000e+01 4.849925e+01 -1.417500e+02
      vertex   3.200000e+01 4.850000e+01 -1.890000e+02
      vertex   3.200000e+01 8.624925e+01 -1.417500e+02
    endloop
  endfacet
  facet normal 1.000000e+00 3.764465e-16 5.956862e-21
    outer loop
      vertex   3.200000e+01 8.625000e+01 -1.890000e+02
      vertex   3.200000e+01 8.624925e+01 -1.417500e+02
      vertex   3.200000e+01 4.850000e+01 -1.890000e+02
    endloop
  endfacet
  facet normal 1.000000e+00 1.882232e-16 -2.978431e-21
    outer loop
      vertex   3.200000e+01 8.625000e+01 1.386913e-14
      vertex   3.200000e+01 8.624925e+01 -4.725000e+01
      vertex   3.200000e+01 1.240000e+02 1.849217e-14
    endloop
  endfacet
  facet normal 1.000000e+00 1.882232e-16 -2.978431e-21
    outer loop
      vertex   3.200000e+01 1.239993e+02 -4.725000e+01
      vertex   3.200000e+01 1.240000e+02 1.849217e-14
      vertex   3.200000e+01 8.624925e+01 -4.725000e+01
    endloop
  endfacet
  facet normal 1.000000e+00 1.882232e-16 2.978431e-21
    outer loop
      vertex   3.200000e+01 8.624925e+01 -4.725000e+01
      vertex   3.200000e+01 8.625000e+01 -9.450000e+01
      vertex   3.200000e+01 1.239993e+02 -4.725000e+01
    endloop
  endfacet
  facet normal 1.000000e+00 1.882232e-16 2.978431e-21
    outer loop
      vertex   3.200000e+01 1.240000e+02 -9.450000e+01
      vertex   3.200000e+01 1.239993e+02 -4.725000e+01
      vertex   3.200000e+01 8.625000e+01 -9.450000e+01
    endloop
  endfacet
  facet normal 1.000000e+00 1.882232e-16 -2.978431e-21
    outer loop
      vertex   3.200000e+01 8.625000e+01 -9.450000e+01
      vertex   3.200000e+01 8.624925e+01 -1.417500e+02
      vertex   3.200000e+01 1.240000e+02 -9.450000e+01
    endloop
  endfacet
  facet normal 1.000000e+00 1.990716e-05 -1.590498e-05
    outer loop
      vertex   3.199925e+01 1.239993e+02 -1.417500e+02
      vertex   3.200000e+01 1.240000e+02 -9.450000e+01
      vertex   3.200000e+01 8.624925e+01 -1.417500e+02
    endloop
  endfacet
  facet normal 1.000000e+00 1.990716e-05 3.150095e-10
    outer loop
      vertex   3.200000e+01 8.624925e+01 -1.417500e+02
      vertex   3.200000e+01 8.625000e+01 -1.890000e+02
      vertex   3.199925e+01 1.239993e+02 -1.417500e+02
    endloop
  endfacet
  facet normal 1.000000e+00 1.882113e-16 1.590466e-05
    outer loop
      vertex   3.200000e+01 1.240000e+02 -1.890000e+02
      vertex   3.199925e+01 1.239993e+02 -1.417500e+02
      vertex   3.200000e+01 8.625000e+01 -1.890000e+02
    endloop
  endfacet
  facet normal 2.368476e-16 -1.000000e+00 -7.518971e-17
    outer loop
      vertex   -2.800000e+01 -2.700000e+01 -4.725000e+01
      vertex   -1.300000e+01 -2.700000e+01 4.622232e-31
      vertex   -2.800000e+01 -2.700000e+01 0.000000e+00
    endloop
  endfacet
  facet normal 2.368476e-16 -1.000000e+00 -7.518971e-17
    outer loop
      vertex   -1.300000e+01 -2.700000e+01 4.622232e-31
      vertex   -2.800000e+01 -2.700000e+01 -4.725000e+01
      vertex   -1.300000e+01 -2.700000e+01 -4.725000e+01
    endloop
  endfacet
  facet normal -5.000000e-05 -1.000000e+00 -7.518971e-17
    outer loop
      vertex   -1.300000e+01 -2.700000e+01 -4.725000e+01
      vertex   2.000000e+00 -2.700075e+01 -9.184851e-20
      vertex   -1.300000e+01 -2.700000e+01 4.622232e-31
    endloop
  endfacet
  facet normal 2.368476e-16 -1.000000e+00 -1.587302e-05
    outer loop
      vertex   2.000000e+00 -2.700075e+01 -9.184851e-20
      vertex   -1.300000e+01 -2.700000e+01 -4.725000e+01
      vertex   2.000000e+00 -2.700000e+01 -4.725000e+01
    endloop
  endfacet
  facet normal 5.000000e-05 -1.000000e+00 -1.587302e-05
    outer loop
      vertex   2.000000e+00 -2.700000e+01 -4.725000e+01
      vertex   1.700000e+01 -2.700000e+01 1.386670e-30
      vertex   2.000000e+00 -2.700075e+01 -9.184851e-20
    endloop
  endfacet
  facet normal 2.368476e-16 -1.000000e+00 -1.503794e-16
    outer loop
      vertex   1.700000e+01 -2.700000e+01 1.386670e-30
      vertex   2.000000e+00 -2.700000e+01 -4.725000e+01
      vertex   1.700000e+01 -2.700000e+01 -4.725000e+01
    endloop
  endfacet
  facet normal -5.000000e-05 -1.000000e+00 -1.503794e-16
    outer loop
      vertex   1.700000e+01 -2.700000e+01 -4.725000e+01
      vertex   3.200000e+01 -2.700075e+01 -9.184851e-20
      vertex   1.700000e+01 -2.700000e+01 1.386670e-30
    endloop
  endfacet
  facet normal 0.000000e+00 -1.000000e+00 -1.587302e-05
    outer loop
      vertex   3.200000e+01 -2.700075e+01 -9.184851e-20
      vertex   1.700000e+01 -2.700000e+01 -4.725000e+01
      vertex   3.200000e+01 -2.700000e+01 -4.725000e+01
    endloop
  endfacet
  facet normal 2.368476e-16 -1.000000e+00 -1.503794e-16
    outer loop
      vertex   -2.800000e+01 -2.700000e+01 -9.450000e+01
      vertex   -1.300000e+01 -2.700000e+01 -4.725000e+01
      vertex   -2.800000e+01 -2.700000e+01 -4.725000e+01
    endloop
  endfacet
  facet normal 0.000000e+00 -1.000000e+00 -7.518971e-17
    outer loop
      vertex   -1.300000e+01 -2.700000e+01 -4.725000e+01
      vertex   -2.800000e+01 -2.700000e+01 -9.450000e+01
      vertex   -1.300000e+01 -2.700000e+01 -9.450000e+01
    endloop
  endfacet
  facet normal 2.368476e-16 -1.000000e+00 -7.518971e-17
    outer loop
      vertex   -1.300000e+01 -2.700000e+01 -9.450000e+01
      vertex   2.000000e+00 -2.700000e+01 -4.725000e+01
      vertex   -1.300000e+01 -2.700000e+01 -4.725000e+01
    endloop
  endfacet
  facet normal 2.368476e-16 -1.000000e+00 -7.518971e-17
    outer loop
      vertex   2.000000e+00 -2.700000e+01 -4.725000e+01
      vertex   -1.300000e+01 -2.700000e+01 -9.450000e+01
      vertex   2.000000e+00 -2.700000e+01 -9.450000e+01
    endloop
  endfacet
  facet normal 2.368476e-16 -1.000000e+00 -7.518971e-17
    outer loop
      vertex   2.000000e+00 -2.700000e+01 -9.450000e+01
      vertex   1.700000e+01 -2.700000e+01 -4.725000e+01
      vertex   2.000000e+00 -2.700000e+01 -4.725000e+01
    endloop
  endfacet
  facet normal 4.736952e-16 -1.000000e+00 -1.503794e-16
    outer loop
      vertex   1.700000e+01 -2.700000e+01 -4.725000e+01
      vertex   2.000000e+00 -2.700000e+01 -9.450000e+01
      vertex   1.700000e+01 -2.700000e+01 -9.450000e+01
    endloop
  endfacet
  facet normal 0.000000e+00 -1.000000e+00 -1.503794e-16
    outer loop
      vertex   1.700000e+01 -2.700000e+01 -9.450000e+01
      vertex   3.200000e+01 -2.700000e+01 -4.725000e+01
      vertex   1.700000e+01 -2.700000e+01 -4.725000e+01
    endloop
  endfacet
  facet normal -5.000000e-05 -1.000000e+00 1.587302e-05
    outer loop
      vertex   3.200000e+01 -2.700000e+01 -4.725000e+01
      vertex   1.700000e+01 -2.700000e+01 -9.450000e+01
      vertex   3.200000e+01 -2.700075e+01 -9.450000e+01
    endloop
  endfacet
  facet normal 0.000000e+00 -1.000000e+00 -7.518971e-17
    outer loop
      vertex   -2.800000e+01 -2.700000e+01 -1.417500e+02
      vertex   -1.300000e+01 -2.700000e+01 -9.450000e+01
      vertex   -2.800000e+01 -2.700000e+01 -9.450000e+01
    endloop
  endfacet
  facet normal 4.736952e-16 -1.000000e+00 -2.255691e-16
    outer loop
      vertex   -1.300000e+01 -2.700000e+01 -9.450000e+01
      vertex   -2.800000e+01 -2.700000e+01 -1.417500e+02
      vertex   -1.300000e+01 -2.700000e+01 -1.417500e+02
    endloop
  endfacet
  facet normal 2.368476e-16 -1.000000e+00 -2.255691e-16
    outer loop
      vertex   -1.300000e+01 -2.700000e+01 -1.417500e+02
      vertex   2.000000e+00 -2.700000e+01 -9.450000e+01
      vertex   -1.300000e+01 -2.700000e+01 -9.450000e+01
    endloop
  endfacet
  facet normal 0.000000e+00 -1.000000e+00 -1.503794e-16
    outer loop
      vertex   2.000000e+00 -2.700000e+01 -9.450000e+01
      vertex   -1.300000e+01 -2.700000e+01 -1.417500e+02
      vertex   2.000000e+00 -2.700000e+01 -1.417500e+02
    endloop
  endfacet
  facet normal 4.736952e-16 -1.000000e+00 -1.503794e-16
    outer loop
      vertex   2.000000e+00 -2.700000e+01 -1.417500e+02
      vertex   1.700000e+01 -2.700000e+01 -9.450000e+01
      vertex   2.000000e+00 -2.700000e+01 -9.450000e+01
    endloop
  endfacet
  facet normal 2.368476e-16 -1.000000e+00 -7.518971e-17
    outer loop
      vertex   1.700000e+01 -2.700000e+01 -9.450000e+01
      vertex   2.000000e+00 -2.700000e+01 -1.417500e+02
      vertex   1.700000e+01 -2.700000e+01 -1.417500e+02
    endloop
  endfacet
  facet normal -5.000000e-05 -1.000000e+00 -7.518971e-17
    outer loop
      vertex   1.700000e+01 -2.700000e+01 -1.417500e+02
      vertex   3.200000e+01 -2.700075e+01 -9.450000e+01
      vertex   1.700000e+01 -2.700000e+01 -9.450000e+01
    endloop
  endfacet
  facet normal 2.368476e-16 -1.000000e+00 -1.587302e-05
    outer loop
      vertex   3.200000e+01 -2.700075e+01 -9.450000e+01
      vertex   1.700000e+01 -2.700000e+01 -1.417500e+02
      vertex   3.200000e+01 -2.700000e+01 -1.417500e+02
    endloop
  endfacet
  facet normal 4.736952e-16 -1.000000e+00 -1.503794e-16
    outer loop
      vertex   -2.800000e+01 -2.700000e+01 -1.890000e+02
      vertex   -1.300000e+01 -2.700000e+01 -1.417500e+02
      vertex   -2.800000e+01 -2.700000e+01 -1.417500e+02
    endloop
  endfacet
  facet normal 2.368476e-16 -1.000000e+00 -7.518971e-17
    outer loop
      vertex   -1.300000e+01 -2.700000e+01 -1.417500e+02
      vertex   -2.800000e+01 -2.700000e+01 -1.890000e+02
      vertex   -1.300000e+01 -2.700000e+01 -1.890000e+02
    endloop
  endfacet
  facet normal 0.000000e+00 -1.000000e+00 -7.518971e-17
    outer loop
      vertex   -1.300000e+01 -2.700000e+01 -1.890000e+02
      vertex   2.000000e+00 -2.700000e+01 -1.417500e+02
      vertex   -1.300000e+01 -2.700000e+01 -1.417500e+02
    endloop
  endfacet
  facet normal 2.368476e-16 -1.000000e+00 -1.503794e-16
    outer loop
      vertex   2.000000e+00 -2.700000e+01 -1.417500e+02
      vertex   -1.300000e+01 -2.700000e+01 -1.890000e+02
      vertex   2.000000e+00 -2.700000e+01 -1.890000e+02
    endloop
  endfacet
  facet normal 2.368476e-16 -1.000000e+00 -1.503794e-16
    outer loop
      vertex   2.000000e+00 -2.700000e+01 -1.890000e+02
      vertex   1.700000e+01 -2.700000e+01 -1.417500e+02
      vertex   2.000000e+00 -2.700000e+01 -1.417500e+02
    endloop
  endfacet
  facet normal 0.000000e+00 -1.000000e+00 -7.518971e-17
    outer loop
      vertex   1.700000e+01 -2.700000e+01 -1.417500e+02
      vertex   2.000000e+00 -2.700000e+01 -1.890000e+02
      vertex   1.700000e+01 -2.700000e+01 -1.890000e+02
    endloop
  endfacet
  facet normal 2.368476e-16 -1.000000e+00 -7.518971e-17
    outer loop
      vertex   1.700000e+01 -2.700000e+01 -1.890000e+02
      vertex   3.200000e+01 -2.700000e+01 -1.417500e+02
      vertex   1.700000e+01 -2.700000e+01 -1.417500e+02
    endloop
  endfacet
  facet normal 4.736952e-16 -1.000000e+00 -1.503794e-16
    outer loop
      vertex   3.200000e+01 -2.700000e+01 -1.417500e+02
      vertex   1.700000e+01 -2.700000e+01 -1.890000e+02
      vertex   3.200000e+01 -2.700000e+01 -1.890000e+02
    endloop
  endfacet
  facet normal 4.984538e-05 1.000000e+00 -1.582393e-05
    outer loop
      vertex   -2.800000e+01 1.240000e+02 1.849217e-14
      vertex   -1.300000e+01 1.239993e+02 1.849208e-14
      vertex   -2.800000e+01 1.239993e+02 -4.725000e+01
    endloop
  endfacet
  facet normal -4.984538e-05 1.000000e+00 1.582393e-05
    outer loop
      vertex   -1.300000e+01 1.240000e+02 -4.725000e+01
      vertex   -2.800000e+01 1.239993e+02 -4.725000e+01
      vertex   -1.300000e+01 1.239993e+02 1.849208e-14
    endloop
  endfacet
  facet normal -4.984538e-05 1.000000e+00 1.582393e-05
    outer loop
      vertex   -1.300000e+01 1.239993e+02 1.849208e-14
      vertex   2.000000e+00 1.240000e+02 1.849217e-14
      vertex   -1.300000e+01 1.240000e+02 -4.725000e+01
    endloop
  endfacet
  facet normal 4.984538e-05 1.000000e+00 -1.582393e-05
    outer loop
      vertex   2.000000e+00 1.239993e+02 -4.725000e+01
      vertex   -1.300000e+01 1.240000e+02 -4.725000e+01
      vertex   2.000000e+00 1.240000e+02 1.849217e-14
    endloop
  endfacet
  facet normal 4.984538e-05 1.000000e+00 -1.582393e-05
    outer loop
      vertex   2.000000e+00 1.240000e+02 1.849217e-14
      vertex   1.700000e+01 1.239993e+02 1.849208e-14
      vertex   2.000000e+00 1.239993e+02 -4.725000e+01
    endloop
  endfacet
  facet normal -4.984538e-05 1.000000e+00 1.582393e-05
    outer loop
      vertex   1.700000e+01 1.240000e+02 -4.725000e+01
      vertex   2.000000e+00 1.239993e+02 -4.725000e+01
      vertex   1.700000e+01 1.239993e+02 1.849208e-14
    endloop
  endfacet
  facet normal -4.984538e-05 1.000000e+00 1.582393e-05
    outer loop
      vertex   1.700000e+01 1.239993e+02 1.849208e-14
      vertex   3.200000e+01 1.240000e+02 1.849217e-14
      vertex   1.700000e+01 1.240000e+02 -4.725000e+01
    endloop
  endfacet
  facet normal 4.984538e-05 1.000000e+00 -1.582393e-05
    outer loop
      vertex   3.200000e+01 1.239993e+02 -4.725000e+01
      vertex   1.700000e+01 1.240000e+02 -4.725000e+01
      vertex   3.200000e+01 1.240000e+02 1.849217e-14
    endloop
  endfacet
  facet normal -4.984538e-05 1.000000e+00 1.582393e-05
    outer loop
      vertex   -2.800000e+01 1.239993e+02 -4.725000e+01
      vertex   -1.300000e+01 1.240000e+02 -4.725000e+01
      vertex   -2.800000e+01 1.240000e+02 -9.450000e+01
    endloop
  endfacet
  facet normal 4.984617e-05 1.000000e+00 -1.582418e-05
    outer loop
      vertex   -1.300000e+01 1.239993e+02 -9.449925e+01
      vertex   -2.800000e+01 1.240000e+02 -9.450000e+01
      vertex   -1.300000e+01 1.240000e+02 -4.725000e+01
    endloop
  endfacet
  facet normal 4.984538e-05 1.000000e+00 -1.582418e-05
    outer loop
      vertex   -1.300000e+01 1.240000e+02 -4.725000e+01
      vertex   2.000000e+00 1.239993e+02 -4.725000e+01
      vertex   -1.300000e+01 1.239993e+02 -9.449925e+01
    endloop
  endfacet
  facet normal -4.984459e-05 1.000000e+00 1.582393e-05
    outer loop
      vertex   2.000000e+00 1.240000e+02 -9.450000e+01
      vertex   -1.300000e+01 1.239993e+02 -9.449925e+01
      vertex   2.000000e+00 1.239993e+02 -4.725000e+01
    endloop
  endfacet
  facet normal -4.984538e-05 1.000000e+00 1.582393e-05
    outer loop
      vertex   2.000000e+00 1.239993e+02 -4.725000e+01
      vertex   1.700000e+01 1.240000e+02 -4.725000e+01
      vertex   2.000000e+00 1.240000e+02 -9.450000e+01
    endloop
  endfacet
  facet normal 4.984538e-05 1.000000e+00 -1.582393e-05
    outer loop
      vertex   1.700000e+01 1.239993e+02 -9.450000e+01
      vertex   2.000000e+00 1.240000e+02 -9.450000e+01
      vertex   1.700000e+01 1.240000e+02 -4.725000e+01
    endloop
  endfacet
  facet normal 4.984538e-05 1.000000e+00 -1.582393e-05
    outer loop
      vertex   1.700000e+01 1.240000e+02 -4.725000e+01
      vertex   3.200000e+01 1.239993e+02 -4.725000e+01
      vertex   1.700000e+01 1.239993e+02 -9.450000e+01
    endloop
  endfacet
  facet normal -4.984538e-05 1.000000e+00 1.582393e-05
    outer loop
      vertex   3.200000e+01 1.240000e+02 -9.450000e+01
      vertex   1.700000e+01 1.239993e+02 -9.450000e+01
      vertex   3.200000e+01 1.239993e+02 -4.725000e+01
    endloop
  endfacet
  facet normal 4.984538e-05 1.000000e+00 0.000000e+00
    outer loop
      vertex   -2.800000e+01 1.240000e+02 -9.450000e+01
      vertex   -1.300000e+01 1.239993e+02 -9.449925e+01
      vertex   -2.800000e+01 1.240000e+02 -1.417500e+02
    endloop
  endfacet
  facet normal -7.887892e-10 1.000000e+00 1.582393e-05
    outer loop
      vertex   -1.300075e+01 1.240000e+02 -1.417493e+02
      vertex   -2.800000e+01 1.240000e+02 -1.417500e+02
      vertex   -1.300000e+01 1.239993e+02 -9.449925e+01
    endloop
  endfacet
  facet normal -4.984459e-05 1.000000e+00 1.582472e-05
    outer loop
      vertex   -1.300000e+01 1.239993e+02 -9.449925e+01
      vertex   2.000000e+00 1.240000e+02 -9.450000e+01
      vertex   -1.300075e+01 1.240000e+02 -1.417493e+02
    endloop
  endfacet
  facet normal 0.000000e+00 1.000000e+00 -0.000000e+00
    outer loop
      vertex   1.999251e+00 1.240000e+02 -1.417500e+02
      vertex   -1.300075e+01 1.240000e+02 -1.417493e+02
      vertex   2.000000e+00 1.240000e+02 -9.450000e+01
    endloop
  endfacet
  facet normal 4.984538e-05 1.000000e+00 -7.907619e-10
    outer loop
      vertex   2.000000e+00 1.240000e+02 -9.450000e+01
      vertex   1.700000e+01 1.239993e+02 -9.450000e+01
      vertex   1.999251e+00 1.240000e+02 -1.417500e+02
    endloop
  endfacet
  facet normal -2.842171e-15 1.000000e+00 1.582393e-05
    outer loop
      vertex   1.699925e+01 1.240000e+02 -1.417500e+02
      vertex   1.999251e+00 1.240000e+02 -1.417500e+02
      vertex   1.700000e+01 1.239993e+02 -9.450000e+01
    endloop
  endfacet
  facet normal -4.984538e-05 1.000000e+00 1.582472e-05
    outer loop
      vertex   1.700000e+01 1.239993e+02 -9.450000e+01
      vertex   3.200000e+01 1.240000e+02 -9.450000e+01
      vertex   1.699925e+01 1.240000e+02 -1.417500e+02
    endloop
  endfacet
  facet normal 4.984538e-05 1.000000e+00 -1.582472e-05
    outer loop
      vertex   3.199925e+01 1.239993e+02 -1.417500e+02
      vertex   1.699925e+01 1.240000e+02 -1.417500e+02
      vertex   3.200000e+01 1.240000e+02 -9.450000e+01
    endloop
  endfacet
  facet normal -0.000000e+00 1.000000e+00 0.000000e+00
    outer loop
      vertex   -2.800000e+01 1.240000e+02 -1.417500e+02
      vertex   -1.300075e+01 1.240000e+02 -1.417493e+02
      vertex   -2.800000e+01 1.240000e+02 -1.890000e+02
    endloop
  endfacet
  facet normal 0.000000e+00 1.000000e+00 0.000000e+00
    outer loop
      vertex   -1.300000e+01 1.240000e+02 -1.890000e+02
      vertex   -2.800000e+01 1.240000e+02 -1.890000e+02
      vertex   -1.300075e+01 1.240000e+02 -1.417493e+02
    endloop
  endfacet
  facet normal 0.000000e+00 1.000000e+00 0.000000e+00
    outer loop
      vertex   -1.300075e+01 1.240000e+02 -1.417493e+02
      vertex   1.999251e+00 1.240000e+02 -1.417500e+02
      vertex   -1.300000e+01 1.240000e+02 -1.890000e+02
    endloop
  endfacet
  facet normal 0.000000e+00 1.000000e+00 0.000000e+00
    outer loop
      vertex   2.000000e+00 1.240000e+02 -1.890000e+02
      vertex   -1.300000e+01 1.240000e+02 -1.890000e+02
      vertex   1.999251e+00 1.240000e+02 -1.417500e+02
    endloop
  endfacet
  facet normal -2.842171e-15 1.000000e+00 -4.508905e-20
    outer loop
      vertex   1.999251e+00 1.240000e+02 -1.417500e+02
      vertex   1.699925e+01 1.240000e+02 -1.417500e+02
      vertex   2.000000e+00 1.240000e+02 -1.890000e+02
    endloop
  endfacet
  facet normal -2.842171e-15 1.000000e+00 -4.520377e-20
    outer loop
      vertex   1.700000e+01 1.240000e+02 -1.890000e+02
      vertex   2.000000e+00 1.240000e+02 -1.890000e+02
      vertex   1.699925e+01 1.240000e+02 -1.417500e+02
    endloop
  endfacet
  facet normal 4.984538e-05 1.000000e+00 7.927740e-10
    outer loop
      vertex   1.699925e+01 1.240000e+02 -1.417500e+02
      vertex   3.199925e+01 1.239993e+02 -1.417500e+02
      vertex   1.700000e+01 1.240000e+02 -1.890000e+02
    endloop
  endfacet
  facet normal 0.000000e+00 1.000000e+00 1.582393e-05
    outer loop
      vertex   3.200000e+01 1.240000e+02 -1.890000e+02
      vertex   1.700000e+01 1.240000e+02 -1.890000e+02
      vertex   3.199925e+01 1.239993e+02 -1.417500e+02
    endloop
  endfacet
endsolid
