solid ASCII
  facet normal -0.000000e+00 0.000000e+00 -1.000000e+00
    outer loop
      vertex   -2.300000e+01 7.700000e+01 -1.350000e+02
      vertex   -2.800000e+01 -2.300000e+01 -1.350000e+02
      vertex   -2.800000e+01 7.700000e+01 -1.350000e+02
    endloop
  endfacet
  facet normal 0.000000e+00 0.000000e+00 -1.000000e+00
    outer loop
      vertex   3.200000e+01 -2.300000e+01 -1.350000e+02
      vertex   -2.800000e+01 -2.300000e+01 -1.350000e+02
      vertex   -2.300000e+01 7.700000e+01 -1.350000e+02
    endloop
  endfacet
  facet normal 0.000000e+00 0.000000e+00 -1.000000e+00
    outer loop
      vertex   3.200000e+01 -2.300000e+01 -1.350000e+02
      vertex   -2.300000e+01 7.700000e+01 -1.350000e+02
      vertex   3.200000e+01 7.700000e+01 -1.350000e+02
    endloop
  endfacet
  facet normal 1.000000e+00 -0.000000e+00 0.000000e+00
    outer loop
      vertex   3.200000e+01 -2.300075e+01 0.000000e+00
      vertex   3.200000e+01 7.700000e+01 -5.000000e+00
      vertex   3.200000e+01 7.700000e+01 0.000000e+00
    endloop
  endfacet
  facet normal 1.000000e+00 0.000000e+00 0.000000e+00
    outer loop
      vertex   3.200000e+01 -2.300075e+01 -5.000000e+00
      vertex   3.200000e+01 7.700000e+01 -5.000000e+00
      vertex   3.200000e+01 -2.300075e+01 0.000000e+00
    endloop
  endfacet
  facet normal 1.000000e+00 0.000000e+00 -0.000000e+00
    outer loop
      vertex   3.200000e+01 -2.300000e+01 -1.350000e+02
      vertex   3.200000e+01 7.700000e+01 -5.000000e+00
      vertex   3.200000e+01 -2.300075e+01 -5.000000e+00
    endloop
  endfacet
  facet normal 1.000000e+00 0.000000e+00 -0.000000e+00
    outer loop
      vertex   3.200000e+01 7.700000e+01 -1.350000e+02
      vertex   3.200000e+01 7.700000e+01 -5.000000e+00
      vertex   3.200000e+01 -2.300000e+01 -1.350000e+02
    endloop
  endfacet
  facet normal -1.365488e-05 -1.000000e+00 -5.777066e-06
    outer loop
      vertex   3.200000e+01 -2.300075e+01 -5.000000e+00
      vertex   -2.300000e+01 -2.300000e+01 -5.000000e+00
      vertex   3.200000e+01 -2.300000e+01 -1.350000e+02
    endloop
  endfacet
  facet normal 0.000000e+00 -1.000000e+00 0.000000e+00
    outer loop
      vertex   -2.800000e+01 -2.300000e+01 0.000000e+00
      vertex   -2.300000e+01 -2.300000e+01 -5.000000e+00
      vertex   -2.300000e+01 -2.300000e+01 0.000000e+00
    endloop
  endfacet
  facet normal 0.000000e+00 -1.000000e+00 0.000000e+00
    outer loop
      vertex   -2.800000e+01 -2.300000e+01 -1.350000e+02
      vertex   -2.300000e+01 -2.300000e+01 -5.000000e+00
      vertex   -2.800000e+01 -2.300000e+01 0.000000e+00
    endloop
  endfacet
  facet normal 0.000000e+00 -1.000000e+00 0.000000e+00
    outer loop
      vertex   3.200000e+01 -2.300000e+01 -1.350000e+02
      vertex   -2.300000e+01 -2.300000e+01 -5.000000e+00
      vertex   -2.800000e+01 -2.300000e+01 -1.350000e+02
    endloop
  endfacet
  facet normal 0.000000e+00 1.000000e+00 0.000000e+00
    outer loop
      vertex   -2.800000e+01 7.700000e+01 0.000000e+00
      vertex   3.200000e+01 7.700000e+01 -5.000000e+00
      vertex   3.200000e+01 7.700000e+01 -1.350000e+02
    endloop
  endfacet
  facet normal -0.000000e+00 1.000000e+00 0.000000e+00
    outer loop
      vertex   -2.800000e+01 7.700000e+01 0.000000e+00
      vertex   3.200000e+01 7.700000e+01 0.000000e+00
      vertex   3.200000e+01 7.700000e+01 -5.000000e+00
    endloop
  endfacet
  facet normal 0.000000e+00 1.000000e+00 0.000000e+00
    outer loop
      vertex   -2.800000e+01 7.700000e+01 0.000000e+00
      vertex   -2.300000e+01 7.700000e+01 -1.350000e+02
      vertex   -2.800000e+01 7.700000e+01 -1.350000e+02
    endloop
  endfacet
  facet normal 0.000000e+00 1.000000e+00 0.000000e+00
    outer loop
      vertex   3.200000e+01 7.700000e+01 -1.350000e+02
      vertex   -2.300000e+01 7.700000e+01 -1.350000e+02
      vertex   -2.800000e+01 7.700000e+01 0.000000e+00
    endloop
  endfacet
  facet normal -1.000000e+00 0.000000e+00 0.000000e+00
    outer loop
      vertex   -2.800000e+01 -2.300000e+01 0.000000e+00
      vertex   -2.800000e+01 7.700000e+01 -1.350000e+02
      vertex   -2.800000e+01 -2.300000e+01 -1.350000e+02
    endloop
  endfacet
  facet normal -1.000000e+00 -0.000000e+00 -0.000000e+00
    outer loop
      vertex   -2.800000e+01 7.700000e+01 0.000000e+00
      vertex   -2.800000e+01 7.700000e+01 -1.350000e+02
      vertex   -2.800000e+01 -2.300000e+01 0.000000e+00
    endloop
  endfacet
  facet normal 0.000000e+00 0.000000e+00 1.000000e+00
    outer loop
      vertex   -2.300000e+01 -2.300000e+01 0.000000e+00
      vertex   -2.800000e+01 7.700000e+01 0.000000e+00
      vertex   -2.800000e+01 -2.300000e+01 0.000000e+00
    endloop
  endfacet
  facet normal 0.000000e+00 -0.000000e+00 1.000000e+00
    outer loop
      vertex   -2.300000e+01 -2.300000e+01 0.000000e+00
      vertex   3.200000e+01 7.700000e+01 0.000000e+00
      vertex   -2.800000e+01 7.700000e+01 0.000000e+00
    endloop
  endfacet
  facet normal 0.000000e+00 -0.000000e+00 1.000000e+00
    outer loop
      vertex   3.200000e+01 -2.300075e+01 0.000000e+00
      vertex   3.200000e+01 7.700000e+01 0.000000e+00
      vertex   -2.300000e+01 -2.300000e+01 0.000000e+00
    endloop
  endfacet
  facet normal -1.365488e-05 -1.000000e+00 0.000000e+00
    outer loop
      vertex   -2.300000e+01 -2.300000e+01 0.000000e+00
      vertex   3.200000e+01 -2.300075e+01 -5.000000e+00
      vertex   3.200000e+01 -2.300075e+01 0.000000e+00
    endloop
  endfacet
  facet normal -1.365488e-05 -1.000000e+00 0.000000e+00
    outer loop
      vertex   -2.300000e+01 -2.300000e+01 -5.000000e+00
      vertex   3.200000e+01 -2.300075e+01 -5.000000e+00
      vertex   -2.300000e+01 -2.300000e+01 0.000000e+00
    endloop
  endfacet
endsolid
