solid ASCII
  facet normal -3.190629e-33 -1.224647e-16 1.000000e+00
    outer loop
      vertex   -3.250000e+01 -2.950000e+01 0.000000e+00
      vertex   -1.675000e+01 -2.950000e+01 4.853343e-31
      vertex   -3.250075e+01 -5.000000e+00 3.000385e-15
    endloop
  endfacet
  facet normal 2.094518e-32 -1.224647e-16 1.000000e+00
    outer loop
      vertex   -1.675000e+01 -5.000749e+00 3.000293e-15
      vertex   -3.250075e+01 -5.000000e+00 3.000385e-15
      vertex   -1.675000e+01 -2.950000e+01 4.853343e-31
    endloop
  endfacet
  facet normal 2.094354e-32 -1.224647e-16 1.000000e+00
    outer loop
      vertex   -3.250075e+01 -5.000000e+00 3.000385e-15
      vertex   -1.675000e+01 -5.000749e+00 3.000293e-15
      vertex   -3.250000e+01 1.950000e+01 6.000769e-15
    endloop
  endfacet
  facet normal 1.186977e-32 -1.224647e-16 1.000000e+00
    outer loop
      vertex   -1.675000e+01 1.949925e+01 6.000677e-15
      vertex   -3.250000e+01 1.950000e+01 6.000769e-15
      vertex   -1.675000e+01 -5.000749e+00 3.000293e-15
    endloop
  endfacet
  facet normal 1.186777e-32 -1.224647e-16 1.000000e+00
    outer loop
      vertex   -3.250000e+01 1.950000e+01 6.000769e-15
      vertex   -1.675000e+01 1.949925e+01 6.000677e-15
      vertex   -3.250000e+01 4.400000e+01 9.001154e-15
    endloop
  endfacet
  facet normal -3.904315e-32 -1.224647e-16 1.000000e+00
    outer loop
      vertex   -1.675000e+01 4.399925e+01 9.001063e-15
      vertex   -3.250000e+01 4.400000e+01 9.001154e-15
      vertex   -1.675000e+01 1.949925e+01 6.000677e-15
    endloop
  endfacet
  facet normal -3.903817e-32 -1.224647e-16 1.000000e+00
    outer loop
      vertex   -3.250000e+01 4.400000e+01 9.001154e-15
      vertex   -1.675000e+01 4.399925e+01 9.001063e-15
      vertex   -3.250000e+01 6.850000e+01 1.200154e-14
    endloop
  endfacet
  facet normal 6.113764e-32 -1.224647e-16 1.000000e+00
    outer loop
      vertex   -1.675000e+01 6.849925e+01 1.200145e-14
      vertex   -3.250000e+01 6.850000e+01 1.200154e-14
      vertex   -1.675000e+01 4.399925e+01 9.001063e-15
    endloop
  endfacet
  facet normal -1.070218e-32 -1.224647e-16 1.000000e+00
    outer loop
      vertex   -1.675000e+01 -2.950000e+01 4.853343e-31
      vertex   -9.999995e-01 -2.950075e+01 -9.184851e-20
      vertex   -1.675000e+01 -5.000749e+00 3.000293e-15
    endloop
  endfacet
  facet normal -1.971413e-33 -1.224647e-16 1.000000e+00
    outer loop
      vertex   -9.999995e-01 -5.000000e+00 3.000385e-15
      vertex   -1.675000e+01 -5.000749e+00 3.000293e-15
      vertex   -9.999995e-01 -2.950075e+01 -9.184851e-20
    endloop
  endfacet
  facet normal -1.971474e-33 -1.224647e-16 1.000000e+00
    outer loop
      vertex   -1.675000e+01 -5.000749e+00 3.000293e-15
      vertex   -9.999995e-01 -5.000000e+00 3.000385e-15
      vertex   -1.675000e+01 1.949925e+01 6.000677e-15
    endloop
  endfacet
  facet normal 2.091658e-32 -1.224647e-16 1.000000e+00
    outer loop
      vertex   -9.999995e-01 1.950000e+01 6.000769e-15
      vertex   -1.675000e+01 1.949925e+01 6.000677e-15
      vertex   -9.999995e-01 -5.000000e+00 3.000385e-15
    endloop
  endfacet
  facet normal 2.092057e-32 -1.224647e-16 1.000000e+00
    outer loop
      vertex   -1.675000e+01 1.949925e+01 6.000677e-15
      vertex   -9.999995e-01 1.950000e+01 6.000769e-15
      vertex   -1.675000e+01 4.399925e+01 9.001063e-15
    endloop
  endfacet
  facet normal 1.495365e-31 -1.224647e-16 1.000000e+00
    outer loop
      vertex   -9.999995e-01 4.400000e+01 9.001154e-15
      vertex   -1.675000e+01 4.399925e+01 9.001063e-15
      vertex   -9.999995e-01 1.950000e+01 6.000769e-15
    endloop
  endfacet
  facet normal 1.495315e-31 -1.224647e-16 1.000000e+00
    outer loop
      vertex   -1.675000e+01 4.399925e+01 9.001063e-15
      vertex   -9.999995e-01 4.400000e+01 9.001154e-15
      vertex   -1.675000e+01 6.849925e+01 1.200145e-14
    endloop
  endfacet
  facet normal -6.113065e-32 -1.224647e-16 1.000000e+00
    outer loop
      vertex   -9.999995e-01 6.850000e+01 1.200154e-14
      vertex   -1.675000e+01 6.849925e+01 1.200145e-14
      vertex   -9.999995e-01 4.400000e+01 9.001154e-15
    endloop
  endfacet
  facet normal -2.330360e-32 -1.224647e-16 1.000000e+00
    outer loop
      vertex   -9.999995e-01 -2.950075e+01 -9.184851e-20
      vertex   1.475000e+01 -2.950000e+01 1.456003e-30
      vertex   -9.999995e-01 -5.000000e+00 3.000385e-15
    endloop
  endfacet
  facet normal -3.862709e-32 -1.224647e-16 1.000000e+00
    outer loop
      vertex   1.475000e+01 -5.000749e+00 3.000293e-15
      vertex   -9.999995e-01 -5.000000e+00 3.000385e-15
      vertex   1.475000e+01 -2.950000e+01 1.456003e-30
    endloop
  endfacet
  facet normal -3.862890e-32 -1.224647e-16 1.000000e+00
    outer loop
      vertex   -9.999995e-01 -5.000000e+00 3.000385e-15
      vertex   1.475000e+01 -5.000749e+00 3.000293e-15
      vertex   -9.999995e-01 1.950000e+01 6.000769e-15
    endloop
  endfacet
  facet normal 1.187176e-32 -1.224647e-16 1.000000e+00
    outer loop
      vertex   1.475000e+01 1.949925e+01 6.000677e-15
      vertex   -9.999995e-01 1.950000e+01 6.000769e-15
      vertex   1.475000e+01 -5.000749e+00 3.000293e-15
    endloop
  endfacet
  facet normal 1.187077e-32 -1.224647e-16 1.000000e+00
    outer loop
      vertex   -9.999995e-01 1.950000e+01 6.000769e-15
      vertex   1.475000e+01 1.949925e+01 6.000677e-15
      vertex   -9.999995e-01 4.400000e+01 9.001154e-15
    endloop
  endfacet
  facet normal -1.392159e-31 -1.224647e-16 1.000000e+00
    outer loop
      vertex   1.475000e+01 4.399925e+01 9.001063e-15
      vertex   -9.999995e-01 4.400000e+01 9.001154e-15
      vertex   1.475000e+01 1.949925e+01 6.000677e-15
    endloop
  endfacet
  facet normal -1.392150e-31 -1.224647e-16 1.000000e+00
    outer loop
      vertex   -9.999995e-01 4.400000e+01 9.001154e-15
      vertex   1.475000e+01 4.399925e+01 9.001063e-15
      vertex   -9.999995e-01 6.850000e+01 1.200154e-14
    endloop
  endfacet
  facet normal 1.819625e-31 -1.224647e-16 1.000000e+00
    outer loop
      vertex   1.475000e+01 6.849925e+01 1.200145e-14
      vertex   -9.999995e-01 6.850000e+01 1.200154e-14
      vertex   1.475000e+01 4.399925e+01 9.001063e-15
    endloop
  endfacet
  facet normal 1.692225e-32 -1.224647e-16 1.000000e+00
    outer loop
      vertex   1.475000e+01 -2.950000e+01 1.456003e-30
      vertex   3.050000e+01 -2.950075e+01 -9.184851e-20
      vertex   1.475000e+01 -5.000749e+00 3.000293e-15
    endloop
  endfacet
  facet normal 2.307102e-32 -1.224647e-16 1.000000e+00
    outer loop
      vertex   3.050000e+01 -5.000000e+00 3.000385e-15
      vertex   1.475000e+01 -5.000749e+00 3.000293e-15
      vertex   3.050000e+01 -2.950075e+01 -9.184851e-20
    endloop
  endfacet
  facet normal 2.307073e-32 -1.224647e-16 1.000000e+00
    outer loop
      vertex   1.475000e+01 -5.000749e+00 3.000293e-15
      vertex   3.050000e+01 -5.000000e+00 3.000385e-15
      vertex   1.475000e+01 1.949925e+01 6.000677e-15
    endloop
  endfacet
  facet normal 2.091559e-32 -1.224647e-16 1.000000e+00
    outer loop
      vertex   3.050000e+01 1.950000e+01 6.000769e-15
      vertex   1.475000e+01 1.949925e+01 6.000677e-15
      vertex   3.050000e+01 -5.000000e+00 3.000385e-15
    endloop
  endfacet
  facet normal 2.092057e-32 -1.224647e-16 1.000000e+00
    outer loop
      vertex   1.475000e+01 1.949925e+01 6.000677e-15
      vertex   3.050000e+01 1.950000e+01 6.000769e-15
      vertex   1.475000e+01 4.399925e+01 9.001063e-15
    endloop
  endfacet
  facet normal 9.429033e-32 -1.224647e-16 1.000000e+00
    outer loop
      vertex   3.050000e+01 4.400000e+01 9.001154e-15
      vertex   1.475000e+01 4.399925e+01 9.001063e-15
      vertex   3.050000e+01 1.950000e+01 6.000769e-15
    endloop
  endfacet
  facet normal 9.428035e-32 -1.224647e-16 1.000000e+00
    outer loop
      vertex   1.475000e+01 4.399925e+01 9.001063e-15
      vertex   3.050000e+01 4.400000e+01 9.001154e-15
      vertex   1.475000e+01 6.849925e+01 1.200145e-14
    endloop
  endfacet
  facet normal -6.113664e-32 -1.224647e-16 1.000000e+00
    outer loop
      vertex   3.050000e+01 6.850000e+01 1.200154e-14
      vertex   1.475000e+01 6.849925e+01 1.200145e-14
      vertex   3.050000e+01 4.400000e+01 9.001154e-15
    endloop
  endfacet
  facet normal 0.000000e+00 0.000000e+00 -1.000000e+00
    outer loop
      vertex   -3.250000e+01 -5.000000e+00 -6.800000e+01
      vertex   -1.675000e+01 -2.950000e+01 -6.800000e+01
      vertex   -3.250000e+01 -2.950000e+01 -6.800000e+01
    endloop
  endfacet
  facet normal 0.000000e+00 0.000000e+00 -1.000000e+00
    outer loop
      vertex   -1.675000e+01 -2.950000e+01 -6.800000e+01
      vertex   -3.250000e+01 -5.000000e+00 -6.800000e+01
      vertex   -1.675000e+01 -5.000000e+00 -6.800000e+01
    endloop
  endfacet
  facet normal -1.308380e-31 5.800349e-16 -1.000000e+00
    outer loop
      vertex   -3.250000e+01 1.950000e+01 -6.800000e+01
      vertex   -1.675000e+01 -5.000000e+00 -6.800000e+01
      vertex   -3.250000e+01 -5.000000e+00 -6.800000e+01
    endloop
  endfacet
  facet normal 0.000000e+00 5.800349e-16 -1.000000e+00
    outer loop
      vertex   -1.675000e+01 -5.000000e+00 -6.800000e+01
      vertex   -3.250000e+01 1.950000e+01 -6.800000e+01
      vertex   -1.675000e+01 1.950000e+01 -6.800000e+01
    endloop
  endfacet
  facet normal 0.000000e+00 0.000000e+00 -1.000000e+00
    outer loop
      vertex   -3.250000e+01 4.400000e+01 -6.800000e+01
      vertex   -1.675000e+01 1.950000e+01 -6.800000e+01
      vertex   -3.250000e+01 1.950000e+01 -6.800000e+01
    endloop
  endfacet
  facet normal 0.000000e+00 0.000000e+00 -1.000000e+00
    outer loop
      vertex   -1.675000e+01 1.950000e+01 -6.800000e+01
      vertex   -3.250000e+01 4.400000e+01 -6.800000e+01
      vertex   -1.675000e+01 4.400000e+01 -6.800000e+01
    endloop
  endfacet
  facet normal 0.000000e+00 0.000000e+00 -1.000000e+00
    outer loop
      vertex   -3.250000e+01 6.850000e+01 -6.800000e+01
      vertex   -1.675000e+01 4.400000e+01 -6.800000e+01
      vertex   -3.250000e+01 4.400000e+01 -6.800000e+01
    endloop
  endfacet
  facet normal 0.000000e+00 0.000000e+00 -1.000000e+00
    outer loop
      vertex   -1.675000e+01 4.400000e+01 -6.800000e+01
      vertex   -3.250000e+01 6.850000e+01 -6.800000e+01
      vertex   -1.675000e+01 6.850000e+01 -6.800000e+01
    endloop
  endfacet
  facet normal 0.000000e+00 0.000000e+00 -1.000000e+00
    outer loop
      vertex   -1.675000e+01 -5.000000e+00 -6.800000e+01
      vertex   -9.999995e-01 -2.950000e+01 -6.800000e+01
      vertex   -1.675000e+01 -2.950000e+01 -6.800000e+01
    endloop
  endfacet
  facet normal 0.000000e+00 0.000000e+00 -1.000000e+00
    outer loop
      vertex   -9.999995e-01 -2.950000e+01 -6.800000e+01
      vertex   -1.675000e+01 -5.000000e+00 -6.800000e+01
      vertex   -9.999995e-01 -5.000000e+00 -6.800000e+01
    endloop
  endfacet
  facet normal -1.308380e-31 5.800349e-16 -1.000000e+00
    outer loop
      vertex   -1.675000e+01 1.950000e+01 -6.800000e+01
      vertex   -9.999995e-01 -5.000000e+00 -6.800000e+01
      vertex   -1.675000e+01 -5.000000e+00 -6.800000e+01
    endloop
  endfacet
  facet normal -3.925139e-31 5.800349e-16 -1.000000e+00
    outer loop
      vertex   -9.999995e-01 -5.000000e+00 -6.800000e+01
      vertex   -1.675000e+01 1.950000e+01 -6.800000e+01
      vertex   -9.999995e-01 1.950000e+01 -6.800000e+01
    endloop
  endfacet
  facet normal 0.000000e+00 0.000000e+00 -1.000000e+00
    outer loop
      vertex   -1.675000e+01 4.400000e+01 -6.800000e+01
      vertex   -9.999995e-01 1.950000e+01 -6.800000e+01
      vertex   -1.675000e+01 1.950000e+01 -6.800000e+01
    endloop
  endfacet
  facet normal 0.000000e+00 0.000000e+00 -1.000000e+00
    outer loop
      vertex   -9.999995e-01 1.950000e+01 -6.800000e+01
      vertex   -1.675000e+01 4.400000e+01 -6.800000e+01
      vertex   -9.999995e-01 4.400000e+01 -6.800000e+01
    endloop
  endfacet
  facet normal 0.000000e+00 0.000000e+00 -1.000000e+00
    outer loop
      vertex   -1.675000e+01 6.850000e+01 -6.800000e+01
      vertex   -9.999995e-01 4.400000e+01 -6.800000e+01
      vertex   -1.675000e+01 4.400000e+01 -6.800000e+01
    endloop
  endfacet
  facet normal 0.000000e+00 0.000000e+00 -1.000000e+00
    outer loop
      vertex   -9.999995e-01 4.400000e+01 -6.800000e+01
      vertex   -1.675000e+01 6.850000e+01 -6.800000e+01
      vertex   -9.999995e-01 6.850000e+01 -6.800000e+01
    endloop
  endfacet
  facet normal 0.000000e+00 0.000000e+00 -1.000000e+00
    outer loop
      vertex   -9.999995e-01 -5.000000e+00 -6.800000e+01
      vertex   1.475000e+01 -2.950000e+01 -6.800000e+01
      vertex   -9.999995e-01 -2.950000e+01 -6.800000e+01
    endloop
  endfacet
  facet normal 0.000000e+00 0.000000e+00 -1.000000e+00
    outer loop
      vertex   1.475000e+01 -2.950000e+01 -6.800000e+01
      vertex   -9.999995e-01 -5.000000e+00 -6.800000e+01
      vertex   1.475000e+01 -5.000000e+00 -6.800000e+01
    endloop
  endfacet
  facet normal 0.000000e+00 5.800349e-16 -1.000000e+00
    outer loop
      vertex   -9.999995e-01 1.950000e+01 -6.800000e+01
      vertex   1.475000e+01 -5.000000e+00 -6.800000e+01
      vertex   -9.999995e-01 -5.000000e+00 -6.800000e+01
    endloop
  endfacet
  facet normal 0.000000e+00 5.800349e-16 -1.000000e+00
    outer loop
      vertex   1.475000e+01 -5.000000e+00 -6.800000e+01
      vertex   -9.999995e-01 1.950000e+01 -6.800000e+01
      vertex   1.475000e+01 1.950000e+01 -6.800000e+01
    endloop
  endfacet
  facet normal 0.000000e+00 0.000000e+00 -1.000000e+00
    outer loop
      vertex   -9.999995e-01 4.400000e+01 -6.800000e+01
      vertex   1.475000e+01 1.950000e+01 -6.800000e+01
      vertex   -9.999995e-01 1.950000e+01 -6.800000e+01
    endloop
  endfacet
  facet normal 0.000000e+00 0.000000e+00 -1.000000e+00
    outer loop
      vertex   1.475000e+01 1.950000e+01 -6.800000e+01
      vertex   -9.999995e-01 4.400000e+01 -6.800000e+01
      vertex   1.475000e+01 4.400000e+01 -6.800000e+01
    endloop
  endfacet
  facet normal 0.000000e+00 0.000000e+00 -1.000000e+00
    outer loop
      vertex   -9.999995e-01 6.850000e+01 -6.800000e+01
      vertex   1.475000e+01 4.400000e+01 -6.800000e+01
      vertex   -9.999995e-01 4.400000e+01 -6.800000e+01
    endloop
  endfacet
  facet normal 0.000000e+00 0.000000e+00 -1.000000e+00
    outer loop
      vertex   1.475000e+01 4.400000e+01 -6.800000e+01
      vertex   -9.999995e-01 6.850000e+01 -6.800000e+01
      vertex   1.475000e+01 6.850000e+01 -6.800000e+01
    endloop
  endfacet
  facet normal 0.000000e+00 0.000000e+00 -1.000000e+00
    outer loop
      vertex   1.475000e+01 -5.000000e+00 -6.800000e+01
      vertex   3.050000e+01 -2.950000e+01 -6.800000e+01
      vertex   1.475000e+01 -2.950000e+01 -6.800000e+01
    endloop
  endfacet
  facet normal 0.000000e+00 0.000000e+00 -1.000000e+00
    outer loop
      vertex   3.050000e+01 -2.950000e+01 -6.800000e+01
      vertex   1.475000e+01 -5.000000e+00 -6.800000e+01
      vertex   3.050000e+01 -5.000000e+00 -6.800000e+01
    endloop
  endfacet
  facet normal -1.308380e-31 5.800349e-16 -1.000000e+00
    outer loop
      vertex   1.475000e+01 1.950000e+01 -6.800000e+01
      vertex   3.050000e+01 -5.000000e+00 -6.800000e+01
      vertex   1.475000e+01 -5.000000e+00 -6.800000e+01
    endloop
  endfacet
  facet normal -2.616759e-31 5.800349e-16 -1.000000e+00
    outer loop
      vertex   3.050000e+01 -5.000000e+00 -6.800000e+01
      vertex   1.475000e+01 1.950000e+01 -6.800000e+01
      vertex   3.050000e+01 1.950000e+01 -6.800000e+01
    endloop
  endfacet
  facet normal 0.000000e+00 0.000000e+00 -1.000000e+00
    outer loop
      vertex   1.475000e+01 4.400000e+01 -6.800000e+01
      vertex   3.050000e+01 1.950000e+01 -6.800000e+01
      vertex   1.475000e+01 1.950000e+01 -6.800000e+01
    endloop
  endfacet
  facet normal 0.000000e+00 0.000000e+00 -1.000000e+00
    outer loop
      vertex   3.050000e+01 1.950000e+01 -6.800000e+01
      vertex   1.475000e+01 4.400000e+01 -6.800000e+01
      vertex   3.050000e+01 4.400000e+01 -6.800000e+01
    endloop
  endfacet
  facet normal 0.000000e+00 0.000000e+00 -1.000000e+00
    outer loop
      vertex   1.475000e+01 6.850000e+01 -6.800000e+01
      vertex   3.050000e+01 4.400000e+01 -6.800000e+01
      vertex   1.475000e+01 4.400000e+01 -6.800000e+01
    endloop
  endfacet
  facet normal 0.000000e+00 0.000000e+00 -1.000000e+00
    outer loop
      vertex   3.050000e+01 4.400000e+01 -6.800000e+01
      vertex   1.475000e+01 6.850000e+01 -6.800000e+01
      vertex   3.050000e+01 6.850000e+01 -6.800000e+01
    endloop
  endfacet
  facet normal -1.000000e+00 -3.061225e-05 0.000000e+00
    outer loop
      vertex   -3.250075e+01 -5.000000e+00 3.000385e-15
      vertex   -3.250000e+01 -2.950000e+01 -1.700000e+01
      vertex   -3.250000e+01 -2.950000e+01 0.000000e+00
    endloop
  endfacet
  facet normal -1.000000e+00 -2.900110e-16 -4.411765e-05
    outer loop
      vertex   -3.250000e+01 -2.950000e+01 -1.700000e+01
      vertex   -3.250075e+01 -5.000000e+00 3.000385e-15
      vertex   -3.250000e+01 -5.000000e+00 -1.700000e+01
    endloop
  endfacet
  facet normal -1.000000e+00 -2.900174e-16 -6.060876e-32
    outer loop
      vertex   -3.250000e+01 -5.000000e+00 -1.700000e+01
      vertex   -3.250000e+01 -2.950000e+01 -3.400000e+01
      vertex   -3.250000e+01 -2.950000e+01 -1.700000e+01
    endloop
  endfacet
  facet normal -1.000000e+00 -2.900174e-16 -6.060876e-32
    outer loop
      vertex   -3.250000e+01 -2.950000e+01 -3.400000e+01
      vertex   -3.250000e+01 -5.000000e+00 -1.700000e+01
      vertex   -3.250000e+01 -5.000000e+00 -3.400000e+01
    endloop
  endfacet
  facet normal -1.000000e+00 -2.900174e-16 0.000000e+00
    outer loop
      vertex   -3.250000e+01 -5.000000e+00 -3.400000e+01
      vertex   -3.250000e+01 -2.950000e+01 -5.100000e+01
      vertex   -3.250000e+01 -2.950000e+01 -3.400000e+01
    endloop
  endfacet
  facet normal -1.000000e+00 -2.900174e-16 0.000000e+00
    outer loop
      vertex   -3.250000e+01 -2.950000e+01 -5.100000e+01
      vertex   -3.250000e+01 -5.000000e+00 -3.400000e+01
      vertex   -3.250000e+01 -5.000000e+00 -5.100000e+01
    endloop
  endfacet
  facet normal -1.000000e+00 -2.900174e-16 -6.060876e-32
    outer loop
      vertex   -3.250000e+01 -5.000000e+00 -5.100000e+01
      vertex   -3.250000e+01 -2.950000e+01 -6.800000e+01
      vertex   -3.250000e+01 -2.950000e+01 -5.100000e+01
    endloop
  endfacet
  facet normal -1.000000e+00 -2.900174e-16 -6.060876e-32
    outer loop
      vertex   -3.250000e+01 -2.950000e+01 -6.800000e+01
      vertex   -3.250000e+01 -5.000000e+00 -5.100000e+01
      vertex   -3.250000e+01 -5.000000e+00 -6.800000e+01
    endloop
  endfacet
  facet normal -1.000000e+00 3.061225e-05 -4.411765e-05
    outer loop
      vertex   -3.250000e+01 1.950000e+01 6.000769e-15
      vertex   -3.250000e+01 -5.000000e+00 -1.700000e+01
      vertex   -3.250075e+01 -5.000000e+00 3.000385e-15
    endloop
  endfacet
  facet normal -1.000000e+00 0.000000e+00 0.000000e+00
    outer loop
      vertex   -3.250000e+01 -5.000000e+00 -1.700000e+01
      vertex   -3.250000e+01 1.950000e+01 6.000769e-15
      vertex   -3.250000e+01 1.950000e+01 -1.700000e+01
    endloop
  endfacet
  facet normal -1.000000e+00 0.000000e+00 0.000000e+00
    outer loop
      vertex   -3.250000e+01 1.950000e+01 -1.700000e+01
      vertex   -3.250000e+01 -5.000000e+00 -3.400000e+01
      vertex   -3.250000e+01 -5.000000e+00 -1.700000e+01
    endloop
  endfacet
  facet normal -1.000000e+00 0.000000e+00 0.000000e+00
    outer loop
      vertex   -3.250000e+01 -5.000000e+00 -3.400000e+01
      vertex   -3.250000e+01 1.950000e+01 -1.700000e+01
      vertex   -3.250000e+01 1.950000e+01 -3.400000e+01
    endloop
  endfacet
  facet normal -1.000000e+00 -0.000000e+00 0.000000e+00
    outer loop
      vertex   -3.250000e+01 1.950000e+01 -3.400000e+01
      vertex   -3.250000e+01 -5.000000e+00 -5.100000e+01
      vertex   -3.250000e+01 -5.000000e+00 -3.400000e+01
    endloop
  endfacet
  facet normal -1.000000e+00 0.000000e+00 0.000000e+00
    outer loop
      vertex   -3.250000e+01 -5.000000e+00 -5.100000e+01
      vertex   -3.250000e+01 1.950000e+01 -3.400000e+01
      vertex   -3.250000e+01 1.950000e+01 -5.100000e+01
    endloop
  endfacet
  facet normal -1.000000e+00 0.000000e+00 0.000000e+00
    outer loop
      vertex   -3.250000e+01 1.950000e+01 -5.100000e+01
      vertex   -3.250000e+01 -5.000000e+00 -6.800000e+01
      vertex   -3.250000e+01 -5.000000e+00 -5.100000e+01
    endloop
  endfacet
  facet normal -1.000000e+00 0.000000e+00 0.000000e+00
    outer loop
      vertex   -3.250000e+01 -5.000000e+00 -6.800000e+01
      vertex   -3.250000e+01 1.950000e+01 -5.100000e+01
      vertex   -3.250000e+01 1.950000e+01 -6.800000e+01
    endloop
  endfacet
  facet normal -1.000000e+00 -2.900174e-16 0.000000e+00
    outer loop
      vertex   -3.250000e+01 4.400000e+01 9.001154e-15
      vertex   -3.250000e+01 1.950000e+01 -1.700000e+01
      vertex   -3.250000e+01 1.950000e+01 6.000769e-15
    endloop
  endfacet
  facet normal -1.000000e+00 -2.900174e-16 0.000000e+00
    outer loop
      vertex   -3.250000e+01 1.950000e+01 -1.700000e+01
      vertex   -3.250000e+01 4.400000e+01 9.001154e-15
      vertex   -3.250000e+01 4.400000e+01 -1.700000e+01
    endloop
  endfacet
  facet normal -1.000000e+00 -2.900174e-16 0.000000e+00
    outer loop
      vertex   -3.250000e+01 4.400000e+01 -1.700000e+01
      vertex   -3.250000e+01 1.950000e+01 -3.400000e+01
      vertex   -3.250000e+01 1.950000e+01 -1.700000e+01
    endloop
  endfacet
  facet normal -1.000000e+00 -2.900174e-16 0.000000e+00
    outer loop
      vertex   -3.250000e+01 1.950000e+01 -3.400000e+01
      vertex   -3.250000e+01 4.400000e+01 -1.700000e+01
      vertex   -3.250000e+01 4.400000e+01 -3.400000e+01
    endloop
  endfacet
  facet normal -1.000000e+00 -2.900174e-16 -1.818263e-31
    outer loop
      vertex   -3.250000e+01 4.400000e+01 -3.400000e+01
      vertex   -3.250000e+01 1.950000e+01 -5.100000e+01
      vertex   -3.250000e+01 1.950000e+01 -3.400000e+01
    endloop
  endfacet
  facet normal -1.000000e+00 -2.900174e-16 -2.424350e-31
    outer loop
      vertex   -3.250000e+01 1.950000e+01 -5.100000e+01
      vertex   -3.250000e+01 4.400000e+01 -3.400000e+01
      vertex   -3.250000e+01 4.400000e+01 -5.100000e+01
    endloop
  endfacet
  facet normal -1.000000e+00 -2.900174e-16 0.000000e+00
    outer loop
      vertex   -3.250000e+01 4.400000e+01 -5.100000e+01
      vertex   -3.250000e+01 1.950000e+01 -6.800000e+01
      vertex   -3.250000e+01 1.950000e+01 -5.100000e+01
    endloop
  endfacet
  facet normal -1.000000e+00 -2.900174e-16 0.000000e+00
    outer loop
      vertex   -3.250000e+01 1.950000e+01 -6.800000e+01
      vertex   -3.250000e+01 4.400000e+01 -5.100000e+01
      vertex   -3.250000e+01 4.400000e+01 -6.800000e+01
    endloop
  endfacet
  facet normal -1.000000e+00 -2.900174e-16 0.000000e+00
    outer loop
      vertex   -3.250000e+01 6.850000e+01 1.200154e-14
      vertex   -3.250000e+01 4.400000e+01 -1.700000e+01
      vertex   -3.250000e+01 4.400000e+01 9.001154e-15
    endloop
  endfacet
  facet normal -1.000000e+00 -2.900263e-16 1.275571e-20
    outer loop
      vertex   -3.250000e+01 4.400000e+01 -1.700000e+01
      vertex   -3.250000e+01 6.850000e+01 1.200154e-14
      vertex   -3.250000e+01 6.849925e+01 -1.700000e+01
    endloop
  endfacet
  facet normal -1.000000e+00 -2.900263e-16 0.000000e+00
    outer loop
      vertex   -3.250000e+01 6.849925e+01 -1.700000e+01
      vertex   -3.250000e+01 4.400000e+01 -3.400000e+01
      vertex   -3.250000e+01 4.400000e+01 -1.700000e+01
    endloop
  endfacet
  facet normal -1.000000e+00 -2.900174e-16 -1.275532e-20
    outer loop
      vertex   -3.250000e+01 4.400000e+01 -3.400000e+01
      vertex   -3.250000e+01 6.849925e+01 -1.700000e+01
      vertex   -3.250000e+01 6.850000e+01 -3.400000e+01
    endloop
  endfacet
  facet normal -1.000000e+00 -2.900174e-16 -2.424350e-31
    outer loop
      vertex   -3.250000e+01 6.850000e+01 -3.400000e+01
      vertex   -3.250000e+01 4.400000e+01 -5.100000e+01
      vertex   -3.250000e+01 4.400000e+01 -3.400000e+01
    endloop
  endfacet
  facet normal -1.000000e+00 -2.900174e-16 0.000000e+00
    outer loop
      vertex   -3.250000e+01 4.400000e+01 -5.100000e+01
      vertex   -3.250000e+01 6.850000e+01 -3.400000e+01
      vertex   -3.250000e+01 6.850000e+01 -5.100000e+01
    endloop
  endfacet
  facet normal -1.000000e+00 -2.900174e-16 0.000000e+00
    outer loop
      vertex   -3.250000e+01 6.850000e+01 -5.100000e+01
      vertex   -3.250000e+01 4.400000e+01 -6.800000e+01
      vertex   -3.250000e+01 4.400000e+01 -5.100000e+01
    endloop
  endfacet
  facet normal -1.000000e+00 -2.900174e-16 0.000000e+00
    outer loop
      vertex   -3.250000e+01 4.400000e+01 -6.800000e+01
      vertex   -3.250000e+01 6.850000e+01 -5.100000e+01
      vertex   -3.250000e+01 6.850000e+01 -6.800000e+01
    endloop
  endfacet
  facet normal 1.000000e+00 4.350128e-16 1.919174e-20
    outer loop
      vertex   3.050000e+01 -2.950075e+01 -9.184851e-20
      vertex   3.050000e+01 -2.950000e+01 -1.700000e+01
      vertex   3.050000e+01 -5.000000e+00 3.000385e-15
    endloop
  endfacet
  facet normal 1.000000e+00 4.350395e-16 -1.918237e-20
    outer loop
      vertex   3.050000e+01 -5.000749e+00 -1.700000e+01
      vertex   3.050000e+01 -5.000000e+00 3.000385e-15
      vertex   3.050000e+01 -2.950000e+01 -1.700000e+01
    endloop
  endfacet
  facet normal 1.000000e+00 4.350395e-16 -1.919292e-20
    outer loop
      vertex   3.050000e+01 -2.950000e+01 -1.700000e+01
      vertex   3.050000e+01 -2.950075e+01 -3.400000e+01
      vertex   3.050000e+01 -5.000749e+00 -1.700000e+01
    endloop
  endfacet
  facet normal 1.000000e+00 4.350128e-16 1.918120e-20
    outer loop
      vertex   3.050000e+01 -5.000000e+00 -3.400000e+01
      vertex   3.050000e+01 -5.000749e+00 -1.700000e+01
      vertex   3.050000e+01 -2.950075e+01 -3.400000e+01
    endloop
  endfacet
  facet normal 1.000000e+00 4.350128e-16 1.919174e-20
    outer loop
      vertex   3.050000e+01 -2.950075e+01 -3.400000e+01
      vertex   3.050000e+01 -2.950000e+01 -5.100000e+01
      vertex   3.050000e+01 -5.000000e+00 -3.400000e+01
    endloop
  endfacet
  facet normal 1.000000e+00 4.350395e-16 -1.918322e-20
    outer loop
      vertex   3.050000e+01 -5.000749e+00 -5.099925e+01
      vertex   3.050000e+01 -5.000000e+00 -3.400000e+01
      vertex   3.050000e+01 -2.950000e+01 -5.100000e+01
    endloop
  endfacet
  facet normal 1.000000e+00 4.350395e-16 0.000000e+00
    outer loop
      vertex   3.050000e+01 -2.950000e+01 -5.100000e+01
      vertex   3.050000e+01 -2.950000e+01 -6.800000e+01
      vertex   3.050000e+01 -5.000749e+00 -5.099925e+01
    endloop
  endfacet
  facet normal 1.000000e+00 4.350262e-16 1.918094e-20
    outer loop
      vertex   3.050000e+01 -5.000000e+00 -6.800000e+01
      vertex   3.050000e+01 -5.000749e+00 -5.099925e+01
      vertex   3.050000e+01 -2.950000e+01 -6.800000e+01
    endloop
  endfacet
  facet normal 1.000000e+00 -0.000000e+00 0.000000e+00
    outer loop
      vertex   3.050000e+01 -5.000000e+00 3.000385e-15
      vertex   3.050000e+01 -5.000749e+00 -1.700000e+01
      vertex   3.050000e+01 1.950000e+01 6.000769e-15
    endloop
  endfacet
  facet normal 1.000000e+00 0.000000e+00 -0.000000e+00
    outer loop
      vertex   3.050000e+01 1.949925e+01 -1.700000e+01
      vertex   3.050000e+01 1.950000e+01 6.000769e-15
      vertex   3.050000e+01 -5.000749e+00 -1.700000e+01
    endloop
  endfacet
  facet normal 1.000000e+00 -0.000000e+00 0.000000e+00
    outer loop
      vertex   3.050000e+01 -5.000749e+00 -1.700000e+01
      vertex   3.050000e+01 -5.000000e+00 -3.400000e+01
      vertex   3.050000e+01 1.949925e+01 -1.700000e+01
    endloop
  endfacet
  facet normal 1.000000e+00 0.000000e+00 0.000000e+00
    outer loop
      vertex   3.050000e+01 1.950000e+01 -3.400000e+01
      vertex   3.050000e+01 1.949925e+01 -1.700000e+01
      vertex   3.050000e+01 -5.000000e+00 -3.400000e+01
    endloop
  endfacet
  facet normal 1.000000e+00 -0.000000e+00 0.000000e+00
    outer loop
      vertex   3.050000e+01 -5.000000e+00 -3.400000e+01
      vertex   3.050000e+01 -5.000749e+00 -5.099925e+01
      vertex   3.050000e+01 1.950000e+01 -3.400000e+01
    endloop
  endfacet
  facet normal 1.000000e+00 0.000000e+00 -0.000000e+00
    outer loop
      vertex   3.050000e+01 1.949925e+01 -5.100000e+01
      vertex   3.050000e+01 1.950000e+01 -3.400000e+01
      vertex   3.050000e+01 -5.000749e+00 -5.099925e+01
    endloop
  endfacet
  facet normal 1.000000e+00 0.000000e+00 0.000000e+00
    outer loop
      vertex   3.050000e+01 -5.000749e+00 -5.099925e+01
      vertex   3.050000e+01 -5.000000e+00 -6.800000e+01
      vertex   3.050000e+01 1.949925e+01 -5.100000e+01
    endloop
  endfacet
  facet normal 1.000000e+00 0.000000e+00 0.000000e+00
    outer loop
      vertex   3.050000e+01 1.950000e+01 -6.800000e+01
      vertex   3.050000e+01 1.949925e+01 -5.100000e+01
      vertex   3.050000e+01 -5.000000e+00 -6.800000e+01
    endloop
  endfacet
  facet normal 1.000000e+00 2.900174e-16 -1.282040e-20
    outer loop
      vertex   3.050000e+01 1.950000e+01 6.000769e-15
      vertex   3.050000e+01 1.949925e+01 -1.700000e+01
      vertex   3.050000e+01 4.400000e+01 9.001154e-15
    endloop
  endfacet
  facet normal 1.000000e+00 2.900174e-16 -1.275532e-20
    outer loop
      vertex   3.050000e+01 4.399925e+01 -1.700000e+01
      vertex   3.050000e+01 4.400000e+01 9.001154e-15
      vertex   3.050000e+01 1.949925e+01 -1.700000e+01
    endloop
  endfacet
  facet normal 1.000000e+00 2.900174e-16 1.282040e-20
    outer loop
      vertex   3.050000e+01 1.949925e+01 -1.700000e+01
      vertex   3.050000e+01 1.950000e+01 -3.400000e+01
      vertex   3.050000e+01 4.399925e+01 -1.700000e+01
    endloop
  endfacet
  facet normal 1.000000e+00 2.900174e-16 1.275532e-20
    outer loop
      vertex   3.050000e+01 4.400000e+01 -3.400000e+01
      vertex   3.050000e+01 4.399925e+01 -1.700000e+01
      vertex   3.050000e+01 1.950000e+01 -3.400000e+01
    endloop
  endfacet
  facet normal 1.000000e+00 2.900174e-16 -1.282040e-20
    outer loop
      vertex   3.050000e+01 1.950000e+01 -3.400000e+01
      vertex   3.050000e+01 1.949925e+01 -5.100000e+01
      vertex   3.050000e+01 4.400000e+01 -3.400000e+01
    endloop
  endfacet
  facet normal 1.000000e+00 2.900174e-16 -1.275532e-20
    outer loop
      vertex   3.050000e+01 4.399925e+01 -5.100000e+01
      vertex   3.050000e+01 4.400000e+01 -3.400000e+01
      vertex   3.050000e+01 1.949925e+01 -5.100000e+01
    endloop
  endfacet
  facet normal 1.000000e+00 2.900174e-16 1.282040e-20
    outer loop
      vertex   3.050000e+01 1.949925e+01 -5.100000e+01
      vertex   3.050000e+01 1.950000e+01 -6.800000e+01
      vertex   3.050000e+01 4.399925e+01 -5.100000e+01
    endloop
  endfacet
  facet normal 1.000000e+00 2.900174e-16 1.275532e-20
    outer loop
      vertex   3.050000e+01 4.400000e+01 -6.800000e+01
      vertex   3.050000e+01 4.399925e+01 -5.100000e+01
      vertex   3.050000e+01 1.950000e+01 -6.800000e+01
    endloop
  endfacet
  facet normal 1.000000e+00 -0.000000e+00 0.000000e+00
    outer loop
      vertex   3.050000e+01 4.400000e+01 9.001154e-15
      vertex   3.050000e+01 4.399925e+01 -1.700000e+01
      vertex   3.050000e+01 6.850000e+01 1.200154e-14
    endloop
  endfacet
  facet normal 1.000000e+00 0.000000e+00 -0.000000e+00
    outer loop
      vertex   3.050000e+01 6.849925e+01 -1.700000e+01
      vertex   3.050000e+01 6.850000e+01 1.200154e-14
      vertex   3.050000e+01 4.399925e+01 -1.700000e+01
    endloop
  endfacet
  facet normal 1.000000e+00 -0.000000e+00 0.000000e+00
    outer loop
      vertex   3.050000e+01 4.399925e+01 -1.700000e+01
      vertex   3.050000e+01 4.400000e+01 -3.400000e+01
      vertex   3.050000e+01 6.849925e+01 -1.700000e+01
    endloop
  endfacet
  facet normal 1.000000e+00 0.000000e+00 0.000000e+00
    outer loop
      vertex   3.050000e+01 6.850000e+01 -3.400000e+01
      vertex   3.050000e+01 6.849925e+01 -1.700000e+01
      vertex   3.050000e+01 4.400000e+01 -3.400000e+01
    endloop
  endfacet
  facet normal 1.000000e+00 -0.000000e+00 0.000000e+00
    outer loop
      vertex   3.050000e+01 4.400000e+01 -3.400000e+01
      vertex   3.050000e+01 4.399925e+01 -5.100000e+01
      vertex   3.050000e+01 6.850000e+01 -3.400000e+01
    endloop
  endfacet
  facet normal 1.000000e+00 3.067328e-05 -4.420696e-05
    outer loop
      vertex   3.049925e+01 6.849925e+01 -5.100000e+01
      vertex   3.050000e+01 6.850000e+01 -3.400000e+01
      vertex   3.050000e+01 4.399925e+01 -5.100000e+01
    endloop
  endfacet
  facet normal 1.000000e+00 3.067328e-05 1.349048e-09
    outer loop
      vertex   3.050000e+01 4.399925e+01 -5.100000e+01
      vertex   3.050000e+01 4.400000e+01 -6.800000e+01
      vertex   3.049925e+01 6.849925e+01 -5.100000e+01
    endloop
  endfacet
  facet normal 1.000000e+00 0.000000e+00 4.420561e-05
    outer loop
      vertex   3.050000e+01 6.850000e+01 -6.800000e+01
      vertex   3.049925e+01 6.849925e+01 -5.100000e+01
      vertex   3.050000e+01 4.400000e+01 -6.800000e+01
    endloop
  endfacet
  facet normal 2.255691e-16 -1.000000e+00 0.000000e+00
    outer loop
      vertex   -3.250000e+01 -2.950000e+01 -1.700000e+01
      vertex   -1.675000e+01 -2.950000e+01 4.853343e-31
      vertex   -3.250000e+01 -2.950000e+01 0.000000e+00
    endloop
  endfacet
  facet normal 2.255691e-16 -1.000000e+00 0.000000e+00
    outer loop
      vertex   -1.675000e+01 -2.950000e+01 4.853343e-31
      vertex   -3.250000e+01 -2.950000e+01 -1.700000e+01
      vertex   -1.675000e+01 -2.950000e+01 -1.700000e+01
    endloop
  endfacet
  facet normal -4.761905e-05 -1.000000e+00 0.000000e+00
    outer loop
      vertex   -1.675000e+01 -2.950000e+01 -1.700000e+01
      vertex   -9.999995e-01 -2.950075e+01 -9.184851e-20
      vertex   -1.675000e+01 -2.950000e+01 4.853343e-31
    endloop
  endfacet
  facet normal 2.255691e-16 -1.000000e+00 -4.411765e-05
    outer loop
      vertex   -9.999995e-01 -2.950075e+01 -9.184851e-20
      vertex   -1.675000e+01 -2.950000e+01 -1.700000e+01
      vertex   -9.999995e-01 -2.950000e+01 -1.700000e+01
    endloop
  endfacet
  facet normal 4.761905e-05 -1.000000e+00 -4.411765e-05
    outer loop
      vertex   -9.999995e-01 -2.950000e+01 -1.700000e+01
      vertex   1.475000e+01 -2.950000e+01 1.456003e-30
      vertex   -9.999995e-01 -2.950075e+01 -9.184851e-20
    endloop
  endfacet
  facet normal 2.255691e-16 -1.000000e+00 -2.089832e-16
    outer loop
      vertex   1.475000e+01 -2.950000e+01 1.456003e-30
      vertex   -9.999995e-01 -2.950000e+01 -1.700000e+01
      vertex   1.475000e+01 -2.950000e+01 -1.700000e+01
    endloop
  endfacet
  facet normal -4.761905e-05 -1.000000e+00 -2.089832e-16
    outer loop
      vertex   1.475000e+01 -2.950000e+01 -1.700000e+01
      vertex   3.050000e+01 -2.950075e+01 -9.184851e-20
      vertex   1.475000e+01 -2.950000e+01 1.456003e-30
    endloop
  endfacet
  facet normal 2.255691e-16 -1.000000e+00 -4.411765e-05
    outer loop
      vertex   3.050000e+01 -2.950075e+01 -9.184851e-20
      vertex   1.475000e+01 -2.950000e+01 -1.700000e+01
      vertex   3.050000e+01 -2.950000e+01 -1.700000e+01
    endloop
  endfacet
  facet normal 2.255691e-16 -1.000000e+00 -2.089832e-16
    outer loop
      vertex   -3.250000e+01 -2.950000e+01 -3.400000e+01
      vertex   -1.675000e+01 -2.950000e+01 -1.700000e+01
      vertex   -3.250000e+01 -2.950000e+01 -1.700000e+01
    endloop
  endfacet
  facet normal 2.255691e-16 -1.000000e+00 -2.089832e-16
    outer loop
      vertex   -1.675000e+01 -2.950000e+01 -1.700000e+01
      vertex   -3.250000e+01 -2.950000e+01 -3.400000e+01
      vertex   -1.675000e+01 -2.950000e+01 -3.400000e+01
    endloop
  endfacet
  facet normal 2.255691e-16 -1.000000e+00 -2.089832e-16
    outer loop
      vertex   -1.675000e+01 -2.950000e+01 -3.400000e+01
      vertex   -9.999995e-01 -2.950000e+01 -1.700000e+01
      vertex   -1.675000e+01 -2.950000e+01 -1.700000e+01
    endloop
  endfacet
  facet normal 2.255691e-16 -1.000000e+00 -2.089832e-16
    outer loop
      vertex   -9.999995e-01 -2.950000e+01 -1.700000e+01
      vertex   -1.675000e+01 -2.950000e+01 -3.400000e+01
      vertex   -9.999995e-01 -2.950000e+01 -3.400000e+01
    endloop
  endfacet
  facet normal 2.255691e-16 -1.000000e+00 -2.089832e-16
    outer loop
      vertex   -9.999995e-01 -2.950000e+01 -3.400000e+01
      vertex   1.475000e+01 -2.950000e+01 -1.700000e+01
      vertex   -9.999995e-01 -2.950000e+01 -1.700000e+01
    endloop
  endfacet
  facet normal 0.000000e+00 -1.000000e+00 -0.000000e+00
    outer loop
      vertex   1.475000e+01 -2.950000e+01 -1.700000e+01
      vertex   -9.999995e-01 -2.950000e+01 -3.400000e+01
      vertex   1.475000e+01 -2.950000e+01 -3.400000e+01
    endloop
  endfacet
  facet normal 2.255691e-16 -1.000000e+00 0.000000e+00
    outer loop
      vertex   1.475000e+01 -2.950000e+01 -3.400000e+01
      vertex   3.050000e+01 -2.950000e+01 -1.700000e+01
      vertex   1.475000e+01 -2.950000e+01 -1.700000e+01
    endloop
  endfacet
  facet normal -4.761905e-05 -1.000000e+00 4.411765e-05
    outer loop
      vertex   3.050000e+01 -2.950000e+01 -1.700000e+01
      vertex   1.475000e+01 -2.950000e+01 -3.400000e+01
      vertex   3.050000e+01 -2.950075e+01 -3.400000e+01
    endloop
  endfacet
  facet normal 2.255691e-16 -1.000000e+00 0.000000e+00
    outer loop
      vertex   -3.250000e+01 -2.950000e+01 -5.100000e+01
      vertex   -1.675000e+01 -2.950000e+01 -3.400000e+01
      vertex   -3.250000e+01 -2.950000e+01 -3.400000e+01
    endloop
  endfacet
  facet normal 2.255691e-16 -1.000000e+00 0.000000e+00
    outer loop
      vertex   -1.675000e+01 -2.950000e+01 -3.400000e+01
      vertex   -3.250000e+01 -2.950000e+01 -5.100000e+01
      vertex   -1.675000e+01 -2.950000e+01 -5.100000e+01
    endloop
  endfacet
  facet normal 2.255691e-16 -1.000000e+00 0.000000e+00
    outer loop
      vertex   -1.675000e+01 -2.950000e+01 -5.100000e+01
      vertex   -9.999995e-01 -2.950000e+01 -3.400000e+01
      vertex   -1.675000e+01 -2.950000e+01 -3.400000e+01
    endloop
  endfacet
  facet normal 2.255691e-16 -1.000000e+00 0.000000e+00
    outer loop
      vertex   -9.999995e-01 -2.950000e+01 -3.400000e+01
      vertex   -1.675000e+01 -2.950000e+01 -5.100000e+01
      vertex   -9.999995e-01 -2.950000e+01 -5.100000e+01
    endloop
  endfacet
  facet normal 0.000000e+00 -1.000000e+00 0.000000e+00
    outer loop
      vertex   -9.999995e-01 -2.950000e+01 -5.100000e+01
      vertex   1.475000e+01 -2.950000e+01 -3.400000e+01
      vertex   -9.999995e-01 -2.950000e+01 -3.400000e+01
    endloop
  endfacet
  facet normal 2.255691e-16 -1.000000e+00 -2.089832e-16
    outer loop
      vertex   1.475000e+01 -2.950000e+01 -3.400000e+01
      vertex   -9.999995e-01 -2.950000e+01 -5.100000e+01
      vertex   1.475000e+01 -2.950000e+01 -5.100000e+01
    endloop
  endfacet
  facet normal -4.761905e-05 -1.000000e+00 -2.089832e-16
    outer loop
      vertex   1.475000e+01 -2.950000e+01 -5.100000e+01
      vertex   3.050000e+01 -2.950075e+01 -3.400000e+01
      vertex   1.475000e+01 -2.950000e+01 -3.400000e+01
    endloop
  endfacet
  facet normal 4.511382e-16 -1.000000e+00 -4.411765e-05
    outer loop
      vertex   3.050000e+01 -2.950075e+01 -3.400000e+01
      vertex   1.475000e+01 -2.950000e+01 -5.100000e+01
      vertex   3.050000e+01 -2.950000e+01 -5.100000e+01
    endloop
  endfacet
  facet normal 2.255691e-16 -1.000000e+00 -2.089832e-16
    outer loop
      vertex   -3.250000e+01 -2.950000e+01 -6.800000e+01
      vertex   -1.675000e+01 -2.950000e+01 -5.100000e+01
      vertex   -3.250000e+01 -2.950000e+01 -5.100000e+01
    endloop
  endfacet
  facet normal 2.255691e-16 -1.000000e+00 -2.089832e-16
    outer loop
      vertex   -1.675000e+01 -2.950000e+01 -5.100000e+01
      vertex   -3.250000e+01 -2.950000e+01 -6.800000e+01
      vertex   -1.675000e+01 -2.950000e+01 -6.800000e+01
    endloop
  endfacet
  facet normal 2.255691e-16 -1.000000e+00 -2.089832e-16
    outer loop
      vertex   -1.675000e+01 -2.950000e+01 -6.800000e+01
      vertex   -9.999995e-01 -2.950000e+01 -5.100000e+01
      vertex   -1.675000e+01 -2.950000e+01 -5.100000e+01
    endloop
  endfacet
  facet normal 0.000000e+00 -1.000000e+00 -0.000000e+00
    outer loop
      vertex   -9.999995e-01 -2.950000e+01 -5.100000e+01
      vertex   -1.675000e+01 -2.950000e+01 -6.800000e+01
      vertex   -9.999995e-01 -2.950000e+01 -6.800000e+01
    endloop
  endfacet
  facet normal 2.255691e-16 -1.000000e+00 0.000000e+00
    outer loop
      vertex   -9.999995e-01 -2.950000e+01 -6.800000e+01
      vertex   1.475000e+01 -2.950000e+01 -5.100000e+01
      vertex   -9.999995e-01 -2.950000e+01 -5.100000e+01
    endloop
  endfacet
  facet normal 2.255691e-16 -1.000000e+00 0.000000e+00
    outer loop
      vertex   1.475000e+01 -2.950000e+01 -5.100000e+01
      vertex   -9.999995e-01 -2.950000e+01 -6.800000e+01
      vertex   1.475000e+01 -2.950000e+01 -6.800000e+01
    endloop
  endfacet
  facet normal 4.511382e-16 -1.000000e+00 0.000000e+00
    outer loop
      vertex   1.475000e+01 -2.950000e+01 -6.800000e+01
      vertex   3.050000e+01 -2.950000e+01 -5.100000e+01
      vertex   1.475000e+01 -2.950000e+01 -5.100000e+01
    endloop
  endfacet
  facet normal 4.511382e-16 -1.000000e+00 0.000000e+00
    outer loop
      vertex   3.050000e+01 -2.950000e+01 -5.100000e+01
      vertex   1.475000e+01 -2.950000e+01 -6.800000e+01
      vertex   3.050000e+01 -2.950000e+01 -6.800000e+01
    endloop
  endfacet
  facet normal 4.747179e-05 1.000000e+00 -4.398122e-05
    outer loop
      vertex   -3.250000e+01 6.850000e+01 1.200154e-14
      vertex   -1.675000e+01 6.849925e+01 1.200145e-14
      vertex   -3.250000e+01 6.849925e+01 -1.700000e+01
    endloop
  endfacet
  facet normal -4.747179e-05 1.000000e+00 4.398122e-05
    outer loop
      vertex   -1.675000e+01 6.850000e+01 -1.700000e+01
      vertex   -3.250000e+01 6.849925e+01 -1.700000e+01
      vertex   -1.675000e+01 6.849925e+01 1.200145e-14
    endloop
  endfacet
  facet normal -4.747179e-05 1.000000e+00 4.398122e-05
    outer loop
      vertex   -1.675000e+01 6.849925e+01 1.200145e-14
      vertex   -9.999995e-01 6.850000e+01 1.200154e-14
      vertex   -1.675000e+01 6.850000e+01 -1.700000e+01
    endloop
  endfacet
  facet normal 4.747179e-05 1.000000e+00 -4.398122e-05
    outer loop
      vertex   -9.999995e-01 6.849925e+01 -1.700000e+01
      vertex   -1.675000e+01 6.850000e+01 -1.700000e+01
      vertex   -9.999995e-01 6.850000e+01 1.200154e-14
    endloop
  endfacet
  facet normal 4.747179e-05 1.000000e+00 -4.398122e-05
    outer loop
      vertex   -9.999995e-01 6.850000e+01 1.200154e-14
      vertex   1.475000e+01 6.849925e+01 1.200145e-14
      vertex   -9.999995e-01 6.849925e+01 -1.700000e+01
    endloop
  endfacet
  facet normal -4.747179e-05 1.000000e+00 4.398122e-05
    outer loop
      vertex   1.475000e+01 6.850000e+01 -1.700000e+01
      vertex   -9.999995e-01 6.849925e+01 -1.700000e+01
      vertex   1.475000e+01 6.849925e+01 1.200145e-14
    endloop
  endfacet
  facet normal -4.747179e-05 1.000000e+00 4.398122e-05
    outer loop
      vertex   1.475000e+01 6.849925e+01 1.200145e-14
      vertex   3.050000e+01 6.850000e+01 1.200154e-14
      vertex   1.475000e+01 6.850000e+01 -1.700000e+01
    endloop
  endfacet
  facet normal 4.747179e-05 1.000000e+00 -4.398122e-05
    outer loop
      vertex   3.050000e+01 6.849925e+01 -1.700000e+01
      vertex   1.475000e+01 6.850000e+01 -1.700000e+01
      vertex   3.050000e+01 6.850000e+01 1.200154e-14
    endloop
  endfacet
  facet normal -4.747179e-05 1.000000e+00 4.398122e-05
    outer loop
      vertex   -3.250000e+01 6.849925e+01 -1.700000e+01
      vertex   -1.675000e+01 6.850000e+01 -1.700000e+01
      vertex   -3.250000e+01 6.850000e+01 -3.400000e+01
    endloop
  endfacet
  facet normal 4.747389e-05 1.000000e+00 -4.398316e-05
    outer loop
      vertex   -1.675000e+01 6.849925e+01 -3.399925e+01
      vertex   -3.250000e+01 6.850000e+01 -3.400000e+01
      vertex   -1.675000e+01 6.850000e+01 -1.700000e+01
    endloop
  endfacet
  facet normal 4.747179e-05 1.000000e+00 -4.398316e-05
    outer loop
      vertex   -1.675000e+01 6.850000e+01 -1.700000e+01
      vertex   -9.999995e-01 6.849925e+01 -1.700000e+01
      vertex   -1.675000e+01 6.849925e+01 -3.399925e+01
    endloop
  endfacet
  facet normal -4.746969e-05 1.000000e+00 4.398122e-05
    outer loop
      vertex   -9.999995e-01 6.850000e+01 -3.400000e+01
      vertex   -1.675000e+01 6.849925e+01 -3.399925e+01
      vertex   -9.999995e-01 6.849925e+01 -1.700000e+01
    endloop
  endfacet
  facet normal -4.747179e-05 1.000000e+00 4.398122e-05
    outer loop
      vertex   -9.999995e-01 6.849925e+01 -1.700000e+01
      vertex   1.475000e+01 6.850000e+01 -1.700000e+01
      vertex   -9.999995e-01 6.850000e+01 -3.400000e+01
    endloop
  endfacet
  facet normal 4.747179e-05 1.000000e+00 -4.398122e-05
    outer loop
      vertex   1.475000e+01 6.849925e+01 -3.400000e+01
      vertex   -9.999995e-01 6.850000e+01 -3.400000e+01
      vertex   1.475000e+01 6.850000e+01 -1.700000e+01
    endloop
  endfacet
  facet normal 4.747179e-05 1.000000e+00 -4.398122e-05
    outer loop
      vertex   1.475000e+01 6.850000e+01 -1.700000e+01
      vertex   3.050000e+01 6.849925e+01 -1.700000e+01
      vertex   1.475000e+01 6.849925e+01 -3.400000e+01
    endloop
  endfacet
  facet normal -4.747179e-05 1.000000e+00 4.398122e-05
    outer loop
      vertex   3.050000e+01 6.850000e+01 -3.400000e+01
      vertex   1.475000e+01 6.849925e+01 -3.400000e+01
      vertex   3.050000e+01 6.849925e+01 -1.700000e+01
    endloop
  endfacet
  facet normal 4.747179e-05 1.000000e+00 0.000000e+00
    outer loop
      vertex   -3.250000e+01 6.850000e+01 -3.400000e+01
      vertex   -1.675000e+01 6.849925e+01 -3.399925e+01
      vertex   -3.250000e+01 6.850000e+01 -5.100000e+01
    endloop
  endfacet
  facet normal -2.098619e-09 1.000000e+00 4.398122e-05
    outer loop
      vertex   -1.675075e+01 6.850000e+01 -5.099925e+01
      vertex   -3.250000e+01 6.850000e+01 -5.100000e+01
      vertex   -1.675000e+01 6.849925e+01 -3.399925e+01
    endloop
  endfacet
  facet normal -4.746969e-05 1.000000e+00 4.398331e-05
    outer loop
      vertex   -1.675000e+01 6.849925e+01 -3.399925e+01
      vertex   -9.999995e-01 6.850000e+01 -3.400000e+01
      vertex   -1.675075e+01 6.850000e+01 -5.099925e+01
    endloop
  endfacet
  facet normal 0.000000e+00 1.000000e+00 -0.000000e+00
    outer loop
      vertex   -1.000749e+00 6.850000e+01 -5.100000e+01
      vertex   -1.675075e+01 6.850000e+01 -5.099925e+01
      vertex   -9.999995e-01 6.850000e+01 -3.400000e+01
    endloop
  endfacet
  facet normal 4.747179e-05 1.000000e+00 -2.093193e-09
    outer loop
      vertex   -9.999995e-01 6.850000e+01 -3.400000e+01
      vertex   1.475000e+01 6.849925e+01 -3.400000e+01
      vertex   -1.000749e+00 6.850000e+01 -5.100000e+01
    endloop
  endfacet
  facet normal -1.804553e-15 1.000000e+00 4.398122e-05
    outer loop
      vertex   1.474925e+01 6.850000e+01 -5.100000e+01
      vertex   -1.000749e+00 6.850000e+01 -5.100000e+01
      vertex   1.475000e+01 6.849925e+01 -3.400000e+01
    endloop
  endfacet
  facet normal -4.747179e-05 1.000000e+00 4.398331e-05
    outer loop
      vertex   1.475000e+01 6.849925e+01 -3.400000e+01
      vertex   3.050000e+01 6.850000e+01 -3.400000e+01
      vertex   1.474925e+01 6.850000e+01 -5.100000e+01
    endloop
  endfacet
  facet normal 4.747179e-05 1.000000e+00 -4.398331e-05
    outer loop
      vertex   3.049925e+01 6.849925e+01 -5.100000e+01
      vertex   1.474925e+01 6.850000e+01 -5.100000e+01
      vertex   3.050000e+01 6.850000e+01 -3.400000e+01
    endloop
  endfacet
  facet normal -0.000000e+00 1.000000e+00 0.000000e+00
    outer loop
      vertex   -3.250000e+01 6.850000e+01 -5.100000e+01
      vertex   -1.675075e+01 6.850000e+01 -5.099925e+01
      vertex   -3.250000e+01 6.850000e+01 -6.800000e+01
    endloop
  endfacet
  facet normal 0.000000e+00 1.000000e+00 0.000000e+00
    outer loop
      vertex   -1.675000e+01 6.850000e+01 -6.800000e+01
      vertex   -3.250000e+01 6.850000e+01 -6.800000e+01
      vertex   -1.675075e+01 6.850000e+01 -5.099925e+01
    endloop
  endfacet
  facet normal 0.000000e+00 1.000000e+00 0.000000e+00
    outer loop
      vertex   -1.675075e+01 6.850000e+01 -5.099925e+01
      vertex   -1.000749e+00 6.850000e+01 -5.100000e+01
      vertex   -1.675000e+01 6.850000e+01 -6.800000e+01
    endloop
  endfacet
  facet normal 0.000000e+00 1.000000e+00 0.000000e+00
    outer loop
      vertex   -9.999995e-01 6.850000e+01 -6.800000e+01
      vertex   -1.675000e+01 6.850000e+01 -6.800000e+01
      vertex   -1.000749e+00 6.850000e+01 -5.100000e+01
    endloop
  endfacet
  facet normal -1.804553e-15 1.000000e+00 -7.956891e-20
    outer loop
      vertex   -1.000749e+00 6.850000e+01 -5.100000e+01
      vertex   1.474925e+01 6.850000e+01 -5.100000e+01
      vertex   -9.999995e-01 6.850000e+01 -6.800000e+01
    endloop
  endfacet
  facet normal -1.804553e-15 1.000000e+00 -7.977136e-20
    outer loop
      vertex   1.475000e+01 6.850000e+01 -6.800000e+01
      vertex   -9.999995e-01 6.850000e+01 -6.800000e+01
      vertex   1.474925e+01 6.850000e+01 -5.100000e+01
    endloop
  endfacet
  facet normal 4.747179e-05 1.000000e+00 2.098519e-09
    outer loop
      vertex   1.474925e+01 6.850000e+01 -5.100000e+01
      vertex   3.049925e+01 6.849925e+01 -5.100000e+01
      vertex   1.475000e+01 6.850000e+01 -6.800000e+01
    endloop
  endfacet
  facet normal 0.000000e+00 1.000000e+00 4.398122e-05
    outer loop
      vertex   3.050000e+01 6.850000e+01 -6.800000e+01
      vertex   1.475000e+01 6.850000e+01 -6.800000e+01
      vertex   3.049925e+01 6.849925e+01 -5.100000e+01
    endloop
  endfacet
endsolid
