solid ASCII
  facet normal 0.000000e+00 -1.000000e+00 0.000000e+00
    outer loop
      vertex   -3.050000e-02 -6.850000e-02 -6.800000e-02
      vertex   3.250000e-02 -6.850000e-02 -6.800000e-02
      vertex   -3.050000e-02 -6.850000e-02 0.000000e+00
    endloop
  endfacet
  facet normal -0.000000e+00 -1.000000e+00 -0.000000e+00
    outer loop
      vertex   3.250000e-02 -6.850000e-02 0.000000e+00
      vertex   -3.050000e-02 -6.850000e-02 0.000000e+00
      vertex   3.250000e-02 -6.850000e-02 -6.800000e-02
    endloop
  endfacet
  facet normal 1.101412e-16 1.000000e+00 -0.000000e+00
    outer loop
      vertex   3.250000e-02 2.950000e-02 -6.800000e-02
      vertex   -3.050000e-02 2.950000e-02 -6.800000e-02
      vertex   3.250000e-02 2.950000e-02 0.000000e+00
    endloop
  endfacet
  facet normal 1.190023e-05 1.000000e+00 -1.102521e-05
    outer loop
      vertex   -3.050000e-02 2.950075e-02 0.000000e+00
      vertex   3.250000e-02 2.950000e-02 0.000000e+00
      vertex   -3.050000e-02 2.950000e-02 -6.800000e-02
    endloop
  endfacet
  facet normal -1.000000e+00 1.062067e-16 0.000000e+00
    outer loop
      vertex   -3.050000e-02 2.950075e-02 0.000000e+00
      vertex   -3.050000e-02 -6.850000e-02 -6.800000e-02
      vertex   -3.050000e-02 -6.850000e-02 0.000000e+00
    endloop
  endfacet
  facet normal -1.000000e+00 4.751646e-08 -6.848012e-08
    outer loop
      vertex   -3.050000e-02 -6.850000e-02 -6.800000e-02
      vertex   -3.050000e-02 2.950075e-02 0.000000e+00
      vertex   -3.050000e-02 2.950000e-02 -6.800000e-02
    endloop
  endfacet
  facet normal 1.000000e+00 -1.416101e-16 0.000000e+00
    outer loop
      vertex   3.250000e-02 2.950000e-02 -6.800000e-02
      vertex   3.250000e-02 -6.850000e-02 0.000000e+00
      vertex   3.250000e-02 -6.850000e-02 -6.800000e-02
    endloop
  endfacet
  facet normal 1.000000e+00 -1.416101e-16 0.000000e+00
    outer loop
      vertex   3.250000e-02 2.950000e-02 0.000000e+00
      vertex   3.250000e-02 -6.850000e-02 0.000000e+00
      vertex   3.250000e-02 2.950000e-02 -6.800000e-02
    endloop
  endfacet
  facet normal 0.000000e+00 0.000000e+00 -1.000000e+00
    outer loop
      vertex   3.250000e-02 -6.850000e-02 -6.800000e-02
      vertex   -3.050000e-02 -6.850000e-02 -6.800000e-02
      vertex   3.250000e-02 2.950000e-02 -6.800000e-02
    endloop
  endfacet
  facet normal 0.000000e+00 -0.000000e+00 -1.000000e+00
    outer loop
      vertex   -3.050000e-02 2.950000e-02 -6.800000e-02
      vertex   3.250000e-02 2.950000e-02 -6.800000e-02
      vertex   -3.050000e-02 -6.850000e-02 -6.800000e-02
    endloop
  endfacet
  facet normal 0.000000e+00 0.000000e+00 1.000000e+00
    outer loop
      vertex   -3.050000e-02 -6.850000e-02 0.000000e+00
      vertex   3.250000e-02 -6.850000e-02 0.000000e+00
      vertex   -3.050000e-02 2.950075e-02 0.000000e+00
    endloop
  endfacet
  facet normal 0.000000e+00 0.000000e+00 1.000000e+00
    outer loop
      vertex   3.250000e-02 2.950000e-02 0.000000e+00
      vertex   -3.050000e-02 2.950075e-02 0.000000e+00
      vertex   3.250000e-02 -6.850000e-02 0.000000e+00
    endloop
  endfacet
endsolid
