solid ASCII
  facet normal 0.000000e+00 0.000000e+00 -1.000000e+00
    outer loop
      vertex   -2.000000e+01 -2.100000e+01 -1.640000e+02
      vertex   -2.000000e+01 -4.250000e+00 -1.640000e+02
      vertex   -7.750000e+00 -2.100075e+01 -1.640000e+02
    endloop
  endfacet
  facet normal -0.000000e+00 -0.000000e+00 -1.000000e+00
    outer loop
      vertex   -7.750749e+00 -4.250000e+00 -1.640000e+02
      vertex   -7.750000e+00 -2.100075e+01 -1.640000e+02
      vertex   -2.000000e+01 -4.250000e+00 -1.640000e+02
    endloop
  endfacet
  facet normal 0.000000e+00 0.000000e+00 -1.000000e+00
    outer loop
      vertex   -7.750000e+00 -2.100075e+01 -1.640000e+02
      vertex   -7.750749e+00 -4.250000e+00 -1.640000e+02
      vertex   4.500000e+00 -2.100000e+01 -1.640000e+02
    endloop
  endfacet
  facet normal -0.000000e+00 -0.000000e+00 -1.000000e+00
    outer loop
      vertex   4.499251e+00 -4.250000e+00 -1.640000e+02
      vertex   4.500000e+00 -2.100000e+01 -1.640000e+02
      vertex   -7.750749e+00 -4.250000e+00 -1.640000e+02
    endloop
  endfacet
  facet normal 0.000000e+00 0.000000e+00 -1.000000e+00
    outer loop
      vertex   4.500000e+00 -2.100000e+01 -1.640000e+02
      vertex   4.499251e+00 -4.250000e+00 -1.640000e+02
      vertex   1.675000e+01 -2.100000e+01 -1.640000e+02
    endloop
  endfacet
  facet normal -0.000000e+00 -0.000000e+00 -1.000000e+00
    outer loop
      vertex   1.674925e+01 -4.250000e+00 -1.640000e+02
      vertex   1.675000e+01 -2.100000e+01 -1.640000e+02
      vertex   4.499251e+00 -4.250000e+00 -1.640000e+02
    endloop
  endfacet
  facet normal 0.000000e+00 0.000000e+00 -1.000000e+00
    outer loop
      vertex   1.675000e+01 -2.100000e+01 -1.640000e+02
      vertex   1.674925e+01 -4.250000e+00 -1.640000e+02
      vertex   2.900000e+01 -2.100000e+01 -1.640000e+02
    endloop
  endfacet
  facet normal -0.000000e+00 -0.000000e+00 -1.000000e+00
    outer loop
      vertex   2.899925e+01 -4.250000e+00 -1.640000e+02
      vertex   2.900000e+01 -2.100000e+01 -1.640000e+02
      vertex   1.674925e+01 -4.250000e+00 -1.640000e+02
    endloop
  endfacet
  facet normal 0.000000e+00 0.000000e+00 -1.000000e+00
    outer loop
      vertex   -2.000000e+01 -4.250000e+00 -1.640000e+02
      vertex   -2.000075e+01 1.250000e+01 -1.640000e+02
      vertex   -7.750749e+00 -4.250000e+00 -1.640000e+02
    endloop
  endfacet
  facet normal -0.000000e+00 0.000000e+00 -1.000000e+00
    outer loop
      vertex   -7.750000e+00 1.250000e+01 -1.640000e+02
      vertex   -7.750749e+00 -4.250000e+00 -1.640000e+02
      vertex   -2.000075e+01 1.250000e+01 -1.640000e+02
    endloop
  endfacet
  facet normal 0.000000e+00 0.000000e+00 -1.000000e+00
    outer loop
      vertex   -7.750749e+00 -4.250000e+00 -1.640000e+02
      vertex   -7.750000e+00 1.250000e+01 -1.640000e+02
      vertex   4.499251e+00 -4.250000e+00 -1.640000e+02
    endloop
  endfacet
  facet normal -0.000000e+00 0.000000e+00 -1.000000e+00
    outer loop
      vertex   4.500000e+00 1.250000e+01 -1.640000e+02
      vertex   4.499251e+00 -4.250000e+00 -1.640000e+02
      vertex   -7.750000e+00 1.250000e+01 -1.640000e+02
    endloop
  endfacet
  facet normal 0.000000e+00 0.000000e+00 -1.000000e+00
    outer loop
      vertex   4.499251e+00 -4.250000e+00 -1.640000e+02
      vertex   4.500000e+00 1.250000e+01 -1.640000e+02
      vertex   1.674925e+01 -4.250000e+00 -1.640000e+02
    endloop
  endfacet
  facet normal -0.000000e+00 0.000000e+00 -1.000000e+00
    outer loop
      vertex   1.675000e+01 1.250000e+01 -1.640000e+02
      vertex   1.674925e+01 -4.250000e+00 -1.640000e+02
      vertex   4.500000e+00 1.250000e+01 -1.640000e+02
    endloop
  endfacet
  facet normal 0.000000e+00 0.000000e+00 -1.000000e+00
    outer loop
      vertex   1.674925e+01 -4.250000e+00 -1.640000e+02
      vertex   1.675000e+01 1.250000e+01 -1.640000e+02
      vertex   2.899925e+01 -4.250000e+00 -1.640000e+02
    endloop
  endfacet
  facet normal -0.000000e+00 0.000000e+00 -1.000000e+00
    outer loop
      vertex   2.900000e+01 1.250000e+01 -1.640000e+02
      vertex   2.899925e+01 -4.250000e+00 -1.640000e+02
      vertex   1.675000e+01 1.250000e+01 -1.640000e+02
    endloop
  endfacet
  facet normal 0.000000e+00 0.000000e+00 -1.000000e+00
    outer loop
      vertex   -2.000075e+01 1.250000e+01 -1.640000e+02
      vertex   -2.000000e+01 2.925000e+01 -1.640000e+02
      vertex   -7.750000e+00 1.250000e+01 -1.640000e+02
    endloop
  endfacet
  facet normal -0.000000e+00 -0.000000e+00 -1.000000e+00
    outer loop
      vertex   -7.750749e+00 2.925000e+01 -1.640000e+02
      vertex   -7.750000e+00 1.250000e+01 -1.640000e+02
      vertex   -2.000000e+01 2.925000e+01 -1.640000e+02
    endloop
  endfacet
  facet normal 0.000000e+00 0.000000e+00 -1.000000e+00
    outer loop
      vertex   -7.750000e+00 1.250000e+01 -1.640000e+02
      vertex   -7.750749e+00 2.925000e+01 -1.640000e+02
      vertex   4.500000e+00 1.250000e+01 -1.640000e+02
    endloop
  endfacet
  facet normal -0.000000e+00 -0.000000e+00 -1.000000e+00
    outer loop
      vertex   4.499251e+00 2.925000e+01 -1.640000e+02
      vertex   4.500000e+00 1.250000e+01 -1.640000e+02
      vertex   -7.750749e+00 2.925000e+01 -1.640000e+02
    endloop
  endfacet
  facet normal 0.000000e+00 0.000000e+00 -1.000000e+00
    outer loop
      vertex   4.500000e+00 1.250000e+01 -1.640000e+02
      vertex   4.499251e+00 2.925000e+01 -1.640000e+02
      vertex   1.675000e+01 1.250000e+01 -1.640000e+02
    endloop
  endfacet
  facet normal -0.000000e+00 -0.000000e+00 -1.000000e+00
    outer loop
      vertex   1.674925e+01 2.925000e+01 -1.640000e+02
      vertex   1.675000e+01 1.250000e+01 -1.640000e+02
      vertex   4.499251e+00 2.925000e+01 -1.640000e+02
    endloop
  endfacet
  facet normal 0.000000e+00 0.000000e+00 -1.000000e+00
    outer loop
      vertex   1.675000e+01 1.250000e+01 -1.640000e+02
      vertex   1.674925e+01 2.925000e+01 -1.640000e+02
      vertex   2.900000e+01 1.250000e+01 -1.640000e+02
    endloop
  endfacet
  facet normal -0.000000e+00 -0.000000e+00 -1.000000e+00
    outer loop
      vertex   2.899925e+01 2.925000e+01 -1.640000e+02
      vertex   2.900000e+01 1.250000e+01 -1.640000e+02
      vertex   1.674925e+01 2.925000e+01 -1.640000e+02
    endloop
  endfacet
  facet normal 0.000000e+00 0.000000e+00 -1.000000e+00
    outer loop
      vertex   -2.000000e+01 2.925000e+01 -1.640000e+02
      vertex   -2.000075e+01 4.600000e+01 -1.640000e+02
      vertex   -7.750749e+00 2.925000e+01 -1.640000e+02
    endloop
  endfacet
  facet normal -0.000000e+00 0.000000e+00 -1.000000e+00
    outer loop
      vertex   -7.750000e+00 4.600000e+01 -1.640000e+02
      vertex   -7.750749e+00 2.925000e+01 -1.640000e+02
      vertex   -2.000075e+01 4.600000e+01 -1.640000e+02
    endloop
  endfacet
  facet normal 0.000000e+00 0.000000e+00 -1.000000e+00
    outer loop
      vertex   -7.750749e+00 2.925000e+01 -1.640000e+02
      vertex   -7.750000e+00 4.600000e+01 -1.640000e+02
      vertex   4.499251e+00 2.925000e+01 -1.640000e+02
    endloop
  endfacet
  facet normal -0.000000e+00 0.000000e+00 -1.000000e+00
    outer loop
      vertex   4.500000e+00 4.600000e+01 -1.640000e+02
      vertex   4.499251e+00 2.925000e+01 -1.640000e+02
      vertex   -7.750000e+00 4.600000e+01 -1.640000e+02
    endloop
  endfacet
  facet normal 0.000000e+00 0.000000e+00 -1.000000e+00
    outer loop
      vertex   4.499251e+00 2.925000e+01 -1.640000e+02
      vertex   4.500000e+00 4.600000e+01 -1.640000e+02
      vertex   1.674925e+01 2.925000e+01 -1.640000e+02
    endloop
  endfacet
  facet normal -0.000000e+00 0.000000e+00 -1.000000e+00
    outer loop
      vertex   1.675000e+01 4.600000e+01 -1.640000e+02
      vertex   1.674925e+01 2.925000e+01 -1.640000e+02
      vertex   4.500000e+00 4.600000e+01 -1.640000e+02
    endloop
  endfacet
  facet normal 0.000000e+00 0.000000e+00 -1.000000e+00
    outer loop
      vertex   1.674925e+01 2.925000e+01 -1.640000e+02
      vertex   1.675000e+01 4.600000e+01 -1.640000e+02
      vertex   2.899925e+01 2.925000e+01 -1.640000e+02
    endloop
  endfacet
  facet normal -0.000000e+00 0.000000e+00 -1.000000e+00
    outer loop
      vertex   2.900000e+01 4.600000e+01 -1.640000e+02
      vertex   2.899925e+01 2.925000e+01 -1.640000e+02
      vertex   1.675000e+01 4.600000e+01 -1.640000e+02
    endloop
  endfacet
  facet normal 0.000000e+00 0.000000e+00 1.000000e+00
    outer loop
      vertex   -7.750000e+00 -2.100000e+01 2.443790e-06
      vertex   -2.000000e+01 -4.250000e+00 2.443790e-06
      vertex   -2.000000e+01 -2.100000e+01 2.443790e-06
    endloop
  endfacet
  facet normal -0.000000e+00 0.000000e+00 1.000000e+00
    outer loop
      vertex   -2.000000e+01 -4.250000e+00 2.443790e-06
      vertex   -7.750000e+00 -2.100000e+01 2.443790e-06
      vertex   -7.750000e+00 -4.250000e+00 2.443790e-06
    endloop
  endfacet
  facet normal 0.000000e+00 0.000000e+00 1.000000e+00
    outer loop
      vertex   4.500000e+00 -2.100000e+01 2.443790e-06
      vertex   -7.750000e+00 -4.250000e+00 2.443790e-06
      vertex   -7.750000e+00 -2.100000e+01 2.443790e-06
    endloop
  endfacet
  facet normal -0.000000e+00 0.000000e+00 1.000000e+00
    outer loop
      vertex   -7.750000e+00 -4.250000e+00 2.443790e-06
      vertex   4.500000e+00 -2.100000e+01 2.443790e-06
      vertex   4.500000e+00 -4.250000e+00 2.443790e-06
    endloop
  endfacet
  facet normal 0.000000e+00 0.000000e+00 1.000000e+00
    outer loop
      vertex   1.675000e+01 -2.100000e+01 2.443790e-06
      vertex   4.500000e+00 -4.250000e+00 2.443790e-06
      vertex   4.500000e+00 -2.100000e+01 2.443790e-06
    endloop
  endfacet
  facet normal -0.000000e+00 0.000000e+00 1.000000e+00
    outer loop
      vertex   4.500000e+00 -4.250000e+00 2.443790e-06
      vertex   1.675000e+01 -2.100000e+01 2.443790e-06
      vertex   1.675000e+01 -4.250000e+00 2.443790e-06
    endloop
  endfacet
  facet normal 0.000000e+00 0.000000e+00 1.000000e+00
    outer loop
      vertex   2.900000e+01 -2.100000e+01 2.443790e-06
      vertex   1.675000e+01 -4.250000e+00 2.443790e-06
      vertex   1.675000e+01 -2.100000e+01 2.443790e-06
    endloop
  endfacet
  facet normal -0.000000e+00 0.000000e+00 1.000000e+00
    outer loop
      vertex   1.675000e+01 -4.250000e+00 2.443790e-06
      vertex   2.900000e+01 -2.100000e+01 2.443790e-06
      vertex   2.900000e+01 -4.250000e+00 2.443790e-06
    endloop
  endfacet
  facet normal 0.000000e+00 0.000000e+00 1.000000e+00
    outer loop
      vertex   -7.750000e+00 -4.250000e+00 2.443790e-06
      vertex   -2.000000e+01 1.250000e+01 2.443790e-06
      vertex   -2.000000e+01 -4.250000e+00 2.443790e-06
    endloop
  endfacet
  facet normal -0.000000e+00 0.000000e+00 1.000000e+00
    outer loop
      vertex   -2.000000e+01 1.250000e+01 2.443790e-06
      vertex   -7.750000e+00 -4.250000e+00 2.443790e-06
      vertex   -7.750000e+00 1.250000e+01 2.443790e-06
    endloop
  endfacet
  facet normal 0.000000e+00 0.000000e+00 1.000000e+00
    outer loop
      vertex   4.500000e+00 -4.250000e+00 2.443790e-06
      vertex   -7.750000e+00 1.250000e+01 2.443790e-06
      vertex   -7.750000e+00 -4.250000e+00 2.443790e-06
    endloop
  endfacet
  facet normal -0.000000e+00 0.000000e+00 1.000000e+00
    outer loop
      vertex   -7.750000e+00 1.250000e+01 2.443790e-06
      vertex   4.500000e+00 -4.250000e+00 2.443790e-06
      vertex   4.500000e+00 1.250000e+01 2.443790e-06
    endloop
  endfacet
  facet normal 0.000000e+00 0.000000e+00 1.000000e+00
    outer loop
      vertex   1.675000e+01 -4.250000e+00 2.443790e-06
      vertex   4.500000e+00 1.250000e+01 2.443790e-06
      vertex   4.500000e+00 -4.250000e+00 2.443790e-06
    endloop
  endfacet
  facet normal -0.000000e+00 0.000000e+00 1.000000e+00
    outer loop
      vertex   4.500000e+00 1.250000e+01 2.443790e-06
      vertex   1.675000e+01 -4.250000e+00 2.443790e-06
      vertex   1.675000e+01 1.250000e+01 2.443790e-06
    endloop
  endfacet
  facet normal 0.000000e+00 0.000000e+00 1.000000e+00
    outer loop
      vertex   2.900000e+01 -4.250000e+00 2.443790e-06
      vertex   1.675000e+01 1.250000e+01 2.443790e-06
      vertex   1.675000e+01 -4.250000e+00 2.443790e-06
    endloop
  endfacet
  facet normal -0.000000e+00 0.000000e+00 1.000000e+00
    outer loop
      vertex   1.675000e+01 1.250000e+01 2.443790e-06
      vertex   2.900000e+01 -4.250000e+00 2.443790e-06
      vertex   2.900000e+01 1.250000e+01 2.443790e-06
    endloop
  endfacet
  facet normal 0.000000e+00 0.000000e+00 1.000000e+00
    outer loop
      vertex   -7.750000e+00 1.250000e+01 2.443790e-06
      vertex   -2.000000e+01 2.925000e+01 2.443790e-06
      vertex   -2.000000e+01 1.250000e+01 2.443790e-06
    endloop
  endfacet
  facet normal -0.000000e+00 0.000000e+00 1.000000e+00
    outer loop
      vertex   -2.000000e+01 2.925000e+01 2.443790e-06
      vertex   -7.750000e+00 1.250000e+01 2.443790e-06
      vertex   -7.750000e+00 2.925000e+01 2.443790e-06
    endloop
  endfacet
  facet normal 0.000000e+00 0.000000e+00 1.000000e+00
    outer loop
      vertex   4.500000e+00 1.250000e+01 2.443790e-06
      vertex   -7.750000e+00 2.925000e+01 2.443790e-06
      vertex   -7.750000e+00 1.250000e+01 2.443790e-06
    endloop
  endfacet
  facet normal -0.000000e+00 0.000000e+00 1.000000e+00
    outer loop
      vertex   -7.750000e+00 2.925000e+01 2.443790e-06
      vertex   4.500000e+00 1.250000e+01 2.443790e-06
      vertex   4.500000e+00 2.925000e+01 2.443790e-06
    endloop
  endfacet
  facet normal 0.000000e+00 0.000000e+00 1.000000e+00
    outer loop
      vertex   1.675000e+01 1.250000e+01 2.443790e-06
      vertex   4.500000e+00 2.925000e+01 2.443790e-06
      vertex   4.500000e+00 1.250000e+01 2.443790e-06
    endloop
  endfacet
  facet normal -0.000000e+00 0.000000e+00 1.000000e+00
    outer loop
      vertex   4.500000e+00 2.925000e+01 2.443790e-06
      vertex   1.675000e+01 1.250000e+01 2.443790e-06
      vertex   1.675000e+01 2.925000e+01 2.443790e-06
    endloop
  endfacet
  facet normal 0.000000e+00 0.000000e+00 1.000000e+00
    outer loop
      vertex   2.900000e+01 1.250000e+01 2.443790e-06
      vertex   1.675000e+01 2.925000e+01 2.443790e-06
      vertex   1.675000e+01 1.250000e+01 2.443790e-06
    endloop
  endfacet
  facet normal -0.000000e+00 0.000000e+00 1.000000e+00
    outer loop
      vertex   1.675000e+01 2.925000e+01 2.443790e-06
      vertex   2.900000e+01 1.250000e+01 2.443790e-06
      vertex   2.900000e+01 2.925000e+01 2.443790e-06
    endloop
  endfacet
  facet normal 0.000000e+00 0.000000e+00 1.000000e+00
    outer loop
      vertex   -7.750000e+00 2.925000e+01 2.443790e-06
      vertex   -2.000000e+01 4.600000e+01 2.443790e-06
      vertex   -2.000000e+01 2.925000e+01 2.443790e-06
    endloop
  endfacet
  facet normal -0.000000e+00 0.000000e+00 1.000000e+00
    outer loop
      vertex   -2.000000e+01 4.600000e+01 2.443790e-06
      vertex   -7.750000e+00 2.925000e+01 2.443790e-06
      vertex   -7.750000e+00 4.600000e+01 2.443790e-06
    endloop
  endfacet
  facet normal 0.000000e+00 0.000000e+00 1.000000e+00
    outer loop
      vertex   4.500000e+00 2.925000e+01 2.443790e-06
      vertex   -7.750000e+00 4.600000e+01 2.443790e-06
      vertex   -7.750000e+00 2.925000e+01 2.443790e-06
    endloop
  endfacet
  facet normal -0.000000e+00 0.000000e+00 1.000000e+00
    outer loop
      vertex   -7.750000e+00 4.600000e+01 2.443790e-06
      vertex   4.500000e+00 2.925000e+01 2.443790e-06
      vertex   4.500000e+00 4.600000e+01 2.443790e-06
    endloop
  endfacet
  facet normal 0.000000e+00 0.000000e+00 1.000000e+00
    outer loop
      vertex   1.675000e+01 2.925000e+01 2.443790e-06
      vertex   4.500000e+00 4.600000e+01 2.443790e-06
      vertex   4.500000e+00 2.925000e+01 2.443790e-06
    endloop
  endfacet
  facet normal -0.000000e+00 0.000000e+00 1.000000e+00
    outer loop
      vertex   4.500000e+00 4.600000e+01 2.443790e-06
      vertex   1.675000e+01 2.925000e+01 2.443790e-06
      vertex   1.675000e+01 4.600000e+01 2.443790e-06
    endloop
  endfacet
  facet normal 0.000000e+00 0.000000e+00 1.000000e+00
    outer loop
      vertex   2.900000e+01 2.925000e+01 2.443790e-06
      vertex   1.675000e+01 4.600000e+01 2.443790e-06
      vertex   1.675000e+01 2.925000e+01 2.443790e-06
    endloop
  endfacet
  facet normal -0.000000e+00 0.000000e+00 1.000000e+00
    outer loop
      vertex   1.675000e+01 4.600000e+01 2.443790e-06
      vertex   2.900000e+01 2.925000e+01 2.443790e-06
      vertex   2.900000e+01 4.600000e+01 2.443790e-06
    endloop
  endfacet
  facet normal -6.122449e-05 -1.000000e+00 0.000000e+00
    outer loop
      vertex   -7.750000e+00 -2.100075e+01 -1.640000e+02
      vertex   -2.000000e+01 -2.100000e+01 -1.230000e+02
      vertex   -2.000000e+01 -2.100000e+01 -1.640000e+02
    endloop
  endfacet
  facet normal 0.000000e+00 -1.000000e+00 1.829268e-05
    outer loop
      vertex   -2.000000e+01 -2.100000e+01 -1.230000e+02
      vertex   -7.750000e+00 -2.100075e+01 -1.640000e+02
      vertex   -7.750000e+00 -2.100000e+01 -1.230000e+02
    endloop
  endfacet
  facet normal 0.000000e+00 -1.000000e+00 0.000000e+00
    outer loop
      vertex   -7.750000e+00 -2.100000e+01 -1.230000e+02
      vertex   -2.000000e+01 -2.100000e+01 -8.200000e+01
      vertex   -2.000000e+01 -2.100000e+01 -1.230000e+02
    endloop
  endfacet
  facet normal 0.000000e+00 -1.000000e+00 0.000000e+00
    outer loop
      vertex   -2.000000e+01 -2.100000e+01 -8.200000e+01
      vertex   -7.750000e+00 -2.100000e+01 -1.230000e+02
      vertex   -7.750000e+00 -2.100000e+01 -8.200000e+01
    endloop
  endfacet
  facet normal 0.000000e+00 -1.000000e+00 0.000000e+00
    outer loop
      vertex   -7.750000e+00 -2.100000e+01 -8.200000e+01
      vertex   -2.000000e+01 -2.100000e+01 -4.100000e+01
      vertex   -2.000000e+01 -2.100000e+01 -8.200000e+01
    endloop
  endfacet
  facet normal 0.000000e+00 -1.000000e+00 0.000000e+00
    outer loop
      vertex   -2.000000e+01 -2.100000e+01 -4.100000e+01
      vertex   -7.750000e+00 -2.100000e+01 -8.200000e+01
      vertex   -7.750000e+00 -2.100000e+01 -4.100000e+01
    endloop
  endfacet
  facet normal 0.000000e+00 -1.000000e+00 0.000000e+00
    outer loop
      vertex   -7.750000e+00 -2.100000e+01 -4.100000e+01
      vertex   -2.000000e+01 -2.100000e+01 2.443790e-06
      vertex   -2.000000e+01 -2.100000e+01 -4.100000e+01
    endloop
  endfacet
  facet normal 0.000000e+00 -1.000000e+00 0.000000e+00
    outer loop
      vertex   -2.000000e+01 -2.100000e+01 2.443790e-06
      vertex   -7.750000e+00 -2.100000e+01 -4.100000e+01
      vertex   -7.750000e+00 -2.100000e+01 2.443790e-06
    endloop
  endfacet
  facet normal 6.122449e-05 -1.000000e+00 1.829268e-05
    outer loop
      vertex   4.500000e+00 -2.100000e+01 -1.640000e+02
      vertex   -7.750000e+00 -2.100000e+01 -1.230000e+02
      vertex   -7.750000e+00 -2.100075e+01 -1.640000e+02
    endloop
  endfacet
  facet normal 0.000000e+00 -1.000000e+00 0.000000e+00
    outer loop
      vertex   -7.750000e+00 -2.100000e+01 -1.230000e+02
      vertex   4.500000e+00 -2.100000e+01 -1.640000e+02
      vertex   4.500000e+00 -2.100000e+01 -1.230000e+02
    endloop
  endfacet
  facet normal 0.000000e+00 -1.000000e+00 0.000000e+00
    outer loop
      vertex   4.500000e+00 -2.100000e+01 -1.230000e+02
      vertex   -7.750000e+00 -2.100000e+01 -8.200000e+01
      vertex   -7.750000e+00 -2.100000e+01 -1.230000e+02
    endloop
  endfacet
  facet normal 0.000000e+00 -1.000000e+00 0.000000e+00
    outer loop
      vertex   -7.750000e+00 -2.100000e+01 -8.200000e+01
      vertex   4.500000e+00 -2.100000e+01 -1.230000e+02
      vertex   4.500000e+00 -2.100000e+01 -8.200000e+01
    endloop
  endfacet
  facet normal 0.000000e+00 -1.000000e+00 0.000000e+00
    outer loop
      vertex   4.500000e+00 -2.100000e+01 -8.200000e+01
      vertex   -7.750000e+00 -2.100000e+01 -4.100000e+01
      vertex   -7.750000e+00 -2.100000e+01 -8.200000e+01
    endloop
  endfacet
  facet normal 0.000000e+00 -1.000000e+00 0.000000e+00
    outer loop
      vertex   -7.750000e+00 -2.100000e+01 -4.100000e+01
      vertex   4.500000e+00 -2.100000e+01 -8.200000e+01
      vertex   4.500000e+00 -2.100000e+01 -4.100000e+01
    endloop
  endfacet
  facet normal 0.000000e+00 -1.000000e+00 0.000000e+00
    outer loop
      vertex   4.500000e+00 -2.100000e+01 -4.100000e+01
      vertex   -7.750000e+00 -2.100000e+01 2.443790e-06
      vertex   -7.750000e+00 -2.100000e+01 -4.100000e+01
    endloop
  endfacet
  facet normal 0.000000e+00 -1.000000e+00 0.000000e+00
    outer loop
      vertex   -7.750000e+00 -2.100000e+01 2.443790e-06
      vertex   4.500000e+00 -2.100000e+01 -4.100000e+01
      vertex   4.500000e+00 -2.100000e+01 2.443790e-06
    endloop
  endfacet
  facet normal 0.000000e+00 -1.000000e+00 0.000000e+00
    outer loop
      vertex   1.675000e+01 -2.100000e+01 -1.640000e+02
      vertex   4.500000e+00 -2.100000e+01 -1.230000e+02
      vertex   4.500000e+00 -2.100000e+01 -1.640000e+02
    endloop
  endfacet
  facet normal 0.000000e+00 -1.000000e+00 0.000000e+00
    outer loop
      vertex   4.500000e+00 -2.100000e+01 -1.230000e+02
      vertex   1.675000e+01 -2.100000e+01 -1.640000e+02
      vertex   1.675000e+01 -2.100000e+01 -1.230000e+02
    endloop
  endfacet
  facet normal 0.000000e+00 -1.000000e+00 0.000000e+00
    outer loop
      vertex   1.675000e+01 -2.100000e+01 -1.230000e+02
      vertex   4.500000e+00 -2.100000e+01 -8.200000e+01
      vertex   4.500000e+00 -2.100000e+01 -1.230000e+02
    endloop
  endfacet
  facet normal 0.000000e+00 -1.000000e+00 0.000000e+00
    outer loop
      vertex   4.500000e+00 -2.100000e+01 -8.200000e+01
      vertex   1.675000e+01 -2.100000e+01 -1.230000e+02
      vertex   1.675000e+01 -2.100000e+01 -8.200000e+01
    endloop
  endfacet
  facet normal 0.000000e+00 -1.000000e+00 0.000000e+00
    outer loop
      vertex   1.675000e+01 -2.100000e+01 -8.200000e+01
      vertex   4.500000e+00 -2.100000e+01 -4.100000e+01
      vertex   4.500000e+00 -2.100000e+01 -8.200000e+01
    endloop
  endfacet
  facet normal 0.000000e+00 -1.000000e+00 0.000000e+00
    outer loop
      vertex   4.500000e+00 -2.100000e+01 -4.100000e+01
      vertex   1.675000e+01 -2.100000e+01 -8.200000e+01
      vertex   1.675000e+01 -2.100000e+01 -4.100000e+01
    endloop
  endfacet
  facet normal 0.000000e+00 -1.000000e+00 0.000000e+00
    outer loop
      vertex   1.675000e+01 -2.100000e+01 -4.100000e+01
      vertex   4.500000e+00 -2.100000e+01 2.443790e-06
      vertex   4.500000e+00 -2.100000e+01 -4.100000e+01
    endloop
  endfacet
  facet normal 0.000000e+00 -1.000000e+00 0.000000e+00
    outer loop
      vertex   4.500000e+00 -2.100000e+01 2.443790e-06
      vertex   1.675000e+01 -2.100000e+01 -4.100000e+01
      vertex   1.675000e+01 -2.100000e+01 2.443790e-06
    endloop
  endfacet
  facet normal 0.000000e+00 -1.000000e+00 0.000000e+00
    outer loop
      vertex   2.900000e+01 -2.100000e+01 -1.640000e+02
      vertex   1.675000e+01 -2.100000e+01 -1.230000e+02
      vertex   1.675000e+01 -2.100000e+01 -1.640000e+02
    endloop
  endfacet
  facet normal 0.000000e+00 -1.000000e+00 0.000000e+00
    outer loop
      vertex   1.675000e+01 -2.100000e+01 -1.230000e+02
      vertex   2.900000e+01 -2.100000e+01 -1.640000e+02
      vertex   2.899925e+01 -2.100000e+01 -1.230000e+02
    endloop
  endfacet
  facet normal 0.000000e+00 -1.000000e+00 0.000000e+00
    outer loop
      vertex   2.899925e+01 -2.100000e+01 -1.230000e+02
      vertex   1.675000e+01 -2.100000e+01 -8.200000e+01
      vertex   1.675000e+01 -2.100000e+01 -1.230000e+02
    endloop
  endfacet
  facet normal 0.000000e+00 -1.000000e+00 0.000000e+00
    outer loop
      vertex   1.675000e+01 -2.100000e+01 -8.200000e+01
      vertex   2.899925e+01 -2.100000e+01 -1.230000e+02
      vertex   2.900000e+01 -2.100000e+01 -8.200000e+01
    endloop
  endfacet
  facet normal 0.000000e+00 -1.000000e+00 0.000000e+00
    outer loop
      vertex   2.900000e+01 -2.100000e+01 -8.200000e+01
      vertex   1.675000e+01 -2.100000e+01 -4.100000e+01
      vertex   1.675000e+01 -2.100000e+01 -8.200000e+01
    endloop
  endfacet
  facet normal 0.000000e+00 -1.000000e+00 0.000000e+00
    outer loop
      vertex   1.675000e+01 -2.100000e+01 -4.100000e+01
      vertex   2.900000e+01 -2.100000e+01 -8.200000e+01
      vertex   2.900000e+01 -2.100000e+01 -4.100000e+01
    endloop
  endfacet
  facet normal 0.000000e+00 -1.000000e+00 0.000000e+00
    outer loop
      vertex   2.900000e+01 -2.100000e+01 -4.100000e+01
      vertex   1.675000e+01 -2.100000e+01 2.443790e-06
      vertex   1.675000e+01 -2.100000e+01 -4.100000e+01
    endloop
  endfacet
  facet normal 0.000000e+00 -1.000000e+00 0.000000e+00
    outer loop
      vertex   1.675000e+01 -2.100000e+01 2.443790e-06
      vertex   2.900000e+01 -2.100000e+01 -4.100000e+01
      vertex   2.900000e+01 -2.100000e+01 2.443790e-06
    endloop
  endfacet
  facet normal 0.000000e+00 1.000000e+00 0.000000e+00
    outer loop
      vertex   -2.000075e+01 4.600000e+01 -1.640000e+02
      vertex   -2.000000e+01 4.600000e+01 -1.230000e+02
      vertex   -7.750000e+00 4.600000e+01 -1.640000e+02
    endloop
  endfacet
  facet normal 0.000000e+00 1.000000e+00 0.000000e+00
    outer loop
      vertex   -7.750749e+00 4.600000e+01 -1.230000e+02
      vertex   -7.750000e+00 4.600000e+01 -1.640000e+02
      vertex   -2.000000e+01 4.600000e+01 -1.230000e+02
    endloop
  endfacet
  facet normal 0.000000e+00 1.000000e+00 -0.000000e+00
    outer loop
      vertex   -2.000000e+01 4.600000e+01 -1.230000e+02
      vertex   -2.000075e+01 4.600000e+01 -8.200000e+01
      vertex   -7.750749e+00 4.600000e+01 -1.230000e+02
    endloop
  endfacet
  facet normal 0.000000e+00 1.000000e+00 0.000000e+00
    outer loop
      vertex   -7.750000e+00 4.600000e+01 -8.200000e+01
      vertex   -7.750749e+00 4.600000e+01 -1.230000e+02
      vertex   -2.000075e+01 4.600000e+01 -8.200000e+01
    endloop
  endfacet
  facet normal 0.000000e+00 1.000000e+00 0.000000e+00
    outer loop
      vertex   -2.000075e+01 4.600000e+01 -8.200000e+01
      vertex   -2.000000e+01 4.600000e+01 -4.100000e+01
      vertex   -7.750000e+00 4.600000e+01 -8.200000e+01
    endloop
  endfacet
  facet normal 0.000000e+00 1.000000e+00 0.000000e+00
    outer loop
      vertex   -7.750749e+00 4.600000e+01 -4.100075e+01
      vertex   -7.750000e+00 4.600000e+01 -8.200000e+01
      vertex   -2.000000e+01 4.600000e+01 -4.100000e+01
    endloop
  endfacet
  facet normal -0.000000e+00 1.000000e+00 0.000000e+00
    outer loop
      vertex   -2.000000e+01 4.600000e+01 -4.100000e+01
      vertex   -2.000000e+01 4.600000e+01 2.443790e-06
      vertex   -7.750749e+00 4.600000e+01 -4.100075e+01
    endloop
  endfacet
  facet normal 0.000000e+00 1.000000e+00 0.000000e+00
    outer loop
      vertex   -7.750000e+00 4.600000e+01 2.443790e-06
      vertex   -7.750749e+00 4.600000e+01 -4.100075e+01
      vertex   -2.000000e+01 4.600000e+01 2.443790e-06
    endloop
  endfacet
  facet normal 0.000000e+00 1.000000e+00 -0.000000e+00
    outer loop
      vertex   -7.750000e+00 4.600000e+01 -1.640000e+02
      vertex   -7.750749e+00 4.600000e+01 -1.230000e+02
      vertex   4.500000e+00 4.600000e+01 -1.640000e+02
    endloop
  endfacet
  facet normal 0.000000e+00 1.000000e+00 0.000000e+00
    outer loop
      vertex   4.499251e+00 4.600000e+01 -1.230000e+02
      vertex   4.500000e+00 4.600000e+01 -1.640000e+02
      vertex   -7.750749e+00 4.600000e+01 -1.230000e+02
    endloop
  endfacet
  facet normal 0.000000e+00 1.000000e+00 0.000000e+00
    outer loop
      vertex   -7.750749e+00 4.600000e+01 -1.230000e+02
      vertex   -7.750000e+00 4.600000e+01 -8.200000e+01
      vertex   4.499251e+00 4.600000e+01 -1.230000e+02
    endloop
  endfacet
  facet normal 0.000000e+00 1.000000e+00 0.000000e+00
    outer loop
      vertex   4.500000e+00 4.600000e+01 -8.200000e+01
      vertex   4.499251e+00 4.600000e+01 -1.230000e+02
      vertex   -7.750000e+00 4.600000e+01 -8.200000e+01
    endloop
  endfacet
  facet normal 0.000000e+00 1.000000e+00 -0.000000e+00
    outer loop
      vertex   -7.750000e+00 4.600000e+01 -8.200000e+01
      vertex   -7.750749e+00 4.600000e+01 -4.100075e+01
      vertex   4.500000e+00 4.600000e+01 -8.200000e+01
    endloop
  endfacet
  facet normal 0.000000e+00 1.000000e+00 0.000000e+00
    outer loop
      vertex   4.499251e+00 4.600000e+01 -4.100000e+01
      vertex   4.500000e+00 4.600000e+01 -8.200000e+01
      vertex   -7.750749e+00 4.600000e+01 -4.100075e+01
    endloop
  endfacet
  facet normal 0.000000e+00 1.000000e+00 0.000000e+00
    outer loop
      vertex   -7.750749e+00 4.600000e+01 -4.100075e+01
      vertex   -7.750000e+00 4.600000e+01 2.443790e-06
      vertex   4.499251e+00 4.600000e+01 -4.100000e+01
    endloop
  endfacet
  facet normal 0.000000e+00 1.000000e+00 0.000000e+00
    outer loop
      vertex   4.500000e+00 4.600000e+01 2.443790e-06
      vertex   4.499251e+00 4.600000e+01 -4.100000e+01
      vertex   -7.750000e+00 4.600000e+01 2.443790e-06
    endloop
  endfacet
  facet normal 0.000000e+00 1.000000e+00 -0.000000e+00
    outer loop
      vertex   4.500000e+00 4.600000e+01 -1.640000e+02
      vertex   4.499251e+00 4.600000e+01 -1.230000e+02
      vertex   1.675000e+01 4.600000e+01 -1.640000e+02
    endloop
  endfacet
  facet normal 0.000000e+00 1.000000e+00 0.000000e+00
    outer loop
      vertex   1.674925e+01 4.600000e+01 -1.230000e+02
      vertex   1.675000e+01 4.600000e+01 -1.640000e+02
      vertex   4.499251e+00 4.600000e+01 -1.230000e+02
    endloop
  endfacet
  facet normal 0.000000e+00 1.000000e+00 0.000000e+00
    outer loop
      vertex   4.499251e+00 4.600000e+01 -1.230000e+02
      vertex   4.500000e+00 4.600000e+01 -8.200000e+01
      vertex   1.674925e+01 4.600000e+01 -1.230000e+02
    endloop
  endfacet
  facet normal 0.000000e+00 1.000000e+00 0.000000e+00
    outer loop
      vertex   1.675000e+01 4.600000e+01 -8.200000e+01
      vertex   1.674925e+01 4.600000e+01 -1.230000e+02
      vertex   4.500000e+00 4.600000e+01 -8.200000e+01
    endloop
  endfacet
  facet normal 0.000000e+00 1.000000e+00 -0.000000e+00
    outer loop
      vertex   4.500000e+00 4.600000e+01 -8.200000e+01
      vertex   4.499251e+00 4.600000e+01 -4.100000e+01
      vertex   1.675000e+01 4.600000e+01 -8.200000e+01
    endloop
  endfacet
  facet normal 0.000000e+00 1.000000e+00 0.000000e+00
    outer loop
      vertex   1.674925e+01 4.600000e+01 -4.100000e+01
      vertex   1.675000e+01 4.600000e+01 -8.200000e+01
      vertex   4.499251e+00 4.600000e+01 -4.100000e+01
    endloop
  endfacet
  facet normal 0.000000e+00 1.000000e+00 0.000000e+00
    outer loop
      vertex   4.499251e+00 4.600000e+01 -4.100000e+01
      vertex   4.500000e+00 4.600000e+01 2.443790e-06
      vertex   1.674925e+01 4.600000e+01 -4.100000e+01
    endloop
  endfacet
  facet normal 0.000000e+00 1.000000e+00 0.000000e+00
    outer loop
      vertex   1.675000e+01 4.600000e+01 2.443790e-06
      vertex   1.674925e+01 4.600000e+01 -4.100000e+01
      vertex   4.500000e+00 4.600000e+01 2.443790e-06
    endloop
  endfacet
  facet normal 0.000000e+00 1.000000e+00 -0.000000e+00
    outer loop
      vertex   1.675000e+01 4.600000e+01 -1.640000e+02
      vertex   1.674925e+01 4.600000e+01 -1.230000e+02
      vertex   2.900000e+01 4.600000e+01 -1.640000e+02
    endloop
  endfacet
  facet normal 0.000000e+00 1.000000e+00 0.000000e+00
    outer loop
      vertex   2.899925e+01 4.600000e+01 -1.230000e+02
      vertex   2.900000e+01 4.600000e+01 -1.640000e+02
      vertex   1.674925e+01 4.600000e+01 -1.230000e+02
    endloop
  endfacet
  facet normal 0.000000e+00 1.000000e+00 0.000000e+00
    outer loop
      vertex   1.674925e+01 4.600000e+01 -1.230000e+02
      vertex   1.675000e+01 4.600000e+01 -8.200000e+01
      vertex   2.899925e+01 4.600000e+01 -1.230000e+02
    endloop
  endfacet
  facet normal 0.000000e+00 1.000000e+00 0.000000e+00
    outer loop
      vertex   2.900000e+01 4.600000e+01 -8.200000e+01
      vertex   2.899925e+01 4.600000e+01 -1.230000e+02
      vertex   1.675000e+01 4.600000e+01 -8.200000e+01
    endloop
  endfacet
  facet normal 0.000000e+00 1.000000e+00 -0.000000e+00
    outer loop
      vertex   1.675000e+01 4.600000e+01 -8.200000e+01
      vertex   1.674925e+01 4.600000e+01 -4.100000e+01
      vertex   2.900000e+01 4.600000e+01 -8.200000e+01
    endloop
  endfacet
  facet normal 6.103516e-05 1.000000e+00 1.823723e-05
    outer loop
      vertex   2.899925e+01 4.599925e+01 -4.100000e+01
      vertex   2.900000e+01 4.600000e+01 -8.200000e+01
      vertex   1.674925e+01 4.600000e+01 -4.100000e+01
    endloop
  endfacet
  facet normal 6.103516e-05 1.000000e+00 -1.118723e-09
    outer loop
      vertex   1.674925e+01 4.600000e+01 -4.100000e+01
      vertex   1.675000e+01 4.600000e+01 2.443790e-06
      vertex   2.899925e+01 4.599925e+01 -4.100000e+01
    endloop
  endfacet
  facet normal 0.000000e+00 1.000000e+00 -1.823611e-05
    outer loop
      vertex   2.900000e+01 4.600000e+01 2.443790e-06
      vertex   2.899925e+01 4.599925e+01 -4.100000e+01
      vertex   1.675000e+01 4.600000e+01 2.443790e-06
    endloop
  endfacet
  facet normal -1.000000e+00 0.000000e+00 0.000000e+00
    outer loop
      vertex   -2.000000e+01 -2.100000e+01 -1.230000e+02
      vertex   -2.000000e+01 -4.250000e+00 -1.640000e+02
      vertex   -2.000000e+01 -2.100000e+01 -1.640000e+02
    endloop
  endfacet
  facet normal -1.000000e+00 0.000000e+00 0.000000e+00
    outer loop
      vertex   -2.000000e+01 -4.250000e+00 -1.640000e+02
      vertex   -2.000000e+01 -2.100000e+01 -1.230000e+02
      vertex   -2.000000e+01 -4.250000e+00 -1.230000e+02
    endloop
  endfacet
  facet normal -1.000000e+00 -4.477612e-05 -0.000000e+00
    outer loop
      vertex   -2.000000e+01 -4.250000e+00 -1.230000e+02
      vertex   -2.000075e+01 1.250000e+01 -1.640000e+02
      vertex   -2.000000e+01 -4.250000e+00 -1.640000e+02
    endloop
  endfacet
  facet normal -1.000000e+00 0.000000e+00 1.829268e-05
    outer loop
      vertex   -2.000075e+01 1.250000e+01 -1.640000e+02
      vertex   -2.000000e+01 -4.250000e+00 -1.230000e+02
      vertex   -2.000000e+01 1.250000e+01 -1.230000e+02
    endloop
  endfacet
  facet normal -1.000000e+00 4.477612e-05 1.829268e-05
    outer loop
      vertex   -2.000000e+01 1.250000e+01 -1.230000e+02
      vertex   -2.000000e+01 2.925000e+01 -1.640000e+02
      vertex   -2.000075e+01 1.250000e+01 -1.640000e+02
    endloop
  endfacet
  facet normal -1.000000e+00 0.000000e+00 0.000000e+00
    outer loop
      vertex   -2.000000e+01 2.925000e+01 -1.640000e+02
      vertex   -2.000000e+01 1.250000e+01 -1.230000e+02
      vertex   -2.000000e+01 2.925000e+01 -1.230000e+02
    endloop
  endfacet
  facet normal -1.000000e+00 -4.477612e-05 -0.000000e+00
    outer loop
      vertex   -2.000000e+01 2.925000e+01 -1.230000e+02
      vertex   -2.000075e+01 4.600000e+01 -1.640000e+02
      vertex   -2.000000e+01 2.925000e+01 -1.640000e+02
    endloop
  endfacet
  facet normal -1.000000e+00 0.000000e+00 1.829268e-05
    outer loop
      vertex   -2.000075e+01 4.600000e+01 -1.640000e+02
      vertex   -2.000000e+01 2.925000e+01 -1.230000e+02
      vertex   -2.000000e+01 4.600000e+01 -1.230000e+02
    endloop
  endfacet
  facet normal -1.000000e+00 0.000000e+00 0.000000e+00
    outer loop
      vertex   -2.000000e+01 -2.100000e+01 -8.200000e+01
      vertex   -2.000000e+01 -4.250000e+00 -1.230000e+02
      vertex   -2.000000e+01 -2.100000e+01 -1.230000e+02
    endloop
  endfacet
  facet normal -1.000000e+00 0.000000e+00 0.000000e+00
    outer loop
      vertex   -2.000000e+01 -4.250000e+00 -1.230000e+02
      vertex   -2.000000e+01 -2.100000e+01 -8.200000e+01
      vertex   -2.000000e+01 -4.250000e+00 -8.200000e+01
    endloop
  endfacet
  facet normal -1.000000e+00 0.000000e+00 0.000000e+00
    outer loop
      vertex   -2.000000e+01 -4.250000e+00 -8.200000e+01
      vertex   -2.000000e+01 1.250000e+01 -1.230000e+02
      vertex   -2.000000e+01 -4.250000e+00 -1.230000e+02
    endloop
  endfacet
  facet normal -1.000000e+00 0.000000e+00 0.000000e+00
    outer loop
      vertex   -2.000000e+01 1.250000e+01 -1.230000e+02
      vertex   -2.000000e+01 -4.250000e+00 -8.200000e+01
      vertex   -2.000000e+01 1.250000e+01 -8.200000e+01
    endloop
  endfacet
  facet normal -1.000000e+00 0.000000e+00 0.000000e+00
    outer loop
      vertex   -2.000000e+01 1.250000e+01 -8.200000e+01
      vertex   -2.000000e+01 2.925000e+01 -1.230000e+02
      vertex   -2.000000e+01 1.250000e+01 -1.230000e+02
    endloop
  endfacet
  facet normal -1.000000e+00 0.000000e+00 0.000000e+00
    outer loop
      vertex   -2.000000e+01 2.925000e+01 -1.230000e+02
      vertex   -2.000000e+01 1.250000e+01 -8.200000e+01
      vertex   -2.000000e+01 2.925000e+01 -8.200000e+01
    endloop
  endfacet
  facet normal -1.000000e+00 0.000000e+00 0.000000e+00
    outer loop
      vertex   -2.000000e+01 2.925000e+01 -8.200000e+01
      vertex   -2.000000e+01 4.600000e+01 -1.230000e+02
      vertex   -2.000000e+01 2.925000e+01 -1.230000e+02
    endloop
  endfacet
  facet normal -1.000000e+00 -4.477612e-05 -1.829268e-05
    outer loop
      vertex   -2.000000e+01 4.600000e+01 -1.230000e+02
      vertex   -2.000000e+01 2.925000e+01 -8.200000e+01
      vertex   -2.000075e+01 4.600000e+01 -8.200000e+01
    endloop
  endfacet
  facet normal -1.000000e+00 0.000000e+00 0.000000e+00
    outer loop
      vertex   -2.000000e+01 -2.100000e+01 -4.100000e+01
      vertex   -2.000000e+01 -4.250000e+00 -8.200000e+01
      vertex   -2.000000e+01 -2.100000e+01 -8.200000e+01
    endloop
  endfacet
  facet normal -1.000000e+00 0.000000e+00 0.000000e+00
    outer loop
      vertex   -2.000000e+01 -4.250000e+00 -8.200000e+01
      vertex   -2.000000e+01 -2.100000e+01 -4.100000e+01
      vertex   -2.000000e+01 -4.250000e+00 -4.100000e+01
    endloop
  endfacet
  facet normal -1.000000e+00 0.000000e+00 0.000000e+00
    outer loop
      vertex   -2.000000e+01 -4.250000e+00 -4.100000e+01
      vertex   -2.000000e+01 1.250000e+01 -8.200000e+01
      vertex   -2.000000e+01 -4.250000e+00 -8.200000e+01
    endloop
  endfacet
  facet normal -1.000000e+00 0.000000e+00 0.000000e+00
    outer loop
      vertex   -2.000000e+01 1.250000e+01 -8.200000e+01
      vertex   -2.000000e+01 -4.250000e+00 -4.100000e+01
      vertex   -2.000000e+01 1.250000e+01 -4.100000e+01
    endloop
  endfacet
  facet normal -1.000000e+00 0.000000e+00 0.000000e+00
    outer loop
      vertex   -2.000000e+01 1.250000e+01 -4.100000e+01
      vertex   -2.000000e+01 2.925000e+01 -8.200000e+01
      vertex   -2.000000e+01 1.250000e+01 -8.200000e+01
    endloop
  endfacet
  facet normal -1.000000e+00 0.000000e+00 0.000000e+00
    outer loop
      vertex   -2.000000e+01 2.925000e+01 -8.200000e+01
      vertex   -2.000000e+01 1.250000e+01 -4.100000e+01
      vertex   -2.000000e+01 2.925000e+01 -4.100000e+01
    endloop
  endfacet
  facet normal -1.000000e+00 -4.477612e-05 -0.000000e+00
    outer loop
      vertex   -2.000000e+01 2.925000e+01 -4.100000e+01
      vertex   -2.000075e+01 4.600000e+01 -8.200000e+01
      vertex   -2.000000e+01 2.925000e+01 -8.200000e+01
    endloop
  endfacet
  facet normal -1.000000e+00 0.000000e+00 1.829268e-05
    outer loop
      vertex   -2.000075e+01 4.600000e+01 -8.200000e+01
      vertex   -2.000000e+01 2.925000e+01 -4.100000e+01
      vertex   -2.000000e+01 4.600000e+01 -4.100000e+01
    endloop
  endfacet
  facet normal -1.000000e+00 0.000000e+00 0.000000e+00
    outer loop
      vertex   -2.000000e+01 -2.100000e+01 2.443790e-06
      vertex   -2.000000e+01 -4.250000e+00 -4.100000e+01
      vertex   -2.000000e+01 -2.100000e+01 -4.100000e+01
    endloop
  endfacet
  facet normal -1.000000e+00 0.000000e+00 0.000000e+00
    outer loop
      vertex   -2.000000e+01 -4.250000e+00 -4.100000e+01
      vertex   -2.000000e+01 -2.100000e+01 2.443790e-06
      vertex   -2.000000e+01 -4.250000e+00 2.443790e-06
    endloop
  endfacet
  facet normal -1.000000e+00 0.000000e+00 0.000000e+00
    outer loop
      vertex   -2.000000e+01 -4.250000e+00 2.443790e-06
      vertex   -2.000000e+01 1.250000e+01 -4.100000e+01
      vertex   -2.000000e+01 -4.250000e+00 -4.100000e+01
    endloop
  endfacet
  facet normal -1.000000e+00 0.000000e+00 0.000000e+00
    outer loop
      vertex   -2.000000e+01 1.250000e+01 -4.100000e+01
      vertex   -2.000000e+01 -4.250000e+00 2.443790e-06
      vertex   -2.000000e+01 1.250000e+01 2.443790e-06
    endloop
  endfacet
  facet normal -1.000000e+00 0.000000e+00 0.000000e+00
    outer loop
      vertex   -2.000000e+01 1.250000e+01 2.443790e-06
      vertex   -2.000000e+01 2.925000e+01 -4.100000e+01
      vertex   -2.000000e+01 1.250000e+01 -4.100000e+01
    endloop
  endfacet
  facet normal -1.000000e+00 0.000000e+00 0.000000e+00
    outer loop
      vertex   -2.000000e+01 2.925000e+01 -4.100000e+01
      vertex   -2.000000e+01 1.250000e+01 2.443790e-06
      vertex   -2.000000e+01 2.925000e+01 2.443790e-06
    endloop
  endfacet
  facet normal -1.000000e+00 0.000000e+00 0.000000e+00
    outer loop
      vertex   -2.000000e+01 2.925000e+01 2.443790e-06
      vertex   -2.000000e+01 4.600000e+01 -4.100000e+01
      vertex   -2.000000e+01 2.925000e+01 -4.100000e+01
    endloop
  endfacet
  facet normal -1.000000e+00 0.000000e+00 0.000000e+00
    outer loop
      vertex   -2.000000e+01 4.600000e+01 -4.100000e+01
      vertex   -2.000000e+01 2.925000e+01 2.443790e-06
      vertex   -2.000000e+01 4.600000e+01 2.443790e-06
    endloop
  endfacet
  facet normal 1.000000e+00 4.486539e-05 1.832916e-05
    outer loop
      vertex   2.900000e+01 -2.100000e+01 -1.640000e+02
      vertex   2.899925e+01 -4.250000e+00 -1.640000e+02
      vertex   2.899925e+01 -2.100000e+01 -1.230000e+02
    endloop
  endfacet
  facet normal 1.000000e+00 -4.486539e-05 -1.832916e-05
    outer loop
      vertex   2.900000e+01 -4.250000e+00 -1.230000e+02
      vertex   2.899925e+01 -2.100000e+01 -1.230000e+02
      vertex   2.899925e+01 -4.250000e+00 -1.640000e+02
    endloop
  endfacet
  facet normal 1.000000e+00 -4.486539e-05 -1.832916e-05
    outer loop
      vertex   2.899925e+01 -4.250000e+00 -1.640000e+02
      vertex   2.900000e+01 1.250000e+01 -1.640000e+02
      vertex   2.900000e+01 -4.250000e+00 -1.230000e+02
    endloop
  endfacet
  facet normal 1.000000e+00 4.486539e-05 1.832916e-05
    outer loop
      vertex   2.899925e+01 1.250000e+01 -1.230000e+02
      vertex   2.900000e+01 -4.250000e+00 -1.230000e+02
      vertex   2.900000e+01 1.250000e+01 -1.640000e+02
    endloop
  endfacet
  facet normal 1.000000e+00 4.486539e-05 1.832916e-05
    outer loop
      vertex   2.900000e+01 1.250000e+01 -1.640000e+02
      vertex   2.899925e+01 2.925000e+01 -1.640000e+02
      vertex   2.899925e+01 1.250000e+01 -1.230000e+02
    endloop
  endfacet
  facet normal 1.000000e+00 -4.486539e-05 -1.832916e-05
    outer loop
      vertex   2.900000e+01 2.925000e+01 -1.230000e+02
      vertex   2.899925e+01 1.250000e+01 -1.230000e+02
      vertex   2.899925e+01 2.925000e+01 -1.640000e+02
    endloop
  endfacet
  facet normal 1.000000e+00 -4.486539e-05 -1.832916e-05
    outer loop
      vertex   2.899925e+01 2.925000e+01 -1.640000e+02
      vertex   2.900000e+01 4.600000e+01 -1.640000e+02
      vertex   2.900000e+01 2.925000e+01 -1.230000e+02
    endloop
  endfacet
  facet normal 1.000000e+00 4.486539e-05 1.832916e-05
    outer loop
      vertex   2.899925e+01 4.600000e+01 -1.230000e+02
      vertex   2.900000e+01 2.925000e+01 -1.230000e+02
      vertex   2.900000e+01 4.600000e+01 -1.640000e+02
    endloop
  endfacet
  facet normal 1.000000e+00 -4.486539e-05 -1.832916e-05
    outer loop
      vertex   2.899925e+01 -2.100000e+01 -1.230000e+02
      vertex   2.900000e+01 -4.250000e+00 -1.230000e+02
      vertex   2.900000e+01 -2.100000e+01 -8.200000e+01
    endloop
  endfacet
  facet normal 1.000000e+00 4.486621e-05 1.832949e-05
    outer loop
      vertex   2.899925e+01 -4.250000e+00 -8.200075e+01
      vertex   2.900000e+01 -2.100000e+01 -8.200000e+01
      vertex   2.900000e+01 -4.250000e+00 -1.230000e+02
    endloop
  endfacet
  facet normal 1.000000e+00 4.486539e-05 1.832949e-05
    outer loop
      vertex   2.900000e+01 -4.250000e+00 -1.230000e+02
      vertex   2.899925e+01 1.250000e+01 -1.230000e+02
      vertex   2.899925e+01 -4.250000e+00 -8.200075e+01
    endloop
  endfacet
  facet normal 1.000000e+00 -4.486458e-05 -1.832916e-05
    outer loop
      vertex   2.900000e+01 1.250000e+01 -8.200000e+01
      vertex   2.899925e+01 -4.250000e+00 -8.200075e+01
      vertex   2.899925e+01 1.250000e+01 -1.230000e+02
    endloop
  endfacet
  facet normal 1.000000e+00 -4.486539e-05 -1.832916e-05
    outer loop
      vertex   2.899925e+01 1.250000e+01 -1.230000e+02
      vertex   2.900000e+01 2.925000e+01 -1.230000e+02
      vertex   2.900000e+01 1.250000e+01 -8.200000e+01
    endloop
  endfacet
  facet normal 1.000000e+00 4.486539e-05 1.832916e-05
    outer loop
      vertex   2.899925e+01 2.925000e+01 -8.200000e+01
      vertex   2.900000e+01 1.250000e+01 -8.200000e+01
      vertex   2.900000e+01 2.925000e+01 -1.230000e+02
    endloop
  endfacet
  facet normal 1.000000e+00 4.486539e-05 1.832916e-05
    outer loop
      vertex   2.900000e+01 2.925000e+01 -1.230000e+02
      vertex   2.899925e+01 4.600000e+01 -1.230000e+02
      vertex   2.899925e+01 2.925000e+01 -8.200000e+01
    endloop
  endfacet
  facet normal 1.000000e+00 -4.486539e-05 -1.832916e-05
    outer loop
      vertex   2.900000e+01 4.600000e+01 -8.200000e+01
      vertex   2.899925e+01 2.925000e+01 -8.200000e+01
      vertex   2.899925e+01 4.600000e+01 -1.230000e+02
    endloop
  endfacet
  facet normal 1.000000e+00 4.486539e-05 -0.000000e+00
    outer loop
      vertex   2.900000e+01 -2.100000e+01 -8.200000e+01
      vertex   2.899925e+01 -4.250000e+00 -8.200075e+01
      vertex   2.900000e+01 -2.100000e+01 -4.100000e+01
    endloop
  endfacet
  facet normal 1.000000e+00 -8.182071e-10 -1.832916e-05
    outer loop
      vertex   2.900000e+01 -4.250749e+00 -4.100075e+01
      vertex   2.900000e+01 -2.100000e+01 -4.100000e+01
      vertex   2.899925e+01 -4.250000e+00 -8.200075e+01
    endloop
  endfacet
  facet normal 1.000000e+00 -4.486458e-05 -1.832998e-05
    outer loop
      vertex   2.899925e+01 -4.250000e+00 -8.200075e+01
      vertex   2.900000e+01 1.250000e+01 -8.200000e+01
      vertex   2.900000e+01 -4.250749e+00 -4.100075e+01
    endloop
  endfacet
  facet normal 1.000000e+00 0.000000e+00 0.000000e+00
    outer loop
      vertex   2.900000e+01 1.249925e+01 -4.100000e+01
      vertex   2.900000e+01 -4.250749e+00 -4.100075e+01
      vertex   2.900000e+01 1.250000e+01 -8.200000e+01
    endloop
  endfacet
  facet normal 1.000000e+00 4.486539e-05 8.223448e-10
    outer loop
      vertex   2.900000e+01 1.250000e+01 -8.200000e+01
      vertex   2.899925e+01 2.925000e+01 -8.200000e+01
      vertex   2.900000e+01 1.249925e+01 -4.100000e+01
    endloop
  endfacet
  facet normal 1.000000e+00 0.000000e+00 -1.832916e-05
    outer loop
      vertex   2.900000e+01 2.924925e+01 -4.100000e+01
      vertex   2.900000e+01 1.249925e+01 -4.100000e+01
      vertex   2.899925e+01 2.925000e+01 -8.200000e+01
    endloop
  endfacet
  facet normal 1.000000e+00 -4.486539e-05 -1.832998e-05
    outer loop
      vertex   2.899925e+01 2.925000e+01 -8.200000e+01
      vertex   2.900000e+01 4.600000e+01 -8.200000e+01
      vertex   2.900000e+01 2.924925e+01 -4.100000e+01
    endloop
  endfacet
  facet normal 1.000000e+00 4.486538e-05 1.832997e-05
    outer loop
      vertex   2.899925e+01 4.599925e+01 -4.100000e+01
      vertex   2.900000e+01 2.924925e+01 -4.100000e+01
      vertex   2.900000e+01 4.600000e+01 -8.200000e+01
    endloop
  endfacet
  facet normal 1.000000e+00 -0.000000e+00 0.000000e+00
    outer loop
      vertex   2.900000e+01 -2.100000e+01 -4.100000e+01
      vertex   2.900000e+01 -4.250749e+00 -4.100075e+01
      vertex   2.900000e+01 -2.100000e+01 2.443790e-06
    endloop
  endfacet
  facet normal 1.000000e+00 0.000000e+00 0.000000e+00
    outer loop
      vertex   2.900000e+01 -4.250000e+00 2.443790e-06
      vertex   2.900000e+01 -2.100000e+01 2.443790e-06
      vertex   2.900000e+01 -4.250749e+00 -4.100075e+01
    endloop
  endfacet
  facet normal 1.000000e+00 0.000000e+00 0.000000e+00
    outer loop
      vertex   2.900000e+01 -4.250749e+00 -4.100075e+01
      vertex   2.900000e+01 1.249925e+01 -4.100000e+01
      vertex   2.900000e+01 -4.250000e+00 2.443790e-06
    endloop
  endfacet
  facet normal 1.000000e+00 0.000000e+00 0.000000e+00
    outer loop
      vertex   2.900000e+01 1.250000e+01 2.443790e-06
      vertex   2.900000e+01 -4.250000e+00 2.443790e-06
      vertex   2.900000e+01 1.249925e+01 -4.100000e+01
    endloop
  endfacet
  facet normal 1.000000e+00 0.000000e+00 0.000000e+00
    outer loop
      vertex   2.900000e+01 1.249925e+01 -4.100000e+01
      vertex   2.900000e+01 2.924925e+01 -4.100000e+01
      vertex   2.900000e+01 1.250000e+01 2.443790e-06
    endloop
  endfacet
  facet normal 1.000000e+00 0.000000e+00 0.000000e+00
    outer loop
      vertex   2.900000e+01 2.925000e+01 2.443790e-06
      vertex   2.900000e+01 1.250000e+01 2.443790e-06
      vertex   2.900000e+01 2.924925e+01 -4.100000e+01
    endloop
  endfacet
  facet normal 1.000000e+00 4.486538e-05 -8.223446e-10
    outer loop
      vertex   2.900000e+01 2.924925e+01 -4.100000e+01
      vertex   2.899925e+01 4.599925e+01 -4.100000e+01
      vertex   2.900000e+01 2.925000e+01 2.443790e-06
    endloop
  endfacet
  facet normal 1.000000e+00 0.000000e+00 -1.832916e-05
    outer loop
      vertex   2.900000e+01 4.600000e+01 2.443790e-06
      vertex   2.900000e+01 2.925000e+01 2.443790e-06
      vertex   2.899925e+01 4.599925e+01 -4.100000e+01
    endloop
  endfacet
endsolid
