solid ASCII
  facet normal 1.000000e+00 0.000000e+00 0.000000e+00
    outer loop
      vertex   2.900000e-02 4.600001e-02 0.000000e+00
      vertex   2.900000e-02 -2.100000e-02 0.000000e+00
      vertex   2.900000e-02 4.600001e-02 -1.640000e-01
    endloop
  endfacet
  facet normal 1.000000e+00 0.000000e+00 0.000000e+00
    outer loop
      vertex   2.900000e-02 4.600001e-02 -1.640000e-01
      vertex   2.900000e-02 -2.100000e-02 0.000000e+00
      vertex   2.900000e-02 -2.100000e-02 -1.640000e-01
    endloop
  endfacet
  facet normal -1.000000e+00 0.000000e+00 4.571431e-06
    outer loop
      vertex   -2.000075e-02 4.600001e-02 -1.640000e-01
      vertex   -2.000000e-02 -2.100000e-02 0.000000e+00
      vertex   -2.000000e-02 4.600001e-02 0.000000e+00
    endloop
  endfacet
  facet normal -1.000000e+00 -1.118977e-05 -0.000000e+00
    outer loop
      vertex   -2.000000e-02 -2.100000e-02 0.000000e+00
      vertex   -2.000075e-02 4.600001e-02 -1.640000e-01
      vertex   -2.000000e-02 -2.100000e-02 -1.640000e-01
    endloop
  endfacet
  facet normal 0.000000e+00 1.000000e+00 0.000000e+00
    outer loop
      vertex   2.900000e-02 4.600001e-02 0.000000e+00
      vertex   2.900000e-02 4.600001e-02 -1.640000e-01
      vertex   -2.000000e-02 4.600001e-02 0.000000e+00
    endloop
  endfacet
  facet normal 0.000000e+00 1.000000e+00 0.000000e+00
    outer loop
      vertex   -2.000075e-02 4.600001e-02 -1.640000e-01
      vertex   -2.000000e-02 4.600001e-02 0.000000e+00
      vertex   2.900000e-02 4.600001e-02 -1.640000e-01
    endloop
  endfacet
  facet normal 0.000000e+00 -1.000000e+00 0.000000e+00
    outer loop
      vertex   -2.000000e-02 -2.100000e-02 0.000000e+00
      vertex   2.900000e-02 -2.100000e-02 -1.640000e-01
      vertex   2.900000e-02 -2.100000e-02 0.000000e+00
    endloop
  endfacet
  facet normal 0.000000e+00 -1.000000e+00 0.000000e+00
    outer loop
      vertex   2.900000e-02 -2.100000e-02 -1.640000e-01
      vertex   -2.000000e-02 -2.100000e-02 0.000000e+00
      vertex   -2.000000e-02 -2.100000e-02 -1.640000e-01
    endloop
  endfacet
  facet normal -0.000000e+00 0.000000e+00 1.000000e+00
    outer loop
      vertex   -2.000000e-02 4.600001e-02 0.000000e+00
      vertex   2.900000e-02 -2.100000e-02 0.000000e+00
      vertex   2.900000e-02 4.600001e-02 0.000000e+00
    endloop
  endfacet
  facet normal 0.000000e+00 0.000000e+00 1.000000e+00
    outer loop
      vertex   2.900000e-02 -2.100000e-02 0.000000e+00
      vertex   -2.000000e-02 4.600001e-02 0.000000e+00
      vertex   -2.000000e-02 -2.100000e-02 0.000000e+00
    endloop
  endfacet
  facet normal 0.000000e+00 0.000000e+00 -1.000000e+00
    outer loop
      vertex   -2.000075e-02 4.600001e-02 -1.640000e-01
      vertex   2.900000e-02 4.600001e-02 -1.640000e-01
      vertex   2.900000e-02 -2.100000e-02 -1.640000e-01
    endloop
  endfacet
  facet normal 0.000000e+00 0.000000e+00 -1.000000e+00
    outer loop
      vertex   -2.000000e-02 -2.100000e-02 -1.640000e-01
      vertex   -2.000075e-02 4.600001e-02 -1.640000e-01
      vertex   2.900000e-02 -2.100000e-02 -1.640000e-01
    endloop
  endfacet
endsolid
